<svg width="48" height="48" viewBox="0 0 48 48" fill="none" xmlns="http://www.w3.org/2000/svg">
<rect width="48" height="48" fill="white"/>
<path d="M24.0004 29.75C23.8362 29.7501 23.6736 29.7178 23.5218 29.655C23.3701 29.5922 23.2322 29.5001 23.1161 29.384C23 29.2679 22.9079 29.13 22.8451 28.9783C22.7823 28.8266 22.75 28.6639 22.7501 28.4997M24.0004 29.75L23.2501 24.5C23.0764 24.5 22.9063 24.4638 22.7501 24.3956M24.0004 29.75H24.7501C25.0816 29.75 25.3996 29.6183 25.634 29.3839C25.8684 29.1495 26.0001 28.8315 26.0001 28.5C26.0001 28.1685 25.8684 27.8505 25.634 27.6161C25.5225 27.5046 25.392 27.4163 25.2501 27.3544M24.0004 29.75L25.2501 27.3544M22.7501 28.4997L23.2501 28.5H22.7501V28.4997ZM22.7501 28.4997V24.3956M22.7501 24.3956C22.6083 24.3337 22.4778 24.2454 22.3662 24.1339C22.1318 23.8995 22.0001 23.5815 22.0001 23.25C22.0001 22.9185 22.1318 22.6005 22.3662 22.3661C22.6007 22.1317 22.9186 22 23.2501 22H23.9998M22.7501 24.3956V24H23.2501M23.2501 24C23.0512 24 22.8604 23.921 22.7198 23.7803C22.5791 23.6397 22.5001 23.4489 22.5001 23.25C22.5001 23.0511 22.5791 22.8603 22.7198 22.7197C22.8604 22.579 23.0512 22.5 23.2501 22.5H24.0001M23.2501 24L24.7501 29.25C24.949 29.25 25.1398 29.171 25.2805 29.0303C25.4211 28.8897 25.5001 28.6989 25.5001 28.5C25.5001 28.3011 25.4211 28.1103 25.2805 27.9697C25.1398 27.829 24.949 27.75 24.7501 27.75H25.2501V27.3544M23.2501 24L23.9998 22M24.0001 22.5C24.0986 22.4999 24.1962 22.5193 24.2872 22.557C24.3782 22.5946 24.4609 22.6499 24.5306 22.7195C24.6002 22.7892 24.6555 22.8719 24.6932 22.9629C24.7308 23.0539 24.7502 23.1515 24.7501 23.25M24.0001 22.5L23.9998 22M24.0001 22.5V22H23.9998M24.7501 23.25V27.25C24.9239 27.25 25.0939 27.2862 25.2501 27.3544M24.7501 23.25H25.2501V23.2503V27.3544M24.7501 23.25L25.2501 27.3544M18.8611 16.3089C20.3822 15.2926 22.1705 14.7501 23.9998 14.75C26.4523 14.7529 28.8034 15.7284 30.5376 17.4626C32.2718 19.1968 33.2473 21.548 33.2501 24.0006C33.25 25.8299 32.7075 27.618 31.6912 29.139C30.6748 30.6602 29.2302 31.8458 27.5399 32.5459C25.8497 33.246 23.9899 33.4292 22.1955 33.0723C20.4012 32.7154 18.753 31.8344 17.4594 30.5407C16.1658 29.2471 15.2848 27.5989 14.9279 25.8046C14.5709 24.0103 14.7541 22.1504 15.4542 20.4602C16.1544 18.77 17.3399 17.3253 18.8611 16.3089ZM24.9028 18.5239C24.6356 18.3453 24.3214 18.25 24 18.25C23.7866 18.25 23.5753 18.292 23.3782 18.3737C23.181 18.4554 23.0019 18.5751 22.851 18.7259C22.7001 18.8768 22.5804 19.056 22.4987 19.2531C22.4171 19.4503 22.375 19.6616 22.375 19.875C22.375 20.1964 22.4703 20.5106 22.6489 20.7778C22.8275 21.045 23.0812 21.2533 23.3782 21.3763C23.6751 21.4993 24.0018 21.5315 24.3171 21.4688C24.6323 21.4061 24.9218 21.2513 25.1491 21.024C25.3763 20.7968 25.5311 20.5072 25.5938 20.192C25.6565 19.8768 25.6243 19.5501 25.5013 19.2531C25.3783 18.9562 25.1701 18.7024 24.9028 18.5239Z" fill="white" stroke="black"/>
</svg>
