<svg width="48" height="48" viewBox="0 0 48 48" fill="none" xmlns="http://www.w3.org/2000/svg">
<path d="M23.9966 14.2471C22.5829 14.2471 20.9336 14.658 19.5847 15.7265C18.2357 16.795 17.2483 18.5601 17.2483 21.0027C17.2483 23.5859 18.8695 26.1016 20.4152 28.0336C21.9608 29.9657 23.5044 31.3162 23.5044 31.3162C23.7877 31.5655 24.2113 31.5655 24.4946 31.3162C24.4946 31.3162 26.0382 29.9657 27.5838 28.0336C29.1295 26.1016 30.7507 23.5859 30.7507 21.0027C30.7507 18.5601 29.7634 16.795 28.4144 15.7265C27.0654 14.658 25.4103 14.2471 23.9966 14.2471ZM23.9966 15.7485C25.114 15.7485 26.4662 16.0934 27.4842 16.8998C28.5023 17.7062 29.2508 18.9454 29.2508 21.0027C29.2508 22.9193 27.8967 25.2951 26.4164 27.0918C25.1604 28.6162 24.5778 29.1514 24.0024 29.7284C23.4619 29.1716 22.7737 28.5599 21.5826 27.0918C20.116 25.284 18.7483 22.9193 18.7483 21.0027C18.7483 18.9455 19.4967 17.7062 20.5148 16.8998C21.5329 16.0934 22.8791 15.7485 23.9966 15.7485ZM23.9966 17.2645C21.9345 17.2645 20.2482 18.9567 20.2482 21.0188C20.2482 23.0809 21.9345 24.7672 23.9966 24.7672C26.0587 24.7672 27.7508 23.0809 27.7508 21.0188C27.7508 18.9567 26.0587 17.2645 23.9966 17.2645ZM23.9966 18.7659C25.2481 18.7659 26.2509 19.7673 26.2509 21.0188C26.2509 22.2703 25.2481 23.2658 23.9966 23.2658C22.7451 23.2658 21.7496 22.2703 21.7496 21.0188C21.7496 19.7673 22.7451 18.7659 23.9966 18.7659ZM20.2321 29.4281C20.2154 29.4294 20.1988 29.4315 20.1823 29.434C18.5551 29.6014 17.3239 29.8473 16.4896 30.2089C16.0724 30.3897 15.6981 30.565 15.4715 31.0556C15.3582 31.3008 15.3472 31.6441 15.454 31.9022C15.5607 32.1603 15.7349 32.3327 15.9139 32.4676C16.6299 33.0074 17.652 33.2186 19.0471 33.4256C20.4422 33.6326 22.1616 33.7521 23.9966 33.7522C25.8316 33.7523 27.5504 33.6324 28.9461 33.4256C30.3418 33.2187 31.3687 33.0065 32.0851 32.4676C32.2643 32.3329 32.4378 32.1657 32.5451 31.9081C32.6524 31.6505 32.6403 31.3013 32.5275 31.0556C32.3019 30.564 31.9264 30.3899 31.5095 30.2089C30.6757 29.847 29.4494 29.6016 27.8226 29.434C26.8665 29.3561 26.6385 30.7543 27.6673 30.9281C28.9667 31.062 30.059 31.2752 30.6877 31.4979C30.2517 31.6559 29.609 31.8107 28.7249 31.9418C27.4252 32.1344 25.7669 32.2524 23.9966 32.2523C22.2263 32.2522 20.5688 32.1345 19.2697 31.9418C18.3815 31.81 17.7354 31.6561 17.301 31.4979C17.915 31.2949 19.0265 31.0624 20.3317 30.9281C21.3112 30.783 21.1796 29.435 20.2321 29.4282L20.2321 29.4281Z" fill="black"/>
</svg>
