<svg width="26" height="10" viewBox="0 0 26 10" fill="none" xmlns="http://www.w3.org/2000/svg">
<path d="M25.1872 5.63188C24.9976 4.36906 24.6853 4.12312 24.5673 4.03062C24.296 3.81687 23.862 3.67719 23.4027 3.53062C23.3767 3.52248 23.3543 3.51086 23.3372 3.49669C23.3201 3.48252 23.3088 3.46618 23.3041 3.44897C23.2995 3.43176 23.3016 3.41414 23.3104 3.39751C23.3192 3.38087 23.3344 3.36568 23.3548 3.35313C23.4398 3.30195 23.5052 3.24045 23.5464 3.17285C23.5876 3.10526 23.6036 3.03318 23.5934 2.96156C23.5736 2.83457 23.474 2.71662 23.3145 2.63113C23.155 2.54563 22.9471 2.49883 22.7322 2.5H21.9105C21.8753 2.50012 21.8401 2.50148 21.8052 2.50406C21.7812 2.49789 21.7563 2.49297 21.7309 2.48938C21.2442 1.87906 20.5779 1.04344 19.1969 0.635625C17.1484 0.0312499 13.375 0 12.6376 0C11.9002 0 8.12682 0.0312499 6.08104 0.634687C4.69999 1.0425 4.03369 1.87813 3.547 2.48844L3.54279 2.49344C3.51852 2.49546 3.49468 2.49903 3.47168 2.50406C3.43673 2.50148 3.40156 2.50012 3.36634 2.5H2.54308C2.32812 2.49883 2.12027 2.54563 1.96075 2.63113C1.80124 2.71662 1.7017 2.83457 1.68189 2.96156C1.67254 3.03301 1.68929 3.10482 1.73102 3.17208C1.77275 3.23933 1.83845 3.30045 1.92366 3.35125C1.94404 3.3638 1.95923 3.379 1.96802 3.39563C1.97681 3.41226 1.97897 3.42988 1.97432 3.44709C1.96967 3.46431 1.95835 3.48064 1.94124 3.49481C1.92413 3.50898 1.9017 3.5206 1.87573 3.52875C1.41643 3.67625 0.980304 3.81594 0.711151 4.02875C0.593166 4.1225 0.281349 4.36719 0.0912037 5.63C-0.01414 6.34063 -0.0299415 7.07625 0.0527533 7.55C0.226044 8.53438 0.551029 9.12937 0.564724 9.15406C0.614592 9.2439 0.70639 9.32351 0.829457 9.38363C0.952524 9.44376 1.10181 9.48194 1.25999 9.49375V9.5C1.25999 9.63261 1.34878 9.75979 1.50683 9.85355C1.66487 9.94732 1.87923 10 2.10274 10H5.05236C5.27587 10 5.49023 9.94732 5.64828 9.85355C5.80632 9.75979 5.89511 9.63261 5.89511 9.5C6.34862 9.5 6.66412 9.45188 6.99859 9.40063C7.48147 9.32343 7.97505 9.27208 8.4734 9.24719C10.0804 9.15625 11.6785 9.125 12.6376 9.125C13.5773 9.125 15.2459 9.15625 16.8556 9.24719C17.3559 9.27213 17.8514 9.32369 18.3362 9.40125C18.6564 9.45 18.9604 9.495 19.3812 9.49969C19.3812 9.6323 19.47 9.75947 19.628 9.85324C19.7861 9.94701 20.0004 9.99969 20.224 9.99969H23.1736C23.3971 9.99969 23.6114 9.94701 23.7695 9.85324C23.9275 9.75947 24.0163 9.6323 24.0163 9.49969V9.49594C24.1749 9.48435 24.3246 9.44627 24.4481 9.38613C24.5716 9.32599 24.6637 9.24626 24.7137 9.15625C24.7274 9.13156 25.0524 8.53656 25.2257 7.55219C25.3084 7.07813 25.2936 6.34375 25.1872 5.63188ZM5.07027 2.91594C5.49165 2.38469 5.97359 1.78344 6.83162 1.53C8.07151 1.16375 10.6414 0.99875 12.6376 0.99875C14.6339 0.99875 17.2038 1.1625 18.4437 1.53C19.3017 1.78344 19.7815 2.385 20.205 2.91594L20.2577 2.98375C20.2885 3.02235 20.3021 3.065 20.2972 3.10761C20.2924 3.15023 20.2692 3.19139 20.2299 3.22718C20.1906 3.26296 20.1365 3.29218 20.0727 3.31204C20.009 3.3319 19.9378 3.34174 19.8658 3.34062C18.1155 3.3125 14.4285 3.2225 12.6376 3.2225C10.8468 3.2225 7.15976 3.31469 5.40685 3.34281C5.33488 3.34393 5.26363 3.33409 5.1999 3.31423C5.13616 3.29437 5.08207 3.26515 5.04277 3.22936C5.00347 3.19358 4.98028 3.15241 4.97542 3.1098C4.97055 3.06719 4.98417 3.02454 5.01497 2.98594C5.0334 2.96281 5.05289 2.93937 5.07027 2.91594V2.91594ZM5.69865 5.40438C4.79259 5.46907 3.88073 5.50101 2.96814 5.5C2.40982 5.5 1.83411 5.40625 1.72719 5.11125C1.65398 4.91281 1.66188 4.80125 1.70138 4.68906C1.73456 4.59375 1.78724 4.52437 2.0506 4.5C2.73533 4.4375 3.11825 4.51594 4.23911 4.71187C4.98231 4.84156 5.51851 5.01437 5.82401 5.15125C5.97728 5.21875 5.89564 5.395 5.69865 5.40438V5.40438ZM17.3591 7.96688C16.666 8.01375 15.2797 7.99656 12.6534 7.99656C10.0272 7.99656 8.64142 8.01375 7.94826 7.96688C7.23298 7.91969 6.32123 7.51844 6.94381 7.16094C7.35834 6.92531 8.32539 6.74906 9.61322 6.65C10.901 6.55094 11.4462 6.5 12.6482 6.5C13.8501 6.5 14.34 6.53125 15.6831 6.65031C17.0263 6.76937 18.0412 6.94781 18.3525 7.16125C18.9203 7.54375 18.0739 7.91719 17.3591 7.96875V7.96688ZM23.5481 5.11094C23.4427 5.40719 22.8633 5.49969 22.3071 5.49969C21.3771 5.49982 20.4478 5.46789 19.5239 5.40406C19.3628 5.395 19.288 5.22719 19.4513 5.15094C19.752 5.01062 20.294 4.84125 21.0362 4.71156C22.157 4.51563 22.8033 4.43719 23.3585 4.5025C23.4938 4.51844 23.5655 4.60469 23.5739 4.65875C23.611 4.80928 23.6023 4.96255 23.5481 5.11125V5.11094Z" fill="white"/>
</svg>
