<svg width="64" height="64" viewBox="0 0 64 64" fill="none" xmlns="http://www.w3.org/2000/svg">
<g filter="url(#filter0_d_176_518)">
<circle cx="32" cy="28" r="28" fill="white"/>
</g>
<circle cx="32" cy="28" r="25" fill="#FFA000"/>
<g clip-path="url(#clip0_176_518)">
<path d="M29.0002 37.25C29.0002 37.6949 28.8682 38.1299 28.621 38.4999C28.3738 38.87 28.0224 39.1583 27.6112 39.3286C27.2001 39.4989 26.7477 39.5435 26.3113 39.4567C25.8749 39.3699 25.474 39.1556 25.1593 38.841C24.8446 38.5263 24.6303 38.1254 24.5435 37.689C24.4567 37.2525 24.5012 36.8001 24.6715 36.389C24.8418 35.9779 25.1301 35.6265 25.5001 35.3792C25.8701 35.132 26.3051 35 26.7501 35C27.0456 35 27.3382 35.0581 27.6112 35.1712C27.8842 35.2843 28.1322 35.45 28.3412 35.6589C28.5501 35.8679 28.7158 36.1159 28.8289 36.3889C28.942 36.6619 29.0002 36.9545 29.0002 37.25Z" fill="white"/>
<path d="M44.0002 37.25C44.0002 37.6949 43.8682 38.1299 43.621 38.4999C43.3738 38.87 43.0224 39.1583 42.6112 39.3286C42.2001 39.4989 41.7477 39.5435 41.3113 39.4567C40.8749 39.3699 40.474 39.1556 40.1593 38.841C39.8446 38.5263 39.6303 38.1254 39.5435 37.689C39.4567 37.2525 39.5012 36.8001 39.6715 36.389C39.8418 35.9779 40.1301 35.6265 40.5001 35.3792C40.8701 35.132 41.3051 35 41.7501 35C42.0456 35 42.3382 35.0581 42.6112 35.1712C42.8842 35.2843 43.1322 35.45 43.3412 35.6589C43.5501 35.8679 43.7158 36.1159 43.8289 36.3889C43.942 36.6619 44.0002 36.9545 44.0002 37.25Z" fill="white"/>
<path d="M44 27.5V18.5H26C26 18.303 25.9613 18.1079 25.8859 17.9259C25.8106 17.7439 25.7001 17.5785 25.5608 17.4392C25.4215 17.2999 25.2561 17.1894 25.0741 17.1141C24.8921 17.0387 24.697 17 24.5 17H20V18.5H23.0004L24.1265 28.1582C23.6409 28.5464 23.2879 29.0759 23.1164 29.6734C22.9448 30.2709 22.9632 30.907 23.1689 31.4937C23.3747 32.0803 23.7576 32.5886 24.2648 32.9481C24.772 33.3076 25.3783 33.5006 26 33.5005H44V32.0001H26C25.803 32.0001 25.6079 31.9613 25.4259 31.886C25.2439 31.8106 25.0785 31.7001 24.9393 31.5608C24.8 31.4215 24.6895 31.2562 24.6141 31.0742C24.5387 30.8922 24.5 30.6971 24.5 30.5001V30.4851L44 27.5Z" fill="white"/>
</g>
<defs>
<filter id="filter0_d_176_518" x="0" y="0" width="64" height="64" filterUnits="userSpaceOnUse" color-interpolation-filters="sRGB">
<feFlood flood-opacity="0" result="BackgroundImageFix"/>
<feColorMatrix in="SourceAlpha" type="matrix" values="0 0 0 0 0 0 0 0 0 0 0 0 0 0 0 0 0 0 127 0" result="hardAlpha"/>
<feOffset dy="4"/>
<feGaussianBlur stdDeviation="2"/>
<feComposite in2="hardAlpha" operator="out"/>
<feColorMatrix type="matrix" values="0 0 0 0 0 0 0 0 0 0 0 0 0 0 0 0 0 0 0.25 0"/>
<feBlend mode="normal" in2="BackgroundImageFix" result="effect1_dropShadow_176_518"/>
<feBlend mode="normal" in="SourceGraphic" in2="effect1_dropShadow_176_518" result="shape"/>
</filter>
<clipPath id="clip0_176_518">
<rect width="24" height="22.5002" fill="white" transform="translate(20 17)"/>
</clipPath>
</defs>
</svg>
