<svg width="48" height="48" viewBox="0 0 48 48" fill="none" xmlns="http://www.w3.org/2000/svg">
<path d="M32.3582 24.9493C34.3627 24.9555 35.9878 26.6094 36 28.6556V32.2823C35.9878 34.3304 34.3645 35.9876 32.3582 36H28.8056C26.8012 35.9875 25.181 34.3285 25.1749 32.2823V28.6556C25.1749 26.6087 26.8004 24.9493 28.8056 24.9493H32.3582ZM17.1007 24.9493C17.4737 24.9086 17.8368 25.0888 18.0358 25.4134C18.2348 25.7381 18.2348 26.1502 18.0358 26.4748C17.8368 26.7995 17.4737 26.9797 17.1007 26.9389H15.6418C14.7112 26.9389 13.9551 27.7057 13.949 28.6556V32.2369C13.9726 33.1792 14.7185 33.9357 15.6418 33.9536H19.2167C19.6646 33.9566 20.0952 33.7771 20.413 33.4548C20.7308 33.1325 20.9095 32.6942 20.9095 32.2369V26.8593L20.8943 26.7256C20.8775 26.3698 21.0482 26.0271 21.3485 25.8327C21.6863 25.614 22.1204 25.6269 22.4453 25.8653C22.7701 26.1036 22.9204 26.5196 22.8251 26.9162V32.271C22.8251 34.3242 21.1946 35.9887 19.1833 35.9887H15.6418C13.6479 35.9464 12.0414 34.3064 12 32.271V28.6556C12 27.6707 12.384 26.7262 13.0673 26.0309C13.7506 25.3355 14.6769 24.9463 15.6418 24.9493H17.1007ZM32.3582 26.9389H28.8056C27.8768 26.9389 27.1239 27.7075 27.1239 28.6556V32.2823C27.1209 32.7386 27.2971 33.177 27.6131 33.4996C27.9292 33.8222 28.3587 34.0021 28.8056 33.9991H32.3582C32.8052 34.0021 33.2346 33.8222 33.5507 33.4996C33.8667 33.177 34.0429 32.7386 34.0399 32.2823V28.6556C34.0399 28.2003 33.8627 27.7637 33.5474 27.4417C33.232 27.1198 32.8042 26.9389 32.3582 26.9389ZM32.3582 12C34.3478 12.0482 35.9477 13.6865 35.9889 15.7177V19.333C36.0007 20.316 35.6296 21.2636 34.9571 21.9672C34.2845 22.6708 33.3657 23.0728 32.4028 23.0848H30.9327C30.4347 23.0304 30.057 22.6013 30.057 22.09C30.057 21.5787 30.4347 21.1496 30.9327 21.0952H32.3582C32.8091 21.0922 33.2403 20.9057 33.556 20.577C33.8717 20.2483 34.0459 19.8047 34.0399 19.3444V15.7177C34.0279 14.7747 33.282 14.0132 32.3582 14.0009H28.8056C27.8768 14.0009 27.1239 14.7696 27.1239 15.7177V21.1407L27.1123 21.2654C27.0367 21.7548 26.6191 22.1244 26.1216 22.1184C25.8626 22.1125 25.6167 22.001 25.4389 21.8087C25.261 21.6165 25.1659 21.3595 25.1749 21.0952V15.7177C25.172 14.7327 25.5532 13.7871 26.2344 13.0896C26.9156 12.392 27.8407 12 28.8056 12H32.3582ZM19.1944 12C21.2032 12.0062 22.8301 13.667 22.8362 15.7177V19.3444C22.8362 20.3293 22.4522 21.2738 21.7689 21.9692C21.0856 22.6646 20.1593 23.0537 19.1944 23.0507H15.6418C13.6373 23.0445 12.0122 21.3906 12 19.3444V15.7177C12.0122 13.6696 13.6355 12.0124 15.6418 12H19.1944ZM19.1944 14.0009H15.6418C15.19 13.9918 14.7536 14.1686 14.431 14.4915C14.1083 14.8145 13.9266 15.2564 13.9267 15.7177V19.3444C13.9175 19.8115 14.0952 20.2623 14.4189 20.5927C14.7425 20.9231 15.1841 21.1046 15.6418 21.0952H19.1944C19.6453 21.0922 20.0765 20.9057 20.3922 20.577C20.7079 20.2483 20.882 19.8047 20.8761 19.3444V15.7177C20.87 14.7721 20.1207 14.0071 19.1944 14.0009Z" fill="#B5B5B5"/>
</svg>
