<svg width="72" height="61" viewBox="0 0 72 61" fill="none" xmlns="http://www.w3.org/2000/svg">
<g clip-path="url(#clip0_25_250)">
<path d="M21.4792 54.9417C20.7033 55.1405 19.7442 55.4296 19.1678 56.0121C18.4655 56.7218 18.2072 57.8031 17.9778 58.8812C17.9738 58.903 17.9622 58.9227 17.9451 58.9369C17.928 58.9511 17.9065 58.9589 17.8843 58.9589C17.8621 58.9589 17.8406 58.9511 17.8235 58.9369C17.8065 58.9227 17.7949 58.903 17.7908 58.8812C17.6058 58.0171 17.3674 56.9798 16.8664 56.3382C16.2292 55.5223 15.2476 55.1884 14.2838 54.9415C14.2624 54.9367 14.2432 54.9246 14.2295 54.9074C14.2157 54.8903 14.2083 54.8689 14.2083 54.8469C14.2083 54.8249 14.2157 54.8036 14.2295 54.7864C14.2432 54.7692 14.2624 54.7572 14.2838 54.7523C15.1267 54.5364 16.0924 54.2501 16.6953 53.5877C17.3238 52.8973 17.5763 51.8146 17.7908 50.8126C17.7949 50.7908 17.8065 50.771 17.8235 50.7569C17.8406 50.7427 17.8621 50.7349 17.8843 50.7349C17.9065 50.7349 17.928 50.7427 17.9451 50.7569C17.9622 50.771 17.9738 50.7908 17.9778 50.8126C18.178 51.7537 18.52 52.8231 19.09 53.4943C19.7089 54.223 20.5833 54.5226 21.4792 54.7521C21.5008 54.7568 21.5202 54.7688 21.5341 54.7861C21.548 54.8033 21.5555 54.8248 21.5555 54.8469C21.5555 54.869 21.548 54.8905 21.5341 54.9077C21.5202 54.925 21.5008 54.937 21.4792 54.9417Z" fill="#ED1C24"/>
<path d="M59.0546 10.1594C57.9458 10.4435 56.575 10.8566 55.7512 11.6892C54.7476 12.7034 54.3785 14.2487 54.0506 15.7894C54.0449 15.8207 54.0284 15.849 54.004 15.8694C53.9796 15.8898 53.9488 15.901 53.917 15.901C53.8851 15.901 53.8543 15.8898 53.8299 15.8694C53.8054 15.849 53.789 15.8207 53.7833 15.7894C53.5188 14.5546 53.178 13.0721 52.4621 12.1553C51.5515 10.9892 50.1487 10.5122 48.7713 10.1593C48.7406 10.1523 48.7133 10.1351 48.6936 10.1105C48.674 10.086 48.6633 10.0554 48.6633 10.024C48.6633 9.99258 48.674 9.96208 48.6936 9.93751C48.7133 9.91293 48.7406 9.89575 48.7713 9.88877C49.9756 9.58026 51.3559 9.17113 52.2177 8.2245C53.1159 7.23769 53.4766 5.69047 53.7833 4.25859C53.789 4.22735 53.8055 4.1991 53.83 4.17876C53.8544 4.15842 53.8852 4.14729 53.917 4.14729C53.9487 4.14729 53.9795 4.15842 54.0039 4.17876C54.0284 4.1991 54.0449 4.22735 54.0506 4.25859C54.3369 5.60364 54.8255 7.13196 55.6399 8.09107C56.5244 9.13244 57.774 9.56059 59.0543 9.88861C59.0852 9.89543 59.1128 9.91255 59.1326 9.93715C59.1523 9.96175 59.1631 9.99236 59.1632 10.0239C59.1632 10.0555 59.1525 10.0861 59.1327 10.1108C59.113 10.1354 59.0854 10.1526 59.0546 10.1594Z" fill="#ED1C24"/>
<path d="M67.1605 28.655C66.0517 28.9391 64.6809 29.3522 63.8572 30.1847C62.8535 31.199 62.4845 32.7442 62.1566 34.285C62.1508 34.3163 62.1343 34.3445 62.1099 34.3648C62.0855 34.3852 62.0547 34.3963 62.0229 34.3963C61.9911 34.3963 61.9603 34.3852 61.9359 34.3648C61.9115 34.3445 61.895 34.3163 61.8892 34.285C61.6248 33.0501 61.2839 31.5677 60.568 30.6509C59.6575 29.4847 58.2547 29.0077 56.8773 28.6548C56.8466 28.6479 56.8192 28.6307 56.7996 28.6061C56.78 28.5815 56.7693 28.551 56.7693 28.5196C56.7693 28.4882 56.78 28.4577 56.7996 28.4331C56.8192 28.4085 56.8466 28.3913 56.8773 28.3843C58.0816 28.0758 59.4619 27.6667 60.3236 26.72C61.2219 25.7332 61.5829 24.186 61.8892 22.7541C61.895 22.7229 61.9115 22.6946 61.9359 22.6743C61.9603 22.6539 61.9911 22.6428 62.0229 22.6428C62.0547 22.6428 62.0855 22.6539 62.1099 22.6743C62.1343 22.6946 62.1508 22.7229 62.1566 22.7541C62.4425 24.0992 62.9314 25.6275 63.7458 26.5866C64.6304 27.628 65.88 28.0561 67.1604 28.3842C67.1912 28.391 67.2188 28.4081 67.2386 28.4327C67.2583 28.4573 67.2691 28.488 67.2692 28.5195C67.2692 28.5511 67.2584 28.5817 67.2387 28.6063C67.2189 28.631 67.1914 28.6481 67.1605 28.655Z" fill="#ED1C24"/>
<path d="M71.9633 19.0047C71.5869 19.1011 71.1219 19.2413 70.842 19.5239C70.5014 19.8682 70.3761 20.3927 70.2646 20.9157C70.2627 20.9263 70.2571 20.9359 70.2488 20.9428C70.2405 20.9497 70.23 20.9535 70.2193 20.9535C70.2085 20.9535 70.198 20.9497 70.1897 20.9428C70.1814 20.9359 70.1758 20.9263 70.1739 20.9157C70.0841 20.4966 69.9685 19.9933 69.7255 19.6821C69.4164 19.2865 68.9402 19.1244 68.4727 19.0046C68.4623 19.0022 68.453 18.9964 68.4463 18.9881C68.4397 18.9797 68.436 18.9694 68.436 18.9587C68.436 18.948 68.4397 18.9377 68.4463 18.9293C68.453 18.921 68.4623 18.9152 68.4727 18.9128C68.8815 18.808 69.35 18.6692 69.6425 18.3479C69.9474 18.0126 70.0698 17.4878 70.1739 17.0015C70.1758 16.9909 70.1814 16.9813 70.1897 16.9744C70.198 16.9675 70.2085 16.9637 70.2193 16.9637C70.23 16.9637 70.2405 16.9675 70.2488 16.9744C70.2571 16.9813 70.2627 16.9909 70.2646 17.0015C70.3618 17.4581 70.5277 17.9768 70.8042 18.3024C71.1044 18.6558 71.5285 18.8012 71.9631 18.9123C71.9738 18.9145 71.9834 18.9202 71.9903 18.9286C71.9972 18.937 72.001 18.9476 72.001 18.9584C72.001 18.9693 71.9973 18.9799 71.9904 18.9883C71.9835 18.9967 71.974 19.0025 71.9633 19.0047Z" fill="#ED1C24"/>
<path d="M30.3923 52.5854C18.135 52.5854 8.16284 42.6202 8.16284 30.3715C8.16284 18.1228 18.135 8.15762 30.3923 8.15762C42.6495 8.15762 52.6216 18.1227 52.6216 30.3715C52.6216 42.6204 42.6495 52.5854 30.3923 52.5854ZM30.3923 9.63378C18.9496 9.63378 9.6401 18.9369 9.6401 30.3715C9.6401 41.8062 18.9496 51.1092 30.3923 51.1092C41.8349 51.1092 51.1444 41.8062 51.1444 30.3715C51.1444 18.9369 41.8348 9.63378 30.3923 9.63378Z" fill="#B1000E"/>
<path d="M36.6719 10.7892C31.8103 8.70941 18.4417 8.2068 11.645 21.4546C18.038 13.7883 24.9627 9.91493 36.6719 10.7892Z" fill="#FFABBF"/>
<path d="M25.9425 50.6247C37.2351 49.8095 45.0456 43.207 50.449 35.2438C49.5758 40.2071 46.2195 44.7656 42.1528 47.5704C38.0861 50.3751 31.7707 52.0844 25.8879 50.6247" fill="#D20000"/>
<path d="M35.8692 17.8666L30.0418 24.5202C27.9097 22.6556 25.7777 20.791 23.6458 18.9264C20.038 15.7709 14.8286 21.1347 18.464 24.314C20.6833 26.2552 22.9027 28.1962 25.1221 30.1373C23.256 32.2678 21.3902 34.3982 19.5245 36.5287C16.3668 40.134 21.7343 45.3397 24.9159 41.707C26.8583 39.4893 28.8008 37.2715 30.7432 35.0535C32.875 36.9183 35.0069 38.7829 37.1388 40.6473C40.7469 43.8027 45.9559 38.4387 42.3209 35.2596C40.1014 33.3186 37.882 31.3775 35.6628 29.4363C37.5285 27.3059 39.3944 25.1755 41.2604 23.0452C44.4182 19.4395 39.0505 14.234 35.8692 17.8666Z" fill="#D20000"/>
</g>
<defs>
<clipPath id="clip0_25_250">
<rect width="72" height="60.7427" fill="white"/>
</clipPath>
</defs>
</svg>
