<svg width="72" height="61" viewBox="0 0 72 61" fill="none" xmlns="http://www.w3.org/2000/svg">
<g clip-path="url(#clip0_83_36)">
<path d="M21.4793 54.9417C20.7034 55.1405 19.7442 55.4295 19.1678 56.0121C18.4655 56.7218 18.2073 57.8031 17.9779 58.8811C17.9738 58.903 17.9623 58.9227 17.9452 58.9369C17.9281 58.9511 17.9066 58.9588 17.8844 58.9588C17.8622 58.9588 17.8407 58.9511 17.8236 58.9369C17.8065 58.9227 17.7949 58.903 17.7909 58.8811C17.6058 58.017 17.3675 56.9797 16.8664 56.3382C16.2293 55.5223 15.2477 55.1884 14.2839 54.9415C14.2624 54.9366 14.2432 54.9246 14.2295 54.9074C14.2158 54.8902 14.2083 54.8689 14.2083 54.8469C14.2083 54.8249 14.2158 54.8035 14.2295 54.7863C14.2432 54.7691 14.2624 54.7571 14.2839 54.7522C15.1267 54.5364 16.0925 54.2501 16.6954 53.5877C17.3239 52.8972 17.5763 51.8146 17.7909 50.8125C17.7949 50.7907 17.8065 50.771 17.8236 50.7568C17.8407 50.7426 17.8622 50.7349 17.8844 50.7349C17.9066 50.7349 17.9281 50.7426 17.9452 50.7568C17.9623 50.771 17.9738 50.7907 17.9779 50.8125C18.1781 51.7537 18.52 52.8231 19.09 53.4943C19.709 54.223 20.5833 54.5225 21.4793 54.7521C21.5009 54.7568 21.5203 54.7688 21.5341 54.786C21.548 54.8033 21.5556 54.8247 21.5556 54.8469C21.5556 54.869 21.548 54.8905 21.5341 54.9077C21.5203 54.9249 21.5009 54.9369 21.4793 54.9417Z" fill="#ED1C24"/>
<path d="M59.0546 10.1594C57.9458 10.4434 56.5751 10.8565 55.7513 11.6891C54.7477 12.7033 54.3786 14.2486 54.0507 15.7894C54.045 15.8207 54.0285 15.849 54.0041 15.8694C53.9797 15.8898 53.9488 15.9009 53.917 15.9009C53.8852 15.9009 53.8544 15.8898 53.8299 15.8694C53.8055 15.849 53.789 15.8207 53.7834 15.7894C53.5189 14.5546 53.1781 13.0721 52.4622 12.1553C51.5516 10.9892 50.1488 10.5122 48.7714 10.1592C48.7407 10.1522 48.7133 10.135 48.6937 10.1105C48.6741 10.0859 48.6634 10.0554 48.6634 10.0239C48.6634 9.99251 48.6741 9.96201 48.6937 9.93744C48.7133 9.91287 48.7407 9.89569 48.7714 9.88871C49.9757 9.58019 51.356 9.17106 52.2177 8.22443C53.116 7.23762 53.4767 5.6904 53.7834 4.25852C53.7891 4.22728 53.8056 4.19903 53.83 4.17869C53.8544 4.15835 53.8852 4.14722 53.917 4.14722C53.9488 4.14722 53.9796 4.15835 54.004 4.17869C54.0284 4.19903 54.0449 4.22728 54.0507 4.25852C54.337 5.60357 54.8256 7.13189 55.6399 8.091C56.5245 9.13238 57.7741 9.56052 59.0544 9.88854C59.0852 9.89536 59.1128 9.91248 59.1326 9.93708C59.1524 9.96168 59.1632 9.99229 59.1632 10.0239C59.1633 10.0554 59.1525 10.086 59.1328 10.1107C59.113 10.1353 59.0855 10.1525 59.0546 10.1594Z" fill="#ED1C24"/>
<path d="M67.1605 28.655C66.0517 28.9391 64.6809 29.3522 63.8572 30.1847C62.8535 31.199 62.4845 32.7442 62.1566 34.285C62.1508 34.3163 62.1343 34.3445 62.1099 34.3649C62.0855 34.3852 62.0547 34.3963 62.0229 34.3963C61.9911 34.3963 61.9603 34.3852 61.9359 34.3649C61.9115 34.3445 61.895 34.3163 61.8892 34.285C61.6248 33.0502 61.2839 31.5677 60.568 30.6509C59.6575 29.4848 58.2547 29.0078 56.8773 28.6548C56.8466 28.6479 56.8192 28.6307 56.7996 28.6061C56.78 28.5815 56.7693 28.551 56.7693 28.5196C56.7693 28.4882 56.78 28.4577 56.7996 28.4331C56.8192 28.4085 56.8466 28.3913 56.8773 28.3844C58.0816 28.0758 59.4619 27.6667 60.3236 26.72C61.2219 25.7332 61.5829 24.1861 61.8892 22.7541C61.895 22.7229 61.9115 22.6946 61.9359 22.6743C61.9603 22.654 61.9911 22.6428 62.0229 22.6428C62.0547 22.6428 62.0855 22.654 62.1099 22.6743C62.1343 22.6946 62.1508 22.7229 62.1566 22.7541C62.4425 24.0992 62.9314 25.6276 63.7458 26.5866C64.6304 27.628 65.88 28.0561 67.1604 28.3842C67.1912 28.391 67.2188 28.4081 67.2386 28.4328C67.2583 28.4574 67.2691 28.488 67.2692 28.5195C67.2692 28.5511 67.2584 28.5817 67.2387 28.6064C67.2189 28.631 67.1914 28.6481 67.1605 28.655Z" fill="#ED1C24"/>
<path d="M71.9633 19.0046C71.5869 19.101 71.1219 19.2412 70.842 19.5238C70.5014 19.8681 70.3761 20.3926 70.2646 20.9156C70.2627 20.9262 70.2571 20.9358 70.2488 20.9428C70.2405 20.9497 70.23 20.9535 70.2193 20.9535C70.2085 20.9535 70.198 20.9497 70.1897 20.9428C70.1814 20.9358 70.1758 20.9262 70.1739 20.9156C70.0841 20.4965 69.9685 19.9933 69.7255 19.6821C69.4164 19.2864 68.9402 19.1243 68.4727 19.0046C68.4623 19.0022 68.453 18.9964 68.4463 18.988C68.4397 18.9797 68.436 18.9693 68.436 18.9586C68.436 18.948 68.4397 18.9376 68.4463 18.9293C68.453 18.9209 68.4623 18.9151 68.4727 18.9127C68.8815 18.808 69.35 18.6691 69.6425 18.3478C69.9474 18.0126 70.0698 17.4877 70.1739 17.0014C70.1758 16.9908 70.1814 16.9812 70.1897 16.9743C70.198 16.9674 70.2085 16.9636 70.2193 16.9636C70.23 16.9636 70.2405 16.9674 70.2488 16.9743C70.2571 16.9812 70.2627 16.9908 70.2646 17.0014C70.3618 17.458 70.5277 17.9768 70.8042 18.3023C71.1044 18.6558 71.5285 18.8011 71.9631 18.9123C71.9738 18.9144 71.9834 18.9202 71.9903 18.9286C71.9972 18.937 72.001 18.9475 72.001 18.9584C72.001 18.9693 71.9973 18.9798 71.9904 18.9882C71.9835 18.9967 71.974 19.0024 71.9633 19.0046Z" fill="#ED1C24"/>
<path d="M30.3923 52.5852C18.135 52.5852 8.16284 42.6201 8.16284 30.3714C8.16284 18.1227 18.135 8.15747 30.3923 8.15747C42.6495 8.15747 52.6216 18.1225 52.6216 30.3714C52.6216 42.6203 42.6495 52.5852 30.3923 52.5852ZM30.3923 9.63364C18.9496 9.63364 9.6401 18.9367 9.6401 30.3714C9.6401 41.8061 18.9496 51.1091 30.3923 51.1091C41.8349 51.1091 51.1444 41.806 51.1444 30.3714C51.1444 18.9368 41.8348 9.63364 30.3923 9.63364Z" fill="#B1000E"/>
<path d="M36.672 10.7891C31.8103 8.70934 18.4418 8.20674 11.6451 21.4545C18.0381 13.7883 24.9628 9.91487 36.672 10.7891Z" fill="#FFABBF"/>
<path d="M25.9425 50.6246C37.2351 49.8093 45.0456 43.2068 50.449 35.2437C49.5758 40.207 46.2195 44.7654 42.1528 47.5702C38.0861 50.375 31.7707 52.0842 25.8879 50.6246" fill="#D20000"/>
<g clip-path="url(#clip1_83_36)">
<path d="M26.0045 18.1294L27.0204 33.4744C27.0607 34.0806 27.3314 34.6519 27.7814 35.0807C28.2314 35.5095 28.8297 35.7662 29.4639 35.8026C30.1304 35.8403 30.7866 35.6318 31.2971 35.2201C31.8075 34.8085 32.1331 34.2251 32.2066 33.5904L33.9879 18.1681C34.0197 17.8928 33.99 17.6142 33.9007 17.3508C33.8113 17.0873 33.6645 16.845 33.4698 16.64C33.2751 16.435 33.037 16.2718 32.7714 16.1615C32.5057 16.0512 32.2186 15.9961 31.929 15.9999L28.0146 16.0529C27.7379 16.0567 27.4649 16.1141 27.2122 16.2217C26.9594 16.3294 26.7321 16.485 26.5442 16.6792C26.3562 16.8734 26.2114 17.102 26.1187 17.3513C26.0259 17.6006 25.987 17.8653 26.0045 18.1294Z" fill="#D20000"/>
<path d="M33.7173 44.4337C33.4733 45.1368 33.0168 45.7549 32.4054 46.2098C31.794 46.6647 31.0553 46.9361 30.2827 46.9895C29.51 47.0429 28.7382 46.8761 28.0647 46.51C27.3913 46.1439 26.8464 45.5951 26.4992 44.9329C26.1519 44.2707 26.0178 43.525 26.1137 42.7899C26.2097 42.0548 26.5315 41.3634 27.0384 40.8032C27.5452 40.243 28.2144 39.8392 28.9613 39.6427C29.7083 39.4462 30.4993 39.4659 31.2345 39.6994C32.2202 40.0124 33.0355 40.687 33.5011 41.5749C33.9668 42.4627 34.0445 43.491 33.7173 44.4337Z" fill="#D20000"/>
</g>
</g>
<defs>
<clipPath id="clip0_83_36">
<rect width="72" height="60.7427" fill="white"/>
</clipPath>
<clipPath id="clip1_83_36">
<rect width="8" height="31" fill="white" transform="translate(26 16)"/>
</clipPath>
</defs>
</svg>
