<svg width="48" height="48" viewBox="0 0 48 48" fill="none" xmlns="http://www.w3.org/2000/svg">
<path d="M34.1626 18.8491L32.7685 17.7123V13.959C32.7802 13.8209 32.7631 13.6819 32.7183 13.5508C32.6735 13.4197 32.602 13.2993 32.5082 13.1973C32.4145 13.0952 32.3006 13.0138 32.1737 12.9581C32.0468 12.9023 31.9098 12.8736 31.7712 12.8736C31.6327 12.8736 31.4956 12.9023 31.3687 12.9581C31.2419 13.0138 31.128 13.0952 31.0342 13.1973C30.9405 13.2993 30.8689 13.4197 30.8241 13.5508C30.7793 13.6819 30.7622 13.8209 30.7739 13.959V16.0537L27.1635 13.1297C26.2697 12.3991 25.1508 12 23.9964 12C22.842 12 21.7231 12.3991 20.8293 13.1297L13.8302 18.8491C13.2579 19.3134 12.7966 19.8997 12.48 20.5651C12.1633 21.2306 11.9993 21.9584 12 22.6953V30.774C12 32.1013 12.5273 33.3742 13.4658 34.3127C14.4043 35.2512 15.6772 35.7785 17.0045 35.7785H30.9955C32.3228 35.7785 33.5957 35.2512 34.5342 34.3127C35.4727 33.3742 36 32.1013 36 30.774V22.6668C35.9956 21.9341 35.8284 21.2115 35.5107 20.5513C35.1929 19.891 34.7325 19.3096 34.1626 18.8491ZM21.0009 33.7409V26.8205C21.0385 26.0504 21.3709 25.3243 21.9292 24.7925C22.4875 24.2608 23.229 23.9643 24 23.9643C24.771 23.9643 25.5125 24.2608 26.0708 24.7925C26.6291 25.3243 26.9615 26.0504 26.9991 26.8205V33.7409H21.0009ZM34.0054 30.7454C34.0035 31.5393 33.6873 32.3001 33.1259 32.8615C32.5645 33.4228 31.8037 33.739 31.0098 33.7409H29.0009V26.8205C29.0009 25.4932 28.4736 24.2203 27.5351 23.2818C26.5966 22.3432 25.3237 21.816 23.9964 21.816C22.6692 21.816 21.3963 22.3432 20.4577 23.2818C19.5192 24.2203 18.992 25.4932 18.992 26.8205V33.7409H16.9902C16.195 33.7409 15.4324 33.4256 14.8695 32.864C14.3066 32.3024 13.9894 31.5405 13.9875 30.7454V22.6668C13.987 22.222 14.0856 21.7828 14.276 21.3809C14.4665 20.979 14.744 20.6245 15.0885 20.3432L22.0876 14.6239C22.6235 14.1897 23.2924 13.9528 23.9821 13.9528C24.6719 13.9528 25.3407 14.1897 25.8767 14.6239L32.8758 20.3432C33.2255 20.6217 33.5085 20.9749 33.7039 21.377C33.8994 21.779 34.0024 22.2197 34.0054 22.6668V30.7454Z" fill="#B5B5B5"/>
</svg>
