<svg width="48" height="48" viewBox="0 0 48 48" fill="none" xmlns="http://www.w3.org/2000/svg">
<rect width="48" height="48" fill="white"/>
<path d="M23.99 14C18.47 14 14 18.48 14 24C14 29.52 18.47 34 23.99 34C29.52 34 34 29.52 34 24C34 18.48 29.52 14 23.99 14ZM30.92 20H27.97C27.65 18.75 27.19 17.55 26.59 16.44C28.43 17.07 29.96 18.35 30.92 20ZM24 16.04C24.83 17.24 25.48 18.57 25.91 20H22.09C22.52 18.57 23.17 17.24 24 16.04ZM16.26 26C16.1 25.36 16 24.69 16 24C16 23.31 16.1 22.64 16.26 22H19.64C19.56 22.66 19.5 23.32 19.5 24C19.5 24.68 19.56 25.34 19.64 26H16.26ZM17.08 28H20.03C20.35 29.25 20.81 30.45 21.41 31.56C19.57 30.93 18.04 29.66 17.08 28ZM20.03 20H17.08C18.04 18.34 19.57 17.07 21.41 16.44C20.81 17.55 20.35 18.75 20.03 20ZM24 31.96C23.17 30.76 22.52 29.43 22.09 28H25.91C25.48 29.43 24.83 30.76 24 31.96ZM26.34 26H21.66C21.57 25.34 21.5 24.68 21.5 24C21.5 23.32 21.57 22.65 21.66 22H26.34C26.43 22.65 26.5 23.32 26.5 24C26.5 24.68 26.43 25.34 26.34 26ZM26.59 31.56C27.19 30.45 27.65 29.25 27.97 28H30.92C29.96 29.65 28.43 30.93 26.59 31.56ZM28.36 26C28.44 25.34 28.5 24.68 28.5 24C28.5 23.32 28.44 22.66 28.36 22H31.74C31.9 22.64 32 23.31 32 24C32 24.69 31.9 25.36 31.74 26H28.36Z" fill="black"/>
</svg>
