<svg width="59" height="29" viewBox="0 0 59 29" fill="none" xmlns="http://www.w3.org/2000/svg">
<g clip-path="url(#clip0_212_3003)">
<path d="M17.3569 24.6411H40.8644C41.0203 24.6411 41.1699 24.7031 41.2802 24.8133C41.3905 24.9236 41.4524 25.0732 41.4524 25.2291V26.2854C41.4524 26.3627 41.4372 26.4391 41.4076 26.5105C41.3781 26.5818 41.3348 26.6466 41.2802 26.7012C41.2256 26.7558 41.1608 26.7992 41.0894 26.8287C41.0181 26.8583 40.9416 26.8735 40.8644 26.8735H17.3569C17.2797 26.8735 17.2032 26.8583 17.1319 26.8287C17.0605 26.7991 16.9957 26.7558 16.9412 26.7012C16.8866 26.6466 16.8433 26.5818 16.8137 26.5105C16.7842 26.4391 16.769 26.3627 16.769 26.2854V25.229C16.769 25.073 16.831 24.9235 16.9412 24.8133C17.0515 24.703 17.201 24.6411 17.3569 24.6411V24.6411Z" fill="black"/>
<path d="M42.1565 26.6989C42.1565 26.9437 41.8987 27.1409 41.5807 27.1409H16.5998C16.2818 27.1409 16.024 26.9432 16.024 26.6989C16.024 26.4542 16.2818 26.2568 16.5998 26.2568H41.5807C41.8987 26.2568 42.1565 26.4549 42.1565 26.6989Z" fill="#515155"/>
<path opacity="0.4" d="M42.1075 26.5221C42.0497 26.4366 41.9708 26.3674 41.8785 26.3212C41.7861 26.2751 41.6835 26.2535 41.5803 26.2585H16.5998C16.4967 26.2535 16.394 26.2751 16.3017 26.3213C16.2094 26.3674 16.1305 26.4366 16.0726 26.5221H42.1075Z" fill="#C4C4C4"/>
<path d="M58.0227 15.2961L15.3575 14.4565C15.3575 14.4565 8.07712 15.5699 1.57023 18.7797C1.05017 19.2265 0.986527 19.627 0.905751 20.1293C0.879014 20.2941 0.857927 20.4607 0.836838 20.6277C0.658529 21.4374 0.26689 23.2274 1.00197 24.0188C2.08068 25.1792 1.38288 24.4707 2.71257 26.0209C2.75419 26.0697 2.82555 26.0681 2.88203 26.09L53.1671 25.9565L57.5647 24.5475L58.2678 22.4387V20.5982L58.0227 15.2961Z" fill="#B5B5B5"/>
<g style="mix-blend-mode:multiply" opacity="0.4">
<g style="mix-blend-mode:multiply" opacity="0.4">
<path d="M1.85756 18.6401C1.76165 18.6865 1.66588 18.7331 1.57023 18.7802C1.05017 19.227 0.986527 19.6275 0.905751 20.1299C0.879014 20.2946 0.857927 20.4613 0.836838 20.6283C0.658529 21.4379 0.26689 23.228 1.00197 24.0194C2.08068 25.1798 1.38288 24.4713 2.71257 26.0214C2.75419 26.0702 2.82555 26.0687 2.88203 26.0905L53.1671 25.957L57.5647 24.5481L58.2678 22.4392V20.5983L58.1772 18.6401H1.85756Z" fill="#B5B5B5"/>
</g>
</g>
<g style="mix-blend-mode:multiply" opacity="0.4">
<g style="mix-blend-mode:multiply" opacity="0.4">
<path d="M0.572516 22.4912C0.565173 23.0832 0.664967 23.6558 1.002 24.0186C2.08071 25.179 1.38291 24.4705 2.71261 26.0207C2.75422 26.0695 2.82558 26.0679 2.88207 26.0898L53.1671 25.9563L57.5648 24.5473L58.2503 22.4912H0.572516Z" fill="#DE8D00"/>
</g>
</g>
<path d="M57.0226 2.76192C56.9356 2.55141 56.4084 0.824983 53.7652 0.617111C43.8373 -0.163347 21.9357 -0.260879 13.8057 0.65703C12.3736 0.81877 8.03844 5.24582 8.02413 5.26315C2.28677 12.1813 1.09509 19.5321 1.09509 19.5321L58.0431 16.1009C58.0431 16.1009 57.5684 4.08521 57.0226 2.76192Z" fill="#B5B5B5"/>
<g style="mix-blend-mode:screen" opacity="0.5">
<g style="mix-blend-mode:screen" opacity="0.5">
<path d="M56.3517 1.68735C55.8784 1.20401 55.0862 0.720859 53.7658 0.617111C43.8378 -0.163347 21.9363 -0.260879 13.8063 0.65703C13.3847 0.704479 12.7116 1.12211 11.9714 1.68735H56.3517Z" fill="#B5B5B5"/>
</g>
</g>
<path d="M2.8444 15.0673C3.2685 14.75 3.60698 14.3322 3.82934 13.8515C4.13587 13.2577 4.39741 12.6433 4.71223 12.0524C5.05868 11.4024 5.42359 10.7628 5.80694 10.1336C6.49885 9.00654 7.25319 7.91904 8.06641 6.87617C8.47312 6.34896 8.88641 5.82458 9.3191 5.31751C9.52998 5.07067 9.78361 4.86148 10.0069 4.62593C10.2517 4.36797 10.6422 3.97953 10.6192 3.5894C10.6146 3.4816 10.5706 3.37926 10.4955 3.30176C10.4204 3.22427 10.3196 3.17701 10.212 3.16895C9.02216 4.24219 8.03139 5.25519 8.02461 5.26366C5.5572 8.26095 3.61892 11.657 2.29309 15.3059C2.49012 15.2614 2.67709 15.1805 2.8444 15.0673Z" fill="#00384B"/>
<path d="M5.98984 24.0738C5.98984 21.3981 8.27153 19.2288 11.0861 19.2288C13.9006 19.2288 16.1823 21.3981 16.1823 24.0738C16.1826 24.7721 16.025 25.4613 15.7212 26.09H16.6528C17.0874 25.1547 17.2792 24.1249 17.2106 23.0959C17.1421 22.0668 16.8153 21.0716 16.2605 20.2021C15.7057 19.3327 14.9408 18.6171 14.0364 18.1213C13.1321 17.6256 12.1173 17.3657 11.086 17.3657C10.0546 17.3657 9.0399 17.6256 8.13551 18.1213C7.23111 18.6171 6.46621 19.3327 5.91143 20.2021C5.35666 21.0716 5.0299 22.0668 4.96134 23.0959C4.89277 24.1249 5.0846 25.1547 5.51912 26.09H6.45096C6.1471 25.4614 5.98946 24.7721 5.98984 24.0738V24.0738Z" fill="#201E1E"/>
<g style="mix-blend-mode:screen">
<path d="M17.2235 23.5031C17.2236 22.5845 17.0175 21.6775 16.6204 20.8491C16.2233 20.0207 15.6453 19.2921 14.9291 18.7168C14.2129 18.1415 13.3767 17.7344 12.4821 17.5253C11.5876 17.3163 10.6575 17.3107 9.76055 17.5089C8.86356 17.7072 8.02251 18.1042 7.29941 18.6708C6.5763 19.2374 5.98959 19.959 5.58253 20.7826C5.17548 21.6061 4.95845 22.5105 4.94746 23.4291C4.93647 24.3476 5.1318 25.257 5.51904 26.09H5.66139C5.27816 25.1929 5.12342 24.2147 5.21101 23.2431C5.29861 22.2715 5.62582 21.3368 6.16333 20.5227C6.70084 19.7086 7.43187 19.0405 8.29095 18.5782C9.15004 18.116 10.1104 17.874 11.0859 17.874C12.0615 17.874 13.0218 18.116 13.8809 18.5782C14.7399 19.0405 15.471 19.7086 16.0085 20.5227C16.546 21.3368 16.8732 22.2715 16.9608 23.2431C17.0484 24.2147 16.8936 25.1929 16.5104 26.09H16.6528C17.0298 25.2798 17.2246 24.3967 17.2235 23.5031V23.5031Z" fill="#201E1E"/>
</g>
<path d="M11.086 19.2285C8.27143 19.2285 5.98975 21.3978 5.98975 24.0736C5.98936 24.7718 6.14701 25.4611 6.45087 26.0898H15.7211C16.0249 25.4611 16.1825 24.7718 16.1822 24.0736C16.1822 21.3978 13.9005 19.2285 11.086 19.2285Z" fill="black"/>
<path d="M15.4195 24.5847C15.4195 25.4418 15.1654 26.2797 14.6893 26.9923C14.2131 27.705 13.5363 28.2605 12.7445 28.5885C11.9527 28.9165 11.0814 29.0024 10.2407 28.8352C9.40011 28.668 8.62794 28.2553 8.02187 27.6492C7.41581 27.0432 7.00307 26.271 6.83585 25.4304C6.66862 24.5898 6.75443 23.7185 7.08241 22.9266C7.4104 22.1348 7.96583 21.458 8.67847 20.9818C9.39111 20.5056 10.2289 20.2515 11.086 20.2515C12.2353 20.2515 13.3375 20.708 14.1502 21.5206C14.9629 22.3333 15.4195 23.4355 15.4195 24.5847V24.5847Z" fill="#363635"/>
<path d="M15.4195 24.5847C15.4195 25.4418 15.1654 26.2797 14.6893 26.9923C14.2131 27.705 13.5363 28.2605 12.7445 28.5885C11.9527 28.9165 11.0814 29.0024 10.2407 28.8352C9.40011 28.668 8.62794 28.2553 8.02187 27.6492C7.41581 27.0432 7.00307 26.271 6.83585 25.4304C6.66862 24.5898 6.75443 23.7185 7.08241 22.9266C7.4104 22.1348 7.96583 21.458 8.67847 20.9818C9.39111 20.5056 10.2289 20.2515 11.086 20.2515C12.2353 20.2515 13.3375 20.708 14.1502 21.5206C14.9629 22.3333 15.4195 23.4355 15.4195 24.5847V24.5847Z" fill="#222222"/>
<path d="M14.0264 24.5847C14.0264 25.1662 13.854 25.7346 13.5309 26.2181C13.2078 26.7016 12.7487 27.0784 12.2114 27.301C11.6742 27.5235 11.0831 27.5818 10.5127 27.4683C9.9424 27.3549 9.41852 27.0749 9.00733 26.6637C8.59614 26.2525 8.3161 25.7287 8.20264 25.1584C8.08917 24.588 8.14737 23.9969 8.36987 23.4597C8.59237 22.9224 8.96919 22.4632 9.45266 22.1401C9.93614 21.817 10.5046 21.6446 11.0861 21.6445C11.8659 21.6445 12.6137 21.9543 13.1651 22.5057C13.7165 23.057 14.0263 23.8049 14.0264 24.5847V24.5847Z" fill="black"/>
<path d="M13.7702 24.5846C13.7702 25.1155 13.6128 25.6345 13.3179 26.0759C13.0229 26.5173 12.6037 26.8614 12.1132 27.0646C11.6227 27.2677 11.083 27.3209 10.5623 27.2173C10.0416 27.1137 9.56334 26.8581 9.18794 26.4827C8.81254 26.1073 8.55688 25.629 8.45331 25.1083C8.34974 24.5876 8.4029 24.0479 8.60606 23.5574C8.80923 23.0669 9.15328 22.6477 9.5947 22.3528C10.0361 22.0578 10.5551 21.9004 11.086 21.9004C11.4385 21.9004 11.7876 21.9698 12.1132 22.1047C12.4389 22.2396 12.7348 22.4373 12.9841 22.6865C13.2334 22.9358 13.4311 23.2317 13.566 23.5574C13.7008 23.8831 13.7703 24.2321 13.7702 24.5846V24.5846Z" fill="#D5D3CB"/>
<path d="M12.4322 22.9855C12.4368 22.954 12.4327 22.9219 12.4205 22.8925C12.1269 22.6277 11.7538 22.4679 11.3597 22.438C11.3219 22.4458 11.2865 22.4625 11.2565 22.4867C11.2426 22.5072 11.2306 22.529 11.2207 22.5517V24.0437C11.2287 24.0635 11.2386 24.0824 11.2503 24.1002C11.2589 24.1051 11.2676 24.1094 11.2763 24.1136C11.3005 24.1112 11.3245 24.106 11.3476 24.0983L12.4188 23.0273C12.4241 23.0137 12.4286 22.9997 12.4322 22.9855V22.9855Z" fill="#4C4C49"/>
<path d="M13.2172 24.4601C13.2423 24.441 13.2619 24.4154 13.2737 24.3861C13.2533 23.9913 13.1026 23.6144 12.8451 23.3145C12.8126 23.2938 12.7758 23.281 12.7376 23.2769C12.7133 23.2816 12.6895 23.2885 12.6664 23.2976L11.6109 24.3529C11.6029 24.3726 11.5966 24.393 11.592 24.4137C11.5949 24.4232 11.5979 24.4326 11.6013 24.4414C11.6199 24.4571 11.6404 24.4705 11.6623 24.4813H13.1771C13.1909 24.4752 13.2043 24.4681 13.2172 24.4601V24.4601Z" fill="#4C4C49"/>
<path d="M12.7047 26.0104C12.7364 26.0157 12.7689 26.0122 12.7988 26.0004C13.0688 25.7115 13.2351 25.341 13.2716 24.9473C13.2645 24.9096 13.2485 24.8741 13.2249 24.8437C13.2047 24.8292 13.1831 24.8165 13.1605 24.8061L11.6681 24.7803C11.6485 24.7881 11.6296 24.7976 11.6116 24.8087C11.6067 24.8174 11.6022 24.8258 11.5979 24.8347C11.5998 24.8589 11.6045 24.8829 11.612 24.9061L12.6642 25.9959C12.6774 26.0015 12.6909 26.0064 12.7047 26.0104V26.0104Z" fill="#4C4C49"/>
<path d="M11.2564 26.6748C11.276 26.7 11.3021 26.7195 11.3318 26.7313C11.7262 26.7052 12.1009 26.549 12.3971 26.2871C12.418 26.2547 12.4309 26.2178 12.4348 26.1794C12.4297 26.1551 12.4224 26.1313 12.4131 26.1083L11.3429 25.0681C11.3231 25.0599 11.3026 25.0536 11.2817 25.0493C11.2723 25.0519 11.263 25.055 11.254 25.0587C11.2386 25.0776 11.2256 25.0983 11.2152 25.1203L11.2367 26.6349C11.2424 26.6486 11.249 26.6619 11.2564 26.6748V26.6748Z" fill="#4C4C49"/>
<path d="M9.74 22.9855C9.73543 22.9541 9.73939 22.9219 9.75148 22.8925C10.045 22.6278 10.4181 22.4679 10.8123 22.438C10.8501 22.4458 10.8854 22.4625 10.9155 22.4867C10.9295 22.5072 10.9415 22.529 10.9515 22.5517V24.0437C10.9434 24.0634 10.9334 24.0824 10.9217 24.1002C10.9132 24.1051 10.9046 24.1094 10.8957 24.1136C10.8714 24.1111 10.8475 24.106 10.8244 24.0983L9.75337 23.0273C9.74786 23.0138 9.7434 22.9998 9.74 22.9855V22.9855Z" fill="#4C4C49"/>
<path d="M8.95502 24.4601C8.92949 24.441 8.90953 24.4155 8.89722 24.3861C8.91781 23.9913 9.06872 23.6144 9.32633 23.3145C9.35866 23.2937 9.39542 23.2808 9.43365 23.2769C9.45794 23.2816 9.48176 23.2886 9.50482 23.2976L10.5602 24.3529C10.5682 24.3726 10.5745 24.3929 10.579 24.4137C10.5762 24.4232 10.5732 24.4326 10.5698 24.4414C10.5511 24.4571 10.5306 24.4705 10.5088 24.4813H8.99381C8.98039 24.4752 8.96743 24.4681 8.95502 24.4601Z" fill="#4C4C49"/>
<path d="M9.46731 26.0104C9.43591 26.0155 9.40369 26.0121 9.3741 26.0004C9.10416 25.7114 8.9378 25.341 8.90112 24.9473C8.90841 24.9096 8.92447 24.8741 8.94801 24.8437C8.96822 24.8292 8.98979 24.8165 9.0124 24.8061L10.5048 24.7803C10.5244 24.7881 10.5433 24.7976 10.5613 24.8087C10.5658 24.8174 10.5705 24.8258 10.5746 24.8347C10.5728 24.8589 10.5681 24.8829 10.5607 24.9061L9.50855 25.9959C9.49511 26.0016 9.48134 26.0064 9.46731 26.0104V26.0104Z" fill="#4C4C49"/>
<path d="M10.9155 26.6748C10.8959 26.7001 10.8699 26.7196 10.8402 26.7313C10.4457 26.7052 10.071 26.549 9.77484 26.2871C9.75421 26.2546 9.74132 26.2177 9.73718 26.1794C9.74261 26.1552 9.74991 26.1314 9.75902 26.1083L10.8296 25.0681C10.8494 25.0599 10.8699 25.0536 10.8908 25.0493C10.9002 25.052 10.9093 25.0551 10.9183 25.0587C10.9337 25.0776 10.9467 25.0983 10.9571 25.1203L10.9356 26.6349C10.9299 26.6487 10.9232 26.662 10.9155 26.6748V26.6748Z" fill="#4C4C49"/>
<path d="M11.8744 24.5848C11.8744 24.7407 11.8282 24.8932 11.7415 25.0229C11.6549 25.1526 11.5317 25.2537 11.3877 25.3134C11.2436 25.3732 11.085 25.3888 10.932 25.3584C10.779 25.3279 10.6385 25.2528 10.5282 25.1425C10.4179 25.0323 10.3428 24.8917 10.3124 24.7387C10.282 24.5858 10.2976 24.4272 10.3573 24.2831C10.417 24.139 10.5181 24.0158 10.6478 23.9292C10.7775 23.8426 10.93 23.7963 11.086 23.7964C11.1895 23.7964 11.292 23.8168 11.3877 23.8564C11.4833 23.896 11.5702 23.9541 11.6434 24.0273C11.7167 24.1005 11.7747 24.1874 11.8143 24.2831C11.854 24.3787 11.8744 24.4812 11.8744 24.5848Z" fill="#D5D3CB"/>
<path d="M11.5965 24.1969C11.5964 24.2163 11.5906 24.2353 11.5798 24.2514C11.569 24.2675 11.5537 24.28 11.5358 24.2874C11.5178 24.2948 11.4981 24.2967 11.4791 24.2929C11.4601 24.2891 11.4426 24.2798 11.4289 24.266C11.4152 24.2523 11.4059 24.2348 11.4021 24.2158C11.3984 24.1968 11.4003 24.1771 11.4078 24.1592C11.4152 24.1412 11.4278 24.1259 11.4439 24.1152C11.46 24.1044 11.479 24.0986 11.4984 24.0986C11.5113 24.0986 11.5241 24.1011 11.536 24.1061C11.5479 24.111 11.5587 24.1182 11.5679 24.1274C11.577 24.1365 11.5842 24.1474 11.5891 24.1593C11.594 24.1712 11.5965 24.184 11.5965 24.1969V24.1969Z" fill="#4C4C49"/>
<path d="M11.1881 24.0568C11.1881 24.0762 11.1823 24.0951 11.1715 24.1112C11.1607 24.1273 11.1454 24.1399 11.1275 24.1473C11.1096 24.1547 11.0899 24.1566 11.0709 24.1528C11.0518 24.149 11.0344 24.1397 11.0207 24.126C11.007 24.1123 10.9976 24.0948 10.9938 24.0758C10.99 24.0568 10.992 24.0371 10.9994 24.0191C11.0068 24.0012 11.0193 23.9859 11.0354 23.9751C11.0515 23.9643 11.0705 23.9585 11.0899 23.9585C11.1159 23.9585 11.1409 23.9689 11.1593 23.9873C11.1778 24.0057 11.1881 24.0307 11.1881 24.0568Z" fill="#4C4C49"/>
<path d="M10.7718 24.2122C10.7718 24.2316 10.7661 24.2507 10.7554 24.2669C10.7446 24.2831 10.7293 24.2958 10.7114 24.3032C10.6934 24.3107 10.6736 24.3127 10.6545 24.309C10.6355 24.3052 10.6179 24.2959 10.6041 24.2822C10.5903 24.2685 10.5809 24.2509 10.5771 24.2319C10.5733 24.2128 10.5752 24.193 10.5826 24.175C10.5901 24.157 10.6027 24.1417 10.6188 24.1309C10.635 24.12 10.654 24.1143 10.6735 24.1143C10.6995 24.1143 10.7244 24.1246 10.7428 24.1429C10.7613 24.1613 10.7717 24.1862 10.7718 24.2122V24.2122Z" fill="#4C4C49"/>
<path d="M11.5965 25.0553C11.5965 25.0359 11.5908 25.0169 11.58 25.0008C11.5693 24.9846 11.554 24.972 11.536 24.9646C11.5181 24.9571 11.4984 24.9551 11.4793 24.9589C11.4603 24.9627 11.4428 24.972 11.4291 24.9857C11.4153 24.9994 11.406 25.0169 11.4022 25.0359C11.3984 25.055 11.4003 25.0747 11.4077 25.0926C11.4151 25.1106 11.4277 25.1259 11.4438 25.1367C11.46 25.1475 11.479 25.1532 11.4984 25.1532C11.5244 25.1532 11.5493 25.1429 11.5677 25.1246C11.5861 25.1062 11.5964 25.0813 11.5965 25.0553V25.0553Z" fill="#4C4C49"/>
<path d="M11.789 24.6461C11.789 24.6267 11.7833 24.6077 11.7725 24.5916C11.7618 24.5754 11.7465 24.5628 11.7285 24.5554C11.7106 24.5479 11.6909 24.546 11.6718 24.5497C11.6528 24.5535 11.6353 24.5628 11.6216 24.5765C11.6078 24.5902 11.5985 24.6077 11.5947 24.6267C11.5909 24.6458 11.5928 24.6655 11.6002 24.6835C11.6076 24.7014 11.6202 24.7167 11.6364 24.7275C11.6525 24.7383 11.6715 24.744 11.6909 24.744C11.7169 24.744 11.7418 24.7337 11.7602 24.7154C11.7786 24.697 11.7889 24.6721 11.789 24.6461Z" fill="#4C4C49"/>
<path d="M10.5794 24.646C10.5795 24.6266 10.5738 24.6075 10.563 24.5913C10.5522 24.5751 10.5369 24.5624 10.5189 24.5549C10.501 24.5474 10.4812 24.5455 10.4621 24.5492C10.443 24.553 10.4254 24.5623 10.4117 24.5761C10.3979 24.5898 10.3885 24.6074 10.3847 24.6264C10.3809 24.6455 10.3829 24.6653 10.3903 24.6833C10.3978 24.7013 10.4104 24.7166 10.4266 24.7274C10.4428 24.7382 10.4618 24.744 10.4813 24.7439C10.5073 24.7439 10.5322 24.7336 10.5506 24.7153C10.569 24.6969 10.5793 24.672 10.5794 24.646Z" fill="#4C4C49"/>
<path d="M11.1881 25.1951C11.1881 25.1757 11.1823 25.1568 11.1715 25.1407C11.1607 25.1245 11.1454 25.112 11.1275 25.1046C11.1096 25.0972 11.0899 25.0953 11.0709 25.0991C11.0518 25.1029 11.0344 25.1122 11.0207 25.1259C11.007 25.1396 10.9976 25.1571 10.9938 25.1761C10.99 25.1951 10.992 25.2148 10.9994 25.2327C11.0068 25.2506 11.0193 25.266 11.0354 25.2768C11.0515 25.2875 11.0705 25.2933 11.0899 25.2934C11.1028 25.2934 11.1156 25.2909 11.1275 25.2859C11.1394 25.281 11.1503 25.2738 11.1594 25.2646C11.1685 25.2555 11.1758 25.2447 11.1807 25.2327C11.1856 25.2208 11.1882 25.208 11.1881 25.1951V25.1951Z" fill="#4C4C49"/>
<path d="M10.7718 25.04C10.7718 25.0206 10.766 25.0016 10.7552 24.9855C10.7445 24.9694 10.7292 24.9568 10.7112 24.9494C10.6933 24.9419 10.6736 24.94 10.6546 24.9438C10.6356 24.9475 10.6181 24.9569 10.6044 24.9706C10.5906 24.9843 10.5813 25.0017 10.5775 25.0207C10.5737 25.0398 10.5756 25.0595 10.583 25.0774C10.5904 25.0953 10.6029 25.1107 10.619 25.1215C10.6351 25.1323 10.6541 25.1381 10.6735 25.1381C10.6864 25.1381 10.6991 25.1356 10.7111 25.1307C10.723 25.1258 10.7338 25.1185 10.743 25.1094C10.7521 25.1003 10.7593 25.0895 10.7643 25.0776C10.7692 25.0657 10.7718 25.0529 10.7718 25.04Z" fill="#4C4C49"/>
<path d="M5.82351 23.8448C5.84686 23.5435 5.87266 23.2422 5.89167 22.9395H0.342607C0.282866 22.9437 0.224383 22.9587 0.169947 22.9837C0.0925185 23.0254 0.0324504 23.0933 0.000488281 23.1752L0.0236452 24.3838C0.0236452 24.3838 1.17033 26.1048 1.95945 26.3575C2.3802 26.5069 2.8271 26.5684 3.27257 26.5384L5.56179 26.5476C5.56537 26.4089 5.79226 24.2462 5.82351 23.8448Z" fill="#201E1E"/>
<g style="mix-blend-mode:screen" opacity="0.6">
<path d="M4.57478 22.9395H0.342607C0.282866 22.9437 0.224383 22.9587 0.169947 22.9837C0.0925185 23.0254 0.0324504 23.0933 0.000488281 23.1752L0.0210134 24.2435C0.0210134 24.2435 4.55595 23.2415 4.57478 22.9395Z" fill="#222222"/>
</g>
<path d="M4.66864 18.0579C4.05406 18.0255 3.50877 18.0105 2.94033 18.2765C2.40352 18.5277 1.61158 18.8357 1.33743 19.121C1.24096 19.2479 1.16004 19.3859 1.09641 19.532C0.967687 19.9743 0.894943 20.431 0.879883 20.8915C0.891593 21.015 0.923392 21.1359 0.974027 21.2492C1.13972 21.5881 2.95238 21.3204 4.16892 20.3266C4.55717 20.0997 5.28754 18.0978 4.66864 18.0579Z" fill="#D5D3CB"/>
<path opacity="0.6" d="M4.13693 19.5826C4.04975 20.1986 3.6662 20.6537 3.27889 20.5993C2.89158 20.5449 2.64907 20.0009 2.73625 19.3849C2.82343 18.7688 3.20697 18.3142 3.59428 18.3681C3.98159 18.422 4.22411 18.9669 4.13693 19.5826Z" fill="#E3EDEE"/>
<path d="M2.28077 20.3411C2.26759 20.7177 2.06613 21.0148 1.83001 21.0067C1.5939 20.9986 1.41333 20.6866 1.42632 20.3116C1.43931 19.9365 1.64097 19.6382 1.8769 19.6461C2.11282 19.6541 2.29376 19.9655 2.28077 20.3411Z" fill="#E3D8C3"/>
<g style="mix-blend-mode:screen" opacity="0.4">
<g style="mix-blend-mode:screen" opacity="0.4">
<path d="M4.55717 18.0523C3.98759 18.0246 3.47394 18.0269 2.94033 18.2765C2.40352 18.5277 1.61158 18.8358 1.33743 19.121C1.24096 19.2479 1.16004 19.3859 1.09641 19.532C0.967687 19.9744 0.894943 20.4311 0.879883 20.8915C0.890278 20.9877 0.91144 21.0824 0.942964 21.1739C1.78782 19.7661 2.99418 18.5558 4.55717 18.0523Z" fill="white"/>
</g>
</g>
<g style="mix-blend-mode:screen">
<path d="M3.58099 24.2305C3.70399 24.2124 3.82949 24.2223 3.94811 24.2595C4.06674 24.2967 4.17543 24.3602 4.26607 24.4453C4.35671 24.5304 4.42697 24.6348 4.47159 24.7509C4.51621 24.8669 4.53404 24.9915 4.52375 25.1154C4.48997 25.3879 4.36348 25.6405 4.16552 25.8307C3.96756 26.0209 3.71018 26.1373 3.43658 26.1602C2.87642 26.2047 1.60566 25.8755 1.64557 25.3427C1.68549 24.8098 3.02046 24.2745 3.58099 24.2305Z" fill="#222222"/>
</g>
<path d="M3.46726 24.3481C3.58322 24.3311 3.70153 24.3405 3.81336 24.3756C3.92518 24.4106 4.02764 24.4705 4.11311 24.5507C4.19857 24.6309 4.26484 24.7294 4.30695 24.8387C4.34907 24.9481 4.36596 25.0656 4.35636 25.1824C4.32448 25.4394 4.20518 25.6776 4.01847 25.8571C3.83176 26.0366 3.58901 26.1464 3.33094 26.1681C2.8026 26.2097 1.60396 25.8996 1.64161 25.3961C1.67927 24.8926 2.93836 24.3899 3.46726 24.3481Z" fill="black"/>
<path d="M42.1547 24.0738C42.1547 21.3981 44.4362 19.2288 47.2507 19.2288C50.0653 19.2288 52.3468 21.3981 52.3468 24.0738C52.3472 24.7721 52.1895 25.4614 51.8857 26.09H52.8175C53.252 25.1547 53.4439 24.1249 53.3753 23.0959C53.3067 22.0668 52.98 21.0716 52.4252 20.2021C51.8704 19.3327 51.1055 18.6171 50.2011 18.1213C49.2967 17.6256 48.282 17.3657 47.2507 17.3657C46.2193 17.3657 45.2046 17.6256 44.3002 18.1213C43.3958 18.6171 42.6309 19.3327 42.0761 20.2021C41.5213 21.0716 41.1946 22.0668 41.126 23.0959C41.0574 24.1249 41.2493 25.1547 41.6838 26.09H42.6156C42.3119 25.4613 42.1543 24.7721 42.1547 24.0738V24.0738Z" fill="#201E1E"/>
<path d="M47.2506 19.2285C44.436 19.2285 42.1545 21.3978 42.1545 24.0736C42.1542 24.7718 42.3118 25.4611 42.6155 26.0898H51.8855C52.1894 25.4611 52.347 24.7718 52.3466 24.0736C52.3466 21.3978 50.0651 19.2285 47.2506 19.2285Z" fill="black"/>
<path d="M51.5838 24.5847C51.5838 25.4418 51.3297 26.2796 50.8535 26.9922C50.3773 27.7048 49.7006 28.2602 48.9087 28.5882C48.1169 28.9162 47.2457 29.002 46.4051 28.8348C45.5645 28.6675 44.7924 28.2548 44.1864 27.6488C43.5804 27.0427 43.1677 26.2706 43.0005 25.43C42.8333 24.5894 42.9191 23.7181 43.2471 22.9263C43.5751 22.1345 44.1306 21.4578 44.8432 20.9817C45.5558 20.5055 46.3937 20.2514 47.2507 20.2515C47.8198 20.2515 48.3832 20.3635 48.909 20.5813C49.4347 20.7991 49.9124 21.1183 50.3147 21.5207C50.7171 21.9231 51.0363 22.4007 51.254 22.9265C51.4718 23.4522 51.5838 24.0157 51.5838 24.5847V24.5847Z" fill="#363635"/>
<path d="M51.5838 24.5847C51.5838 25.4418 51.3297 26.2796 50.8535 26.9922C50.3773 27.7048 49.7006 28.2602 48.9087 28.5882C48.1169 28.9162 47.2457 29.002 46.4051 28.8348C45.5645 28.6675 44.7924 28.2548 44.1864 27.6488C43.5804 27.0427 43.1677 26.2706 43.0005 25.43C42.8333 24.5894 42.9191 23.7181 43.2471 22.9263C43.5751 22.1345 44.1306 21.4578 44.8432 20.9817C45.5558 20.5055 46.3937 20.2514 47.2507 20.2515C47.8198 20.2515 48.3832 20.3635 48.909 20.5813C49.4347 20.7991 49.9124 21.1183 50.3147 21.5207C50.7171 21.9231 51.0363 22.4007 51.254 22.9265C51.4718 23.4522 51.5838 24.0157 51.5838 24.5847V24.5847Z" fill="#222222"/>
<path d="M50.1911 24.5847C50.1911 25.1662 50.0187 25.7347 49.6956 26.2183C49.3726 26.7018 48.9134 27.0787 48.3761 27.3013C47.8388 27.5239 47.2476 27.5821 46.6772 27.4687C46.1069 27.3553 45.5829 27.0752 45.1717 26.664C44.7605 26.2528 44.4804 25.7289 44.3669 25.1586C44.2535 24.5882 44.3117 23.997 44.5342 23.4597C44.7568 22.9224 45.1336 22.4632 45.6172 22.1401C46.1007 21.817 46.6692 21.6445 47.2507 21.6445C47.6369 21.6445 48.0192 21.7205 48.3759 21.8683C48.7327 22.016 49.0568 22.2326 49.3299 22.5056C49.6029 22.7786 49.8195 23.1028 49.9672 23.4595C50.115 23.8162 50.1911 24.1985 50.1911 24.5847V24.5847Z" fill="black"/>
<path d="M49.9352 24.5846C49.9352 25.1156 49.7778 25.6346 49.4828 26.0761C49.1879 26.5176 48.7687 26.8617 48.2781 27.0649C47.7876 27.2681 47.2479 27.3213 46.7271 27.2177C46.2064 27.1141 45.728 26.8585 45.3526 26.4831C44.9772 26.1077 44.7215 25.6293 44.6179 25.1086C44.5143 24.5879 44.5674 24.0481 44.7706 23.5576C44.9738 23.0671 45.3179 22.6478 45.7593 22.3528C46.2008 22.0578 46.7198 21.9004 47.2507 21.9004C47.6032 21.9003 47.9523 21.9697 48.278 22.1046C48.6037 22.2395 48.8997 22.4372 49.149 22.6865C49.3982 22.9357 49.596 23.2317 49.7309 23.5573C49.8658 23.883 49.9352 24.2321 49.9352 24.5846V24.5846Z" fill="#D5D3CB"/>
<path d="M48.5968 22.9855C48.6013 22.9541 48.5974 22.9219 48.5853 22.8925C48.2916 22.6278 47.9185 22.4679 47.5243 22.438C47.4865 22.4459 47.4512 22.4626 47.4211 22.4867C47.4073 22.5073 47.3954 22.529 47.3855 22.5517V24.0437C47.3934 24.0635 47.4033 24.0824 47.4151 24.1002C47.4235 24.1051 47.4324 24.1094 47.4412 24.1136C47.4654 24.1111 47.4892 24.106 47.5122 24.0983L48.5836 23.0273C48.5889 23.0137 48.5933 22.9997 48.5968 22.9855V22.9855Z" fill="#4C4C49"/>
<path d="M49.3817 24.4601C49.4073 24.441 49.4272 24.4155 49.4395 24.3861C49.4189 23.9912 49.2679 23.6144 49.0102 23.3145C48.978 23.2938 48.9414 23.2809 48.9033 23.2769C48.8789 23.2816 48.855 23.2885 48.8319 23.2976L47.7775 24.3529C47.7696 24.3727 47.7633 24.393 47.7587 24.4137C47.7615 24.4232 47.7645 24.4326 47.7679 24.4414C47.7866 24.457 47.8071 24.4704 47.8289 24.4813H49.3437C49.3569 24.4752 49.3696 24.4681 49.3817 24.4601Z" fill="#4C4C49"/>
<path d="M48.8693 26.0104C48.9011 26.0157 48.9336 26.0122 48.9635 26.0004C49.2333 25.7114 49.3995 25.341 49.4361 24.9473C49.429 24.9096 49.413 24.8741 49.3894 24.8437C49.3693 24.8291 49.3478 24.8165 49.3252 24.8061L47.8328 24.7803C47.8132 24.7881 47.7943 24.7976 47.7763 24.8087C47.7716 24.8174 47.7667 24.8258 47.7626 24.8347C47.7644 24.8589 47.769 24.8829 47.7763 24.9061L48.8289 25.9959C48.842 26.0015 48.8556 26.0064 48.8693 26.0104V26.0104Z" fill="#4C4C49"/>
<path d="M47.4213 26.6748C47.4408 26.7001 47.4668 26.7196 47.4966 26.7313C47.8911 26.7052 48.2658 26.549 48.5619 26.2871C48.5826 26.2546 48.5955 26.2178 48.5996 26.1794C48.5945 26.1551 48.5872 26.1313 48.5779 26.1083L47.5073 25.0681C47.4876 25.0599 47.4672 25.0536 47.4463 25.0493C47.4369 25.0519 47.4277 25.0551 47.4186 25.0587C47.4032 25.0776 47.3901 25.0983 47.3796 25.1203L47.4013 26.6349C47.4071 26.6486 47.4137 26.662 47.4213 26.6748Z" fill="#4C4C49"/>
<path d="M45.9046 22.9855C45.9001 22.954 45.9041 22.9219 45.9163 22.8925C46.2098 22.6277 46.5829 22.4679 46.9771 22.438C47.0149 22.4458 47.0503 22.4625 47.0803 22.4867C47.0942 22.5073 47.1061 22.529 47.1161 22.5517V24.0437C47.1081 24.0634 47.0983 24.0823 47.0867 24.1002C47.078 24.1051 47.0694 24.1094 47.0605 24.1136C47.0362 24.1111 47.0122 24.106 46.989 24.0983L45.9182 23.0273C45.9127 23.0137 45.9082 22.9998 45.9046 22.9855V22.9855Z" fill="#4C4C49"/>
<path d="M45.1198 24.4601C45.0943 24.441 45.0743 24.4155 45.062 24.3861C45.0825 23.9913 45.2332 23.6144 45.4907 23.3145C45.5232 23.2938 45.56 23.2809 45.5983 23.2769C45.6225 23.2816 45.6463 23.2885 45.6692 23.2976L46.725 24.3529C46.733 24.3726 46.7393 24.3929 46.7438 24.4137C46.7413 24.4231 46.7383 24.4324 46.7348 24.4414C46.716 24.457 46.6954 24.4704 46.6736 24.4813H45.1586C45.1452 24.4751 45.1322 24.468 45.1198 24.4601Z" fill="#4C4C49"/>
<path d="M45.6321 26.0104C45.6004 26.0157 45.5679 26.0122 45.538 26.0004C45.268 25.7115 45.1017 25.341 45.0652 24.9473C45.0722 24.9095 45.0883 24.874 45.1121 24.8437C45.1322 24.8292 45.1537 24.8165 45.1763 24.8061L46.6687 24.7803C46.6883 24.7881 46.7072 24.7976 46.7251 24.8087C46.7299 24.8174 46.7344 24.8258 46.7387 24.8347C46.7369 24.8589 46.7322 24.8829 46.7248 24.9061L45.6726 25.9959C45.6594 26.0015 45.6459 26.0063 45.6321 26.0104V26.0104Z" fill="#4C4C49"/>
<path d="M47.0803 26.6748C47.0607 26.7001 47.0347 26.7196 47.005 26.7313C46.6105 26.7052 46.2358 26.549 45.9396 26.2871C45.9188 26.2547 45.9059 26.2178 45.902 26.1794C45.9071 26.1551 45.9144 26.1313 45.9238 26.1083L46.9941 25.0681C47.0139 25.0599 47.0344 25.0536 47.0554 25.0493C47.0647 25.0519 47.0738 25.0551 47.0827 25.0587C47.0983 25.0775 47.1113 25.0982 47.1215 25.1203L47.1003 26.6349C47.0944 26.6486 47.0877 26.6619 47.0803 26.6748Z" fill="#4C4C49"/>
<path d="M48.0391 24.5848C48.0391 24.7407 47.9929 24.8931 47.9063 25.0227C47.8196 25.1524 47.6965 25.2534 47.5525 25.3131C47.4084 25.3728 47.2499 25.3884 47.097 25.358C46.944 25.3276 46.8036 25.2525 46.6933 25.1422C46.5831 25.032 46.508 24.8915 46.4776 24.7386C46.4471 24.5856 46.4627 24.4271 46.5224 24.2831C46.5821 24.139 46.6831 24.0159 46.8128 23.9293C46.9424 23.8426 47.0948 23.7964 47.2508 23.7964C47.4599 23.7964 47.6604 23.8795 47.8082 24.0273C47.9561 24.1751 48.0391 24.3757 48.0391 24.5848Z" fill="#D5D3CB"/>
<path d="M47.7614 24.1969C47.7614 24.2163 47.7556 24.2353 47.7448 24.2514C47.734 24.2675 47.7186 24.28 47.7007 24.2874C47.6828 24.2948 47.663 24.2967 47.644 24.2929C47.625 24.2891 47.6076 24.2798 47.5939 24.266C47.5802 24.2523 47.5708 24.2348 47.5671 24.2158C47.5633 24.1968 47.5652 24.1771 47.5727 24.1592C47.5801 24.1412 47.5927 24.1259 47.6088 24.1152C47.6249 24.1044 47.6439 24.0986 47.6633 24.0986C47.6762 24.0986 47.689 24.1011 47.7009 24.1061C47.7128 24.111 47.7237 24.1182 47.7328 24.1274C47.7419 24.1365 47.7491 24.1474 47.754 24.1593C47.7589 24.1712 47.7614 24.184 47.7614 24.1969V24.1969Z" fill="#4C4C49"/>
<path d="M47.3526 24.0568C47.3525 24.0762 47.3468 24.0951 47.336 24.1112C47.3252 24.1273 47.3098 24.1399 47.2919 24.1473C47.274 24.1547 47.2543 24.1566 47.2353 24.1528C47.2163 24.149 47.1988 24.1397 47.1851 24.126C47.1714 24.1123 47.1621 24.0948 47.1583 24.0758C47.1545 24.0568 47.1564 24.0371 47.1638 24.0191C47.1712 24.0012 47.1837 23.9859 47.1998 23.9751C47.2159 23.9643 47.2349 23.9585 47.2543 23.9585C47.2804 23.9585 47.3053 23.9689 47.3238 23.9873C47.3422 24.0057 47.3526 24.0307 47.3526 24.0568V24.0568Z" fill="#4C4C49"/>
<path d="M46.9367 24.2122C46.9368 24.2316 46.9311 24.2507 46.9203 24.2669C46.9095 24.2831 46.8942 24.2958 46.8763 24.3032C46.8583 24.3107 46.8385 24.3127 46.8195 24.309C46.8004 24.3052 46.7828 24.2959 46.769 24.2822C46.7553 24.2685 46.7459 24.2509 46.742 24.2319C46.7382 24.2128 46.7401 24.193 46.7476 24.175C46.755 24.157 46.7676 24.1417 46.7838 24.1309C46.7999 24.12 46.8189 24.1143 46.8384 24.1143C46.8644 24.1143 46.8893 24.1246 46.9078 24.1429C46.9262 24.1613 46.9366 24.1862 46.9367 24.2122V24.2122Z" fill="#4C4C49"/>
<path d="M47.7614 25.0553C47.7614 25.0359 47.7557 25.0169 47.7449 25.0008C47.7342 24.9846 47.7189 24.972 47.701 24.9646C47.683 24.9571 47.6633 24.9551 47.6443 24.9589C47.6252 24.9627 47.6077 24.972 47.594 24.9857C47.5802 24.9994 47.5709 25.0169 47.5671 25.0359C47.5633 25.055 47.5652 25.0747 47.5726 25.0926C47.5801 25.1106 47.5926 25.1259 47.6088 25.1367C47.6249 25.1475 47.6439 25.1532 47.6633 25.1532C47.6893 25.1532 47.7142 25.1429 47.7326 25.1246C47.751 25.1062 47.7613 25.0813 47.7614 25.0553Z" fill="#4C4C49"/>
<path d="M47.8557 24.7436C47.9098 24.7436 47.9538 24.6996 47.9538 24.6455C47.9538 24.5913 47.9098 24.5474 47.8557 24.5474C47.8015 24.5474 47.7576 24.5913 47.7576 24.6455C47.7576 24.6996 47.8015 24.7436 47.8557 24.7436Z" fill="#4C4C49"/>
<path d="M46.646 24.7436C46.7001 24.7436 46.744 24.6996 46.744 24.6455C46.744 24.5913 46.7001 24.5474 46.646 24.5474C46.5918 24.5474 46.5479 24.5913 46.5479 24.6455C46.5479 24.6996 46.5918 24.7436 46.646 24.7436Z" fill="#4C4C49"/>
<path d="M47.3526 25.1951C47.3525 25.1757 47.3468 25.1568 47.336 25.1407C47.3252 25.1245 47.3098 25.112 47.2919 25.1046C47.274 25.0972 47.2543 25.0953 47.2353 25.0991C47.2163 25.1029 47.1988 25.1122 47.1851 25.1259C47.1714 25.1396 47.1621 25.1571 47.1583 25.1761C47.1545 25.1951 47.1564 25.2148 47.1638 25.2327C47.1712 25.2506 47.1837 25.266 47.1998 25.2768C47.2159 25.2875 47.2349 25.2933 47.2543 25.2934C47.2672 25.2934 47.28 25.2909 47.2919 25.2859C47.3039 25.281 47.3147 25.2738 47.3238 25.2646C47.333 25.2555 47.3402 25.2447 47.3451 25.2327C47.3501 25.2208 47.3526 25.208 47.3526 25.1951V25.1951Z" fill="#4C4C49"/>
<path d="M46.9367 25.0404C46.9367 25.0209 46.931 25.0019 46.9202 24.9857C46.9094 24.9695 46.8941 24.9569 46.8762 24.9494C46.8582 24.942 46.8384 24.94 46.8193 24.9438C46.8003 24.9475 46.7827 24.9569 46.769 24.9706C46.7552 24.9843 46.7458 25.0019 46.742 25.0209C46.7382 25.04 46.7401 25.0598 46.7476 25.0777C46.755 25.0957 46.7676 25.1111 46.7838 25.1219C46.7999 25.1327 46.819 25.1385 46.8384 25.1385C46.8644 25.1385 46.8894 25.1281 46.9078 25.1097C46.9263 25.0914 46.9366 25.0664 46.9367 25.0404V25.0404Z" fill="#4C4C49"/>
<g style="mix-blend-mode:screen">
<path d="M53.3881 23.5031C53.3882 22.5845 53.1821 21.6775 52.785 20.8491C52.3879 20.0207 51.81 19.2921 51.0937 18.7168C50.3775 18.1415 49.5413 17.7344 48.6468 17.5253C47.7523 17.3163 46.8222 17.3107 45.9252 17.5089C45.0282 17.7072 44.1872 18.1042 43.4641 18.6708C42.741 19.2374 42.1543 19.959 41.7472 20.7826C41.3401 21.6061 41.1231 22.5105 41.1121 23.4291C41.1011 24.3476 41.2965 25.257 41.6837 26.09H41.8261C41.4428 25.1929 41.2881 24.2147 41.3757 23.2431C41.4633 22.2715 41.7905 21.3368 42.328 20.5227C42.8655 19.7086 43.5965 19.0405 44.4556 18.5782C45.3147 18.116 46.275 17.874 47.2506 17.874C48.2261 17.874 49.1864 18.116 50.0455 18.5782C50.9046 19.0405 51.6356 19.7086 52.1731 20.5227C52.7107 21.3368 53.0379 22.2715 53.1255 23.2431C53.2131 24.2147 53.0583 25.1929 52.6751 26.09H52.8174C53.1944 25.2797 53.3892 24.3967 53.3881 23.5031Z" fill="#201E1E"/>
</g>
<path d="M57.6426 20.2359L58.1683 20.2975C58.1683 20.2975 58.3135 20.3109 58.3203 20.5046L58.3241 21.2412C58.3241 21.2412 58.3129 21.3557 58.2278 21.3353L57.7215 21.2145C57.6929 21.2083 57.6665 21.1944 57.6452 21.1743C57.6239 21.1541 57.6085 21.1286 57.6006 21.1004C57.5649 20.8481 57.5442 20.594 57.5387 20.3393C57.5387 20.3393 57.5408 20.2056 57.6426 20.2359Z" fill="#5A0E07"/>
<path d="M57.8503 20.4287L58.208 20.4707C58.208 20.4707 58.3069 20.4799 58.3116 20.6115L58.314 21.1131C58.314 21.1131 58.3065 21.1913 58.2485 21.1773L57.9039 21.0949C57.8844 21.0907 57.8663 21.0813 57.8518 21.0675C57.8372 21.0538 57.8268 21.0364 57.8215 21.0171C57.7974 20.8453 57.7834 20.6723 57.7797 20.4989C57.7797 20.4989 57.791 20.3931 57.8503 20.4287Z" fill="#E3301F"/>
<path d="M5.44033 18.2007L7.22418 18.1201C7.19515 18.2597 7.12129 18.3859 7.01386 18.4796C6.83028 18.6456 5.95738 18.6038 5.95738 18.6038C5.95738 18.6038 5.56442 18.6245 5.44033 18.5003C5.31625 18.376 5.2946 18.2071 5.44033 18.2007Z" fill="#E86408"/>
<g style="mix-blend-mode:screen" opacity="0.5">
<path d="M5.47644 18.276L6.66266 18.2222C6.64334 18.315 6.59429 18.3989 6.52295 18.4613C6.40094 18.5716 5.82045 18.544 5.82045 18.544C5.82045 18.544 5.5591 18.5579 5.47663 18.475C5.39416 18.3922 5.38023 18.2804 5.47644 18.276Z" fill="#E86408"/>
</g>
<path d="M17.4204 2.79311C16.0489 2.89648 14.7104 2.94657 13.4082 3.4461C11.1344 4.31806 5.90354 12.1016 5.22664 14.6549C5.21328 14.7741 5.20781 14.9425 5.31175 15.0253C5.40928 15.0755 5.51615 15.1049 5.62563 15.1117H12.1941C12.1941 15.1117 16.0785 15.2883 16.6983 13.0759C17.2427 11.1332 18.1548 6.55192 18.6255 4.59372C18.6383 4.44007 18.6733 4.28982 18.6957 4.1373C18.7616 3.20038 18.5146 2.71082 17.4204 2.79311Z" fill="black"/>
<path d="M17.196 3.04469C15.8806 3.14392 14.5976 3.19174 13.3474 3.67075C11.0616 4.54761 5.65899 12.7086 5.43738 14.7403C5.45114 14.7671 5.46707 14.7928 5.48501 14.8171C5.50929 14.8356 5.53629 14.8502 5.56504 14.8604H12.1832C12.1832 14.8604 15.9091 15.0298 16.5037 12.9076C17.0256 11.0436 17.9 6.65023 18.3514 4.77073C18.3638 4.62349 18.3977 4.47926 18.4188 4.33315C18.4828 3.43539 18.2457 2.9658 17.196 3.04469Z" fill="#00384B"/>
<path d="M56.6975 13.6125C56.6975 14.4568 55.6598 15.0946 54.0142 15.0946H22.327C22.0239 15.0946 19.0463 15.1153 19.1688 13.7082L19.5848 4.37377C19.7597 2.65601 21.1792 2.65601 21.4823 2.65601H54.0147C54.3177 2.65601 55.3561 2.61572 55.7984 3.563L56.6975 13.6125Z" fill="black"/>
<path d="M33.0566 3.4738C33.0392 3.37653 32.9974 3.28528 32.9351 3.20864C32.8727 3.13199 32.7919 3.07246 32.7002 3.03564H21.8148C21.5177 3.03564 20.1259 3.03564 19.9545 4.64344L19.5463 13.3801C19.4264 14.6971 22.346 14.6777 22.6431 14.6777H32.5486C32.6118 14.6596 32.6725 14.6339 32.7296 14.6013C32.7822 14.5705 32.8276 14.5287 32.8626 14.4788C32.8976 14.4289 32.9215 14.372 32.9325 14.3121C32.9469 13.6405 33.0244 5.31752 33.0566 3.4738Z" fill="#00384B"/>
<path d="M55.4854 3.88487C55.0629 2.99822 54.0714 3.03588 53.7822 3.03588H46.0811C45.9139 3.07673 45.6104 3.18463 45.6257 3.44522C45.6535 3.93063 46.0333 10.8011 46.2551 14.1801C46.2963 14.2815 46.3589 14.3728 46.4387 14.4477C46.5939 14.5706 46.779 14.65 46.975 14.6776H53.7814C55.3525 14.6776 56.3437 14.0805 56.3437 13.2903L55.4854 3.88487Z" fill="#00384B"/>
<path d="M45.4189 14.5501C45.5265 14.4577 45.5995 14.3316 45.626 14.1923C45.53 12.4512 45.1254 4.01889 45.0988 3.40676C45.0849 3.35841 45.0635 3.31255 45.0354 3.27082C44.9062 3.08385 44.7136 3.06803 44.5081 3.03564H34.0728C33.9707 3.0526 33.8751 3.09714 33.7964 3.16444C33.7007 3.25576 33.6306 3.37053 33.593 3.49733C33.6569 7.09121 33.4545 10.6871 33.4727 14.282C33.4902 14.3633 33.5256 14.4397 33.5763 14.5057C33.6545 14.5966 33.762 14.6573 33.8802 14.6774H45.1864C45.271 14.6494 45.3498 14.6063 45.4189 14.5501V14.5501Z" fill="#00384B"/>
<g style="mix-blend-mode:screen" opacity="0.5">
<path d="M4.90692 11.6941C5.19563 11.1669 5.49564 10.6467 5.80695 10.1336C6.49886 9.00654 7.25319 7.91904 8.06641 6.87617C8.47312 6.34896 8.88641 5.82458 9.3191 5.31751C9.52998 5.07067 9.78361 4.86148 10.0069 4.62593C10.2517 4.36797 10.6422 3.97953 10.6192 3.5894C10.6146 3.4816 10.5706 3.37926 10.4955 3.30176C10.4204 3.22427 10.3196 3.17701 10.212 3.16895C9.02217 4.24219 8.03139 5.25519 8.02461 5.26366C6.24359 7.42045 4.73823 9.79076 3.54333 12.3198C3.99535 12.1051 4.44988 11.8966 4.90692 11.6941Z" fill="#00384B"/>
</g>
<path d="M3.48885 12.435C3.00401 13.467 2.6101 14.4357 2.29321 15.3054C2.49012 15.2612 2.67703 15.1805 2.84434 15.0676C3.26843 14.7504 3.60691 14.3326 3.82927 13.8519C4.13581 13.258 4.39734 12.6436 4.71216 12.0528C4.75452 11.9731 4.79821 11.8942 4.84133 11.8149C4.38768 12.016 3.93685 12.2227 3.48885 12.435Z" fill="#00384B"/>
<g style="mix-blend-mode:screen" opacity="0.5">
<path d="M12.9632 8.77929C14.5397 8.32571 16.1287 7.9303 17.7269 7.5829C17.966 6.47407 18.1869 5.45524 18.3513 4.77024C18.3637 4.623 18.3976 4.47877 18.4187 4.33266C18.4827 3.4349 18.2456 2.96531 17.1959 3.0442C15.8805 3.14343 14.5975 3.19125 13.3473 3.67026C11.9043 4.22402 9.21906 7.68081 7.37854 10.6654C9.20896 9.95089 11.0705 9.32219 12.9632 8.77929Z" fill="#00384B"/>
</g>
<g style="mix-blend-mode:screen" opacity="0.5">
<path d="M33.0296 5.48058C33.0397 4.59826 33.0484 3.88013 33.0563 3.4738C33.0389 3.37653 32.9971 3.28528 32.9347 3.20864C32.8724 3.13199 32.7916 3.07246 32.6999 3.03564H21.8149C21.5178 3.03564 20.1259 3.03564 19.9546 4.64344L19.8373 7.15221C24.2002 6.35029 28.6045 5.79222 33.0296 5.48058V5.48058Z" fill="#00384B"/>
</g>
<g style="mix-blend-mode:screen" opacity="0.5">
<path d="M51.2606 4.64368C52.6916 4.60206 54.1192 4.58323 55.5485 4.57627L55.4854 3.88487C55.0629 2.99822 54.0714 3.03588 53.7822 3.03588H46.0811C45.9139 3.07673 45.6104 3.18463 45.6257 3.44522C45.6326 3.56478 45.6607 4.07166 45.7027 4.81766C47.5553 4.75339 49.408 4.69539 51.2606 4.64368Z" fill="#00384B"/>
</g>
<g style="mix-blend-mode:screen" opacity="0.5">
<path d="M33.6041 5.43716C34.9568 5.33674 36.3096 5.24887 37.6625 5.17355C40.1624 5.03158 42.6638 4.92501 45.1662 4.83595C45.1299 4.07508 45.105 3.54354 45.099 3.40628C45.0851 3.35793 45.0636 3.31205 45.0355 3.27033C44.9064 3.08336 44.7137 3.06754 44.5083 3.03516H34.0728C33.9706 3.05211 33.8751 3.09664 33.7964 3.16394C33.7007 3.25527 33.6306 3.37004 33.593 3.49684C33.6043 4.14368 33.608 4.79045 33.6041 5.43716Z" fill="#00384B"/>
</g>
<path d="M6.25484 13.8228L4.9018 14.4671C4.9018 14.4671 4.28553 14.7776 4.73479 15.1116C4.73479 15.1116 4.94567 15.2871 5.51374 15.2959C5.90749 15.2823 6.29306 15.1797 6.64159 14.996L6.25484 13.8228Z" fill="black"/>
<path d="M8.82804 12.5435C8.55446 11.7819 7.16413 11.8883 7.16206 11.8885C6.56631 11.9325 6.11668 12.5347 5.77908 13.1747C5.38951 13.9126 5.67928 15.4212 6.41116 15.2807C7.04899 15.1916 7.67735 15.0444 8.2884 14.841C8.64182 14.7373 9.16112 13.471 8.82804 12.5435Z" fill="#222222"/>
<path d="M8.82797 12.5438C8.80383 12.4762 8.76961 12.4128 8.72648 12.3555C8.75726 12.7135 8.64548 13.0692 8.41543 13.3453C8.08629 13.671 7.67105 13.8959 7.21848 13.9938C6.95487 14.0665 6.69636 14.1591 6.42767 14.2128C6.21302 14.2553 5.92286 14.3125 5.7229 14.1896C5.6804 14.1636 5.64164 14.1319 5.60767 14.0954C5.6361 14.745 5.92644 15.3739 6.41072 15.2817C7.0487 15.1924 7.67718 15.0449 8.28834 14.8413C8.64175 14.7375 9.16106 13.4713 8.82797 12.5438Z" fill="#141412"/>
<g style="mix-blend-mode:screen">
<g style="mix-blend-mode:screen">
<path d="M55.7387 15.4624H18.0574C18.0574 15.4624 38.1079 17.5614 55.7387 15.4624Z" fill="#B5B5B5"/>
</g>
</g>
<path d="M57.2727 15.0386C57.1021 15.2162 56.9778 15.4331 56.9107 15.6701C56.8357 15.9627 56.8067 16.2652 56.8248 16.5667C56.8331 16.8252 56.854 17.083 56.8709 17.3387C56.8881 17.5999 56.9067 17.8606 56.9306 18.1195C56.9523 18.3549 56.9751 18.5925 57.0146 18.819C57.0304 18.9596 57.0723 19.096 57.1381 19.2212C57.2179 19.3319 57.3156 19.4285 57.4271 19.507C57.554 19.6104 57.6834 19.7062 57.8137 19.7959C57.9329 19.878 58.2279 20.1602 58.2311 20.032L57.9431 14.5716L57.8613 14.436C57.8512 14.4447 57.8425 14.4532 57.8336 14.46C57.7666 14.517 57.7028 14.5777 57.6425 14.6418C57.5186 14.7718 57.398 14.9134 57.2727 15.0386Z" fill="#5A0E07"/>
<path d="M57.3806 15.0412C57.2247 15.224 57.113 15.4403 57.0542 15.6732C56.986 15.967 56.9594 16.2688 56.9751 16.5699C56.982 16.8284 57.0001 17.0862 57.0148 17.343C57.0299 17.6038 57.0459 17.8645 57.0668 18.1236C57.0856 18.3588 57.1059 18.5964 57.141 18.8227C57.1544 18.9621 57.1917 19.098 57.2511 19.2247C57.3208 19.3335 57.4082 19.4298 57.5098 19.5096C57.6241 19.613 57.7399 19.7085 57.8568 19.7981C57.9636 19.8796 58.2283 20.1613 58.2311 20.0331L57.9839 14.5727L57.9109 14.4375C57.9016 14.4462 57.8932 14.4546 57.8856 14.4612C57.8252 14.519 57.7679 14.5799 57.7139 14.6437C57.6013 14.7736 57.4934 14.9158 57.3806 15.0412Z" fill="#DC4E14"/>
<g style="mix-blend-mode:multiply">
<g style="mix-blend-mode:multiply">
<path d="M56.9988 17.064C57.0044 17.157 57.01 17.2499 57.0154 17.3428C57.0304 17.6036 57.0464 17.8644 57.0673 18.1235C57.0861 18.3586 57.1065 18.5963 57.1415 18.8226C57.155 18.9619 57.1922 19.0979 57.2517 19.2246C57.3213 19.3334 57.4088 19.4297 57.5104 19.5095C57.6246 19.6128 57.7404 19.7083 57.8574 19.7979C57.9641 19.8794 58.2289 20.1611 58.2317 20.0329L58.0984 17.0867L56.9988 17.064Z" fill="#DC4E14"/>
</g>
</g>
<g style="mix-blend-mode:screen">
<path d="M57.8937 14.5908C57.8937 14.5908 57.1074 15.2988 57.0777 16.0173C57.0479 16.7358 57.2594 18.9113 57.2594 18.9113C57.2677 19.0321 57.3188 19.146 57.4036 19.2325L57.2165 16.7492C57.2165 16.7492 57.1253 15.8522 57.3976 15.4428C57.5778 15.1677 57.7434 14.8833 57.8937 14.5908V14.5908Z" fill="white"/>
</g>
<g style="mix-blend-mode:multiply">
<path d="M15.133 15.7522L16.2588 15.7633C16.2588 15.7633 16.4804 15.7734 16.3893 16.008C16.3561 16.1027 16.3172 16.1953 16.2729 16.2854C16.2729 16.2854 16.2458 16.408 16.0281 16.4468C15.8105 16.4855 14.5056 16.5409 14.5056 16.5409C14.3373 16.539 14.174 16.4829 14.04 16.381C13.7575 16.1997 13.7752 15.8953 13.8726 15.8243C13.8726 15.8243 13.8711 15.7915 14.0575 15.7578C14.2439 15.7241 15.133 15.7522 15.133 15.7522Z" fill="#DCA33E"/>
</g>
<path d="M14.1774 15.8037L16.0719 15.805C16.0719 15.805 16.2823 15.8065 16.3118 15.9229C16.3414 16.0393 16.2295 16.1454 15.9407 16.1648C15.6519 16.1842 14.5492 16.2292 14.5492 16.2292C14.5492 16.2292 14.1363 16.2509 14.0019 16.1078C13.8675 15.9647 13.9386 15.8159 14.1774 15.8037Z" fill="#B5B5B5"/>
<g style="mix-blend-mode:multiply">
<path d="M19.5362 17.0199L19.5471 16.1368C19.5471 16.1368 19.5573 15.963 19.7919 16.0342C20.0265 16.1054 20.069 16.1255 20.069 16.1255C20.1118 16.1383 20.1499 16.1633 20.1786 16.1975C20.2073 16.2317 20.2253 16.2736 20.2304 16.318C20.2694 16.4889 20.3246 17.5125 20.3246 17.5125C20.3214 17.6505 20.264 17.7817 20.1649 17.8777C20.1023 17.9616 20.0122 18.0207 19.9103 18.0448C19.8085 18.0689 19.7015 18.0564 19.6079 18.0096C19.6079 18.0096 19.575 18.0111 19.5413 17.8646C19.5229 17.5834 19.5212 17.3013 19.5362 17.0199V17.0199Z" fill="#DCA33E"/>
</g>
<path d="M19.5876 17.7698L19.589 16.2823C19.589 16.2823 19.5903 16.1173 19.7066 16.094C19.823 16.0706 19.9292 16.1584 19.9488 16.3853C19.9684 16.6122 20.0134 17.4773 20.0134 17.4773C20.0134 17.4773 20.0348 17.8012 19.8917 17.9068C19.7486 18.0125 19.5997 17.9569 19.5876 17.7698Z" fill="#B5B5B5"/>
</g>
<defs>
<clipPath id="clip0_212_3003">
<rect width="58.324" height="28.9182" fill="white"/>
</clipPath>
</defs>
</svg>
