<svg width="25" height="26" viewBox="0 0 25 26" fill="none" xmlns="http://www.w3.org/2000/svg">
<path d="M10 1H2.15385C1.51659 1 1 1.51659 1 2.15385V10C1 10.6373 1.51659 11.1538 2.15385 11.1538H10C10.6373 11.1538 11.1538 10.6373 11.1538 10V2.15385C11.1538 1.51659 10.6373 1 10 1Z" stroke="#27332E" stroke-width="2" stroke-linecap="round" stroke-linejoin="round"/>
<path d="M16 3H24M24 7H16" stroke="#27332E" stroke-width="2" stroke-linecap="round" stroke-linejoin="round"/>
<path d="M10 14.8462H2.15385C1.51659 14.8462 1 15.3628 1 16V23.8462C1 24.4834 1.51659 25 2.15385 25H10C10.6373 25 11.1538 24.4834 11.1538 23.8462V16C11.1538 15.3628 10.6373 14.8462 10 14.8462Z" stroke="#27332E" stroke-width="2" stroke-linecap="round" stroke-linejoin="round"/>
<path d="M16 17H24M24 21H16" stroke="#27332E" stroke-width="2" stroke-linecap="round" stroke-linejoin="round"/>
</svg>
