<svg width="341" height="35" viewBox="0 0 341 35" fill="none" xmlns="http://www.w3.org/2000/svg">
<path d="M9.14062 12.4609L9.67969 16.5625L6.9375 21.4727L6.39844 17.3711L4.55859 3.29688H7.94531L9.14062 12.4609ZM17.543 3.29688H20.9297L10.4883 22H7.07812L9.79688 17.1367V17.1602L17.543 3.29688ZM16.4531 12.2266L17.1797 17.4062L14.3906 22L13.7109 17.1367L11.8711 3.29688H15.2578L16.4531 12.2266ZM24.8555 3.29688H28.2422L17.8008 22H14.3906L17.1094 17.1367V17.1602L24.8555 3.29688ZM33.2344 7.99609H36.5391L35.8477 11.2773L34.6992 16.6445H31.3945H27.1992L27.9023 13.3398H32.0977L32.5312 11.2773H32.1211H29.1094C28.7969 11.2773 28.5039 11.3906 28.2305 11.6172C27.957 11.8359 27.7891 12.1016 27.7266 12.4141L26.3789 18.7188H30.5391H30.9844H34.2656L33.5625 22H22.4062L24.4453 12.4141C24.6172 11.6016 24.9727 10.8633 25.5117 10.1992C26.0508 9.52734 26.6953 8.99219 27.4453 8.59375C28.2031 8.19531 28.9922 7.99609 29.8125 7.99609H33.2344ZM38.4023 22L39.1055 18.6953H44.5195L43.8164 22H38.4023ZM34.7344 22L38.6953 3.34375H42.0117L39.7969 13.7383L39.1055 17.0195H39.0703L38.0156 22H34.7344ZM53.1328 18.7188H53.5781H53.9648L53.2734 22H48.6562L49.3594 18.7188H53.1328ZM47.0391 12.4141C47.2109 11.6016 47.5664 10.8633 48.1055 10.1992C48.6445 9.52734 49.2891 8.99219 50.0391 8.59375C50.7969 8.19531 51.5859 7.99609 52.4062 7.99609H56.25L55.5469 11.2773H54.7148H51.7031C51.3906 11.2773 51.0977 11.3906 50.8242 11.6172C50.5508 11.8359 50.3828 12.1016 50.3203 12.4141L48.9727 18.7188L48.2812 22H45L47.0391 12.4141ZM61.2891 22C62.0859 22 62.8516 21.8086 63.5859 21.4258C64.3203 21.0352 64.9492 20.5156 65.4727 19.8672C66.0039 19.2109 66.3555 18.4844 66.5273 17.6875L67.6641 12.3086C67.8359 11.5117 67.7969 10.7891 67.5469 10.1406C67.2969 9.48438 66.8867 8.96484 66.3164 8.58203C65.7461 8.19141 65.0625 7.99609 64.2656 7.99609H61.7344C60.9453 7.99609 60.1797 8.19141 59.4375 8.58203C58.7031 8.96484 58.0742 9.48438 57.5508 10.1406C57.0273 10.7891 56.6797 11.5117 56.5078 12.3086L54.4453 22H57.7266L58.4297 18.7188L59.7891 12.3086C59.8516 12.0195 60.0039 11.7773 60.2461 11.582C60.4883 11.3789 60.7539 11.2773 61.043 11.2773H63.5742C63.8555 11.2773 64.0742 11.3789 64.2305 11.582C64.3945 11.7773 64.4453 12.0195 64.3828 12.3086L63.2461 17.6875C63.1836 17.9688 63.0273 18.2109 62.7773 18.4141C62.5352 18.6172 62.2734 18.7188 61.9922 18.7188H58.8164L58.125 22H61.2891ZM84.3633 7.99609C85.1758 7.99609 85.875 8.19531 86.4609 8.59375C87.0469 8.99219 87.4648 9.52734 87.7148 10.1992C87.9727 10.8633 88.0156 11.6016 87.8438 12.4141L85.8047 22H82.5352L83.2266 18.7188L84.5625 12.4141C84.6328 12.1016 84.5781 11.8359 84.3984 11.6172C84.2266 11.3906 83.9805 11.2773 83.6602 11.2773H81.3867C81.0742 11.2773 80.7852 11.3828 80.5195 11.5938C80.2539 11.8047 80.0742 12.0664 79.9805 12.3789C79.9805 12.3867 79.9805 12.3945 79.9805 12.4023C79.9727 12.4102 79.9688 12.4141 79.9688 12.4141L78.6328 18.7188H78.6562L77.9531 22H77.9297H74.6602H74.6484L76.6992 12.3789C76.7461 12.0664 76.6836 11.8047 76.5117 11.5938C76.3398 11.3828 76.0977 11.2773 75.7852 11.2773H72.7148L73.418 7.99609H76.4883C77.5117 7.99609 78.3516 8.30859 79.0078 8.93359C79.9062 8.30859 80.8594 7.99609 81.8672 7.99609H84.3633ZM73.0312 7.99609L71.8594 13.5391L70.7578 18.7188L70.0312 22H66.7734L69.75 7.99609H73.0312ZM97.8047 7.99609H101.109L100.418 11.2773L99.2695 16.6445H95.9648H91.7695L92.4727 13.3398H96.668L97.1016 11.2773H96.6914H93.6797C93.3672 11.2773 93.0742 11.3906 92.8008 11.6172C92.5273 11.8359 92.3594 12.1016 92.2969 12.4141L90.9492 18.7188H95.1094H95.5547H98.8359L98.1328 22H86.9766L89.0156 12.4141C89.1875 11.6016 89.543 10.8633 90.082 10.1992C90.6211 9.52734 91.2656 8.99219 92.0156 8.59375C92.7734 8.19531 93.5625 7.99609 94.3828 7.99609H97.8047ZM108.609 6.25L109.242 3.29688H117.07L116.449 6.25H108.609ZM116.801 6.25L117.422 3.29688H122.203L121.57 6.25H116.801ZM113.895 3.29688H117.094L113.121 22H109.922L113.895 3.29688ZM121.547 22C122.344 22 123.109 21.8086 123.844 21.4258C124.578 21.0352 125.207 20.5156 125.73 19.8672C126.262 19.2109 126.613 18.4844 126.785 17.6875L127.922 12.3086C128.094 11.5117 128.055 10.7891 127.805 10.1406C127.555 9.48438 127.145 8.96484 126.574 8.58203C126.004 8.19141 125.32 7.99609 124.523 7.99609H121.992C121.203 7.99609 120.438 8.19141 119.695 8.58203C118.961 8.96484 118.332 9.48438 117.809 10.1406C117.285 10.7891 116.938 11.5117 116.766 12.3086L114.703 22H117.984L118.688 18.7188L120.047 12.3086C120.109 12.0195 120.262 11.7773 120.504 11.582C120.746 11.3789 121.012 11.2773 121.301 11.2773H123.832C124.113 11.2773 124.332 11.3789 124.488 11.582C124.652 11.7773 124.703 12.0195 124.641 12.3086L123.504 17.6875C123.441 17.9688 123.285 18.2109 123.035 18.4141C122.793 18.6172 122.531 18.7188 122.25 18.7188H119.074L118.383 22H121.547Z" fill="#27332E"/>
<path d="M338.73 19H249.564C248.7 19 248 19.6973 248 20.5574V33.0082C248 33.8683 248.7 34.5656 249.564 34.5656H338.73C339.593 34.5656 340.294 33.8683 340.294 33.0082V20.5574C340.294 19.6973 339.593 19 338.73 19Z" fill="#FFA000"/>
<g clip-path="url(#clip0_349_261)">
<path d="M257.529 27.2938C257.41 26.5533 256.853 25.8256 256.226 25.4373C255.352 24.8962 254.312 24.8754 253.399 24.4379C253.038 24.2644 252.763 23.7806 253.017 23.4314C253.275 23.077 253.766 23.0067 254.167 22.9758C254.675 22.948 255.177 23.0923 255.593 23.3853C255.894 23.6111 255.958 23.8439 256.07 24.1776C256.16 24.4466 256.28 24.6437 256.601 24.5674C256.899 24.4968 257.251 23.8101 257.292 23.5361C257.31 23.3579 257.29 23.178 257.232 23.0085C257.175 22.839 257.081 22.6839 256.958 22.554C256.471 21.9951 255.64 21.8115 254.942 21.6932C254.554 21.6308 254.161 21.6036 253.768 21.612C252.243 21.6298 250.47 23.1596 251.151 24.7647C251.506 25.6031 252.514 26.133 253.348 26.4079C254.326 26.7306 255.493 26.5267 256.058 27.5238C256.597 28.4735 255.628 29.0608 254.815 29.2433C253.844 29.4617 252.417 28.7542 252.447 27.6453C252.478 26.5415 251.024 26.9116 251.001 27.8448C250.951 29.8277 252.886 31.1303 254.745 30.8176C256.456 30.5302 257.812 29.0608 257.529 27.2938Z" fill="white"/>
<g style="mix-blend-mode:multiply">
<path d="M255.857 23.12C255.348 22.85 254.868 22.5893 254.269 22.5723C253.541 22.5514 252.225 22.9418 252.328 23.9145C252.459 25.1508 254.772 25.2325 255.671 25.7409C257.055 26.5247 257.742 28.1313 256.965 29.5077C257.206 29.1973 257.381 28.8404 257.478 28.4595C257.574 28.0785 257.592 27.6817 257.528 27.2938C257.41 26.5533 256.852 25.8256 256.225 25.4373C255.351 24.8962 254.311 24.8754 253.399 24.4379C253.037 24.2644 252.762 23.7806 253.016 23.4314C253.274 23.077 253.765 23.0067 254.167 22.9758C254.674 22.948 255.177 23.0923 255.592 23.3853C255.893 23.6111 255.958 23.8439 256.069 24.1776C256.159 24.4466 256.279 24.6437 256.601 24.5674C256.898 24.4968 257.25 23.8101 257.291 23.5361C257.31 23.3579 257.289 23.178 257.232 23.0085C257.174 22.839 257.08 22.6839 256.957 22.554C256.953 22.5489 256.948 22.5445 256.944 22.5397C256.988 23.0888 256.665 23.549 255.857 23.12Z" fill="white"/>
</g>
<g style="mix-blend-mode:multiply">
<path d="M252.447 27.6458C252.459 27.2208 252.25 27.0149 251.989 26.9749C251.871 27.0467 251.781 27.1576 251.737 27.2884C251.692 27.4192 251.695 27.5615 251.744 27.6906C251.797 27.9044 251.887 28.1076 252.009 28.291C252.235 28.6336 252.537 28.9192 252.892 29.1256C253.333 29.3575 253.823 29.482 254.322 29.4889C254.809 29.4937 255.366 29.4419 255.77 29.1374C256.281 28.752 256.422 28.1371 256.134 27.6741C256.494 28.5354 255.585 29.0706 254.817 29.2433C253.844 29.4622 252.417 28.7546 252.447 27.6458Z" fill="white"/>
</g>
<path d="M336.35 27.2938C336.232 26.5533 335.674 25.8256 335.047 25.4373C334.173 24.8962 333.133 24.8754 332.221 24.4379C331.859 24.2644 331.585 23.7806 331.839 23.4314C332.096 23.077 332.588 23.0067 332.989 22.9758C333.497 22.948 333.999 23.0923 334.414 23.3853C334.715 23.6111 334.78 23.8439 334.891 24.1776C334.981 24.4466 335.101 24.6437 335.423 24.5674C335.721 24.4968 336.072 23.8101 336.114 23.5361C336.132 23.3579 336.112 23.178 336.054 23.0085C335.996 22.839 335.903 22.6839 335.779 22.554C335.293 21.9951 334.462 21.8115 333.764 21.6932C333.376 21.6308 332.983 21.6036 332.59 21.612C331.065 21.6298 329.292 23.1596 329.972 24.7647C330.328 25.6031 331.335 26.133 332.17 26.4079C333.148 26.7306 334.314 26.5267 334.88 27.5238C335.419 28.4735 334.449 29.0608 333.637 29.2433C332.665 29.4617 331.239 28.7542 331.269 27.6453C331.299 26.5415 329.846 26.9116 329.822 27.8448C329.773 29.8277 331.708 31.1303 333.566 30.8176C335.277 30.5302 336.633 29.0608 336.35 27.2938Z" fill="white"/>
<g style="mix-blend-mode:multiply">
<path d="M334.679 23.12C334.17 22.85 333.689 22.5893 333.091 22.5723C332.363 22.5514 331.046 22.9418 331.149 23.9145C331.281 25.1508 333.594 25.2325 334.492 25.7409C335.877 26.5247 336.564 28.1313 335.787 29.5077C336.028 29.1973 336.202 28.8404 336.299 28.4595C336.396 28.0785 336.413 27.6817 336.35 27.2938C336.231 26.5533 335.674 25.8256 335.047 25.4373C334.173 24.8962 333.133 24.8754 332.22 24.4379C331.859 24.2644 331.584 23.7806 331.838 23.4314C332.096 23.077 332.587 23.0067 332.988 22.9758C333.496 22.948 333.998 23.0923 334.414 23.3853C334.715 23.6111 334.779 23.8439 334.891 24.1776C334.981 24.4466 335.101 24.6437 335.422 24.5674C335.72 24.4968 336.072 23.8101 336.113 23.5361C336.131 23.3579 336.111 23.178 336.053 23.0085C335.996 22.839 335.902 22.6839 335.779 22.554C335.774 22.5489 335.77 22.5445 335.765 22.5397C335.81 23.0888 335.487 23.549 334.679 23.12Z" fill="white"/>
</g>
<g style="mix-blend-mode:multiply">
<path d="M331.269 27.6458C331.28 27.2208 331.072 27.0149 330.81 26.9749C330.692 27.0467 330.603 27.1576 330.558 27.2884C330.514 27.4192 330.516 27.5615 330.566 27.6906C330.619 27.9044 330.709 28.1076 330.831 28.291C331.057 28.6336 331.359 28.9192 331.713 29.1256C332.155 29.3575 332.645 29.482 333.144 29.4889C333.63 29.4937 334.188 29.4419 334.591 29.1374C335.103 28.752 335.244 28.1371 334.955 27.6741C335.315 28.5354 334.407 29.0706 333.638 29.2433C332.666 29.4622 331.239 28.7546 331.269 27.6458Z" fill="white"/>
</g>
<path d="M264.476 22.3482C264.427 22.309 264.378 22.2722 264.327 22.2379C263.838 21.9083 263.374 21.871 262.793 21.7946C262.585 21.7852 262.248 21.7859 262.039 21.7755C261.413 21.7825 260.781 21.7427 260.157 21.7808C259.865 21.7985 259.527 21.7388 259.251 21.8611C258.903 22.0156 258.866 22.4356 258.83 22.7696C258.824 23.0754 258.812 23.3811 258.796 23.6868C258.805 23.8118 258.814 23.9248 258.817 24.0171C258.856 25.1168 258.81 26.146 258.819 27.2465C258.827 28.1871 258.717 29.3992 258.921 30.4183C258.99 30.7629 259.647 30.7639 259.966 30.6094C260.457 30.3716 260.333 29.6912 260.338 29.2383C260.345 28.461 260.349 27.6835 260.349 26.9055C261.494 27.0165 262.833 26.9699 263.82 26.4783C264.241 26.258 264.596 25.9302 264.849 25.5281C265.102 25.1261 265.243 24.6642 265.259 24.1895C265.271 23.844 265.207 23.5002 265.072 23.1821C264.936 22.864 264.733 22.5794 264.476 22.3482ZM262.42 25.4604C262.227 25.5478 262.019 25.5976 261.807 25.6071C261.681 25.6139 260.348 25.5712 260.348 25.5529C260.348 25.4641 260.348 25.3753 260.348 25.2864C260.346 24.7609 260.383 24.0573 260.385 23.435C261.017 23.4656 261.8 23.3494 262.43 23.5835C262.995 23.7929 263.306 24.552 262.911 25.0541C262.777 25.2223 262.61 25.3607 262.42 25.4604Z" fill="white"/>
<g style="mix-blend-mode:multiply">
<path d="M264.476 22.3482C264.427 22.309 264.378 22.2722 264.327 22.2378C263.876 21.9343 263.446 21.8788 262.927 21.8121C263.912 22.1738 264.683 22.8439 264.589 24.0744C264.562 24.5106 264.437 24.9351 264.223 25.3164C264.009 25.6977 263.713 26.0261 263.355 26.2773C262.819 26.6304 262.26 26.7256 261.64 26.8474C261.462 26.8725 261.286 26.9073 261.113 26.9517C262.056 26.9749 263.046 26.8636 263.82 26.4778C264.241 26.2576 264.596 25.9297 264.849 25.5277C265.102 25.1256 265.243 24.6637 265.259 24.1891C265.271 23.8436 265.207 23.4999 265.072 23.1819C264.936 22.8639 264.733 22.5793 264.476 22.3482Z" fill="white"/>
</g>
<g style="mix-blend-mode:multiply">
<path d="M260.348 25.2864C260.346 24.7609 260.383 24.0573 260.384 23.435H260.388C260.346 23.3316 260.267 23.1412 260.222 23.2851C260.141 23.5487 260.102 23.8234 260.107 24.0992C260.111 24.5359 260.149 24.9687 260.121 25.4045C260.101 25.7255 260.221 25.6602 260.348 25.503C260.348 25.4309 260.348 25.3587 260.348 25.2864Z" fill="white"/>
</g>
<g style="mix-blend-mode:multiply">
<path d="M260.395 26.9096C260.167 26.6345 260.063 27.3016 260.063 27.3783C260.063 27.6184 260.096 27.8609 260.089 28.1002C260.065 28.8538 260.324 29.9764 259.865 30.6467C259.864 30.6478 259.863 30.6489 259.862 30.6499C259.898 30.6389 259.932 30.6254 259.966 30.6097C260.457 30.3719 260.333 29.6915 260.338 29.2386C260.345 28.4613 260.349 27.6838 260.349 26.9058C260.364 26.908 260.38 26.908 260.395 26.9096Z" fill="white"/>
</g>
<path d="M270.028 21.2051C269.893 21.0784 269.715 21.0053 269.529 20.9997C269.344 20.9941 269.162 21.0562 269.019 21.1746C268.252 21.7058 267.782 23.0555 267.433 23.8791C267.266 24.2786 267.12 24.6868 266.997 25.1019C266.445 26.9315 265.536 28.8358 265.074 30.6919C264.931 31.2636 266.237 31.7376 266.56 31.149C267.217 29.9489 267.339 29.1498 267.833 27.8962C267.868 27.7945 270.072 27.8197 270.34 27.8433C270.47 27.8551 270.601 27.8417 270.726 27.8038C270.854 28.162 270.984 28.5189 271.113 28.8763C271.393 29.6501 271.453 30.5302 272.041 31.1195C272.579 31.6578 273.63 31.4405 273.818 30.7875C274.012 30.1118 273.54 29.4139 273.273 28.8407C272.963 28.1732 272.776 27.4994 272.532 26.8055C272.169 25.7733 271.728 24.7543 271.339 23.7224C271.031 22.9077 270.73 21.7797 270.028 21.2051ZM268.427 25.9821C268.665 25.3068 268.872 24.4535 269.241 23.7849C269.564 24.4524 269.834 25.145 270.046 25.8558C269.558 25.9917 268.967 25.9638 268.427 25.9821Z" fill="white"/>
<g style="mix-blend-mode:multiply">
<path d="M269.241 23.7849C269.259 23.8207 269.279 23.8623 269.298 23.9009C269.293 23.8217 269.281 23.7431 269.263 23.666C269.157 23.2565 268.925 23.6146 268.84 23.7961C268.49 24.5515 268.276 25.3631 268.21 26.193C268.464 26.1395 268.712 26.0655 268.953 25.9715C268.776 25.9748 268.599 25.9763 268.427 25.9821C268.665 25.3068 268.872 24.4531 269.241 23.7849Z" fill="white"/>
</g>
<g style="mix-blend-mode:multiply">
<path d="M267.341 28.3176C267.228 28.9799 266.835 29.5642 266.525 30.1612C266.343 30.5128 266.027 31.0649 265.662 31.3601C266.006 31.4692 266.402 31.4373 266.56 31.1482C267.217 29.9481 267.34 29.149 267.833 27.8954C267.855 27.8318 268.727 27.8179 269.441 27.8223C268.667 27.4946 267.517 27.2906 267.341 28.3176Z" fill="white"/>
</g>
<g style="mix-blend-mode:multiply">
<path d="M273.274 28.8399C272.963 28.1724 272.776 27.4986 272.532 26.8048C272.169 25.7733 271.728 24.7543 271.339 23.7224C271.031 22.9077 270.73 21.7797 270.029 21.2051C269.893 21.0784 269.715 21.0053 269.529 20.9997C269.344 20.9941 269.162 21.0562 269.019 21.1746C268.929 21.2382 268.844 21.3099 268.767 21.3886C270.017 21.5633 270.94 24.8901 271.233 25.6533C271.825 27.1961 272.798 28.6956 272.98 30.3654C273.029 30.717 273.008 31.0748 272.919 31.4183C273.329 31.3861 273.712 31.1563 273.818 30.7867C274.012 30.1111 273.54 29.4125 273.274 28.8399Z" fill="white"/>
</g>
<path d="M282.109 29.6832C281.344 28.747 280.607 27.6465 279.816 26.8373C279.964 26.7894 280.109 26.7327 280.25 26.6675C280.673 26.4683 281.034 26.1579 281.294 25.7694C281.554 25.3809 281.704 24.9289 281.727 24.4619C281.737 24.1244 281.669 23.7891 281.53 23.4816C281.391 23.174 281.183 22.9024 280.923 22.6872C280.873 22.6495 280.822 22.6139 280.77 22.5802C280.268 22.2626 279.792 22.227 279.195 22.1533C278.981 22.1443 278.635 22.145 278.421 22.1348C277.779 22.1415 277.13 22.1033 276.489 22.14C276.189 22.1573 275.842 22.0995 275.559 22.2173C275.142 22.391 275.133 22.9324 275.12 23.312C275.071 24.6701 275.103 26.0481 275.115 27.4072C275.123 28.3136 275.011 29.4817 275.22 30.4643C275.291 30.7962 275.965 30.7971 276.292 30.6477C276.797 30.4184 276.67 29.7627 276.675 29.3264C276.682 28.5774 276.686 27.8281 276.686 27.0784C277.192 27.137 277.702 27.1516 278.21 27.1219C278.249 27.1193 278.599 27.7665 278.643 27.8341C278.797 28.0687 278.946 28.3064 279.094 28.5452C279.573 29.3198 280.143 30.0349 280.79 30.6759C281.392 31.2801 282.602 30.2873 282.109 29.6832ZM276.686 25.7762C276.686 25.6916 276.686 25.6071 276.686 25.5227C276.683 25.0233 276.721 24.354 276.723 23.7627C277.363 23.7907 278.156 23.6811 278.795 23.9038C279.366 24.1025 279.681 24.8245 279.281 25.302C279.144 25.4637 278.975 25.5952 278.784 25.6883C278.587 25.7718 278.377 25.8189 278.164 25.8275C278.035 25.8341 276.686 25.7934 276.686 25.7762Z" fill="white"/>
<g style="mix-blend-mode:multiply" opacity="0.8">
<path d="M282.109 29.6832C281.344 28.7469 280.607 27.6465 279.816 26.8373C279.964 26.7894 280.109 26.7327 280.25 26.6675C280.673 26.4683 281.034 26.1578 281.294 25.7694C281.554 25.3809 281.704 24.9289 281.727 24.4619C281.737 24.1244 281.669 23.7891 281.53 23.4816C281.391 23.174 281.183 22.9024 280.923 22.6872C280.873 22.6495 280.822 22.6138 280.77 22.5802C280.489 22.4061 280.175 22.291 279.848 22.2418C280.434 22.5616 280.979 23.0636 281.132 23.7308C281.441 25.0816 280.462 26.1788 279.241 26.5192C279.944 27.4788 280.815 28.3382 281.444 29.3336C281.688 29.7196 281.961 30.4308 281.507 30.7983C281.488 30.8136 281.468 30.824 281.449 30.8376C281.974 30.7067 282.451 30.1017 282.109 29.6832Z" fill="white"/>
</g>
<g style="mix-blend-mode:multiply" opacity="0.8">
<path d="M276.685 25.5227C276.683 25.0233 276.721 24.354 276.723 23.7627C276.81 23.7665 276.901 23.7676 276.994 23.7675C276.95 23.7093 276.893 23.6627 276.827 23.6318C276.761 23.601 276.689 23.5867 276.616 23.5904C276.313 23.625 276.424 24.6748 276.419 24.8986C276.414 25.1118 276.421 25.3266 276.406 25.5406C276.401 25.6121 276.377 26.187 276.59 25.9257C276.628 25.879 276.662 25.8297 276.692 25.7781L276.686 25.7768C276.685 25.6922 276.686 25.6071 276.685 25.5227Z" fill="white"/>
</g>
<g style="mix-blend-mode:multiply" opacity="0.8">
<path d="M277.278 27.1258C276.936 26.8471 276.32 26.6302 276.257 27.5985C276.223 28.1092 276.236 28.6178 276.233 29.1291C276.229 29.6974 276.21 30.3246 275.818 30.7433C275.981 30.7426 276.142 30.7105 276.293 30.6487C276.798 30.4194 276.671 29.7636 276.675 29.3274C276.683 28.5784 276.687 27.829 276.687 27.0793C276.894 27.0985 277.087 27.1146 277.278 27.1258Z" fill="white"/>
</g>
<path d="M319.757 29.6832C318.993 28.747 318.256 27.6465 317.464 26.8373C317.612 26.7894 317.757 26.7327 317.898 26.6675C318.321 26.4683 318.682 26.1579 318.942 25.7694C319.203 25.3809 319.352 24.9289 319.376 24.4619C319.385 24.1244 319.318 23.7891 319.179 23.4816C319.039 23.174 318.831 22.9024 318.571 22.6872C318.522 22.6495 318.471 22.6139 318.418 22.5802C317.916 22.2626 317.44 22.227 316.844 22.1533C316.63 22.1443 316.284 22.145 316.069 22.1348C315.427 22.1415 314.779 22.1033 314.137 22.14C313.838 22.1573 313.491 22.0995 313.207 22.2173C312.791 22.391 312.782 22.9324 312.768 23.312C312.72 24.6701 312.752 26.0481 312.764 27.4072C312.772 28.3136 312.659 29.4817 312.869 30.4643C312.939 30.7962 313.613 30.7971 313.941 30.6477C314.445 30.4184 314.318 29.7627 314.323 29.3264C314.331 28.5774 314.335 27.8281 314.335 27.0784C314.841 27.137 315.351 27.1516 315.859 27.1219C315.898 27.1193 316.247 27.7665 316.292 27.8341C316.446 28.0687 316.595 28.3064 316.743 28.5452C317.222 29.3198 317.791 30.0349 318.438 30.6759C319.041 31.2801 320.251 30.2873 319.757 29.6832ZM314.334 25.7762C314.334 25.6916 314.334 25.6071 314.334 25.5227C314.332 25.0233 314.37 24.354 314.371 23.7627C315.012 23.7907 315.805 23.6811 316.443 23.9038C317.015 24.1025 317.33 24.8245 316.929 25.302C316.792 25.4637 316.623 25.5952 316.433 25.6883C316.236 25.7718 316.026 25.8189 315.812 25.8275C315.684 25.8341 314.334 25.7934 314.334 25.7762Z" fill="white"/>
<g style="mix-blend-mode:multiply" opacity="0.8">
<path d="M319.757 29.6832C318.993 28.7469 318.256 27.6465 317.464 26.8373C317.612 26.7894 317.757 26.7327 317.898 26.6675C318.321 26.4683 318.682 26.1578 318.942 25.7694C319.203 25.3809 319.352 24.9289 319.376 24.4619C319.385 24.1244 319.318 23.7891 319.179 23.4816C319.039 23.174 318.831 22.9024 318.571 22.6872C318.522 22.6495 318.471 22.6138 318.418 22.5802C318.137 22.4061 317.824 22.291 317.497 22.2418C318.082 22.5616 318.628 23.0636 318.781 23.7308C319.089 25.0816 318.11 26.1788 316.89 26.5192C317.593 27.4788 318.464 28.3382 319.093 29.3336C319.336 29.7196 319.609 30.4308 319.155 30.7983C319.137 30.8136 319.117 30.824 319.098 30.8376C319.623 30.7067 320.099 30.1017 319.757 29.6832Z" fill="white"/>
</g>
<g style="mix-blend-mode:multiply" opacity="0.8">
<path d="M314.334 25.5227C314.332 25.0233 314.37 24.354 314.371 23.7627C314.459 23.7665 314.549 23.7676 314.642 23.7675C314.598 23.7093 314.541 23.6627 314.475 23.6318C314.41 23.601 314.337 23.5867 314.265 23.5904C313.962 23.625 314.072 24.6748 314.067 24.8986C314.063 25.1118 314.069 25.3266 314.055 25.5406C314.05 25.6121 314.026 26.187 314.239 25.9257C314.276 25.879 314.31 25.8297 314.341 25.7781L314.334 25.7768C314.334 25.6922 314.334 25.6071 314.334 25.5227Z" fill="white"/>
</g>
<g style="mix-blend-mode:multiply" opacity="0.8">
<path d="M314.926 27.1258C314.584 26.8471 313.968 26.6302 313.905 27.5985C313.872 28.1092 313.884 28.6178 313.881 29.1291C313.877 29.6974 313.859 30.3246 313.467 30.7433C313.63 30.7426 313.791 30.7105 313.942 30.6487C314.446 30.4194 314.319 29.7636 314.324 29.3274C314.331 28.5784 314.335 27.829 314.336 27.0793C314.543 27.0985 314.736 27.1146 314.926 27.1258Z" fill="white"/>
</g>
<path d="M289.968 29.5858C289.425 28.9227 288.25 29.1717 287.522 29.197C286.681 29.2262 285.879 29.2045 285.055 29.197C285.063 28.4084 285.067 27.6196 285.069 26.8306C285.361 26.8314 285.654 26.8318 285.946 26.8316C286.807 26.8301 288.07 26.9119 288.935 26.8599C289.329 26.8364 290.041 26.3428 289.554 25.8118C289.01 25.2176 287.832 25.4406 287.103 25.463C286.41 25.4842 285.744 25.4738 285.07 25.4654V25.4547C285.069 24.8263 285.114 23.9914 285.12 23.2406C285.53 23.2415 285.94 23.2418 286.35 23.2415C287.209 23.2398 288.469 23.3311 289.332 23.2721C289.726 23.2458 290.436 22.6946 289.951 22.1013C289.407 21.4382 288.232 21.6874 287.505 21.7125C286.498 21.7473 285.551 21.7076 284.55 21.7094C284.55 21.716 284.55 21.7227 284.55 21.7294C284.261 21.7539 283.981 21.7981 283.758 22.0232C283.704 22.078 283.656 22.1376 283.613 22.2013C283.384 22.6576 283.469 23.2338 283.468 23.8843C283.466 24.9848 283.454 26.3758 283.461 27.4764C283.464 28.0276 283.486 28.556 283.471 29.1068C283.459 29.508 283.417 30.0698 283.685 30.4061C283.911 30.6916 284.382 30.6988 284.721 30.7295C285.267 30.7795 285.819 30.7254 286.366 30.7242C287.226 30.7225 288.486 30.8136 289.349 30.7547C289.744 30.7303 290.454 30.1791 289.968 29.5858Z" fill="white"/>
<g style="mix-blend-mode:multiply">
<path d="M289.684 21.9943C289.728 22.321 289.634 22.688 289.285 22.8117C288.729 23.0087 288.076 22.8999 287.498 22.8806C286.569 22.85 285.642 22.8195 284.714 22.8806C284.699 23.6143 284.741 24.3538 284.71 25.0853C284.698 25.3812 284.88 25.5652 285.07 25.5062C285.072 24.8859 285.114 23.9668 285.12 23.2412C285.53 23.2421 285.94 23.2424 286.349 23.2421C287.209 23.2404 288.469 23.3317 289.332 23.2727C289.726 23.2464 290.436 22.6952 289.95 22.1019C289.864 21.9989 289.759 21.9133 289.641 21.8496C289.662 21.8956 289.676 21.9443 289.684 21.9943Z" fill="white"/>
</g>
<g style="mix-blend-mode:multiply">
<path d="M288.942 26.1863C288.659 26.8034 287.34 26.5917 286.852 26.5565C286.471 26.529 286.087 26.5106 285.705 26.4954C285.135 26.473 284.567 26.3313 284.558 27.0521C284.552 27.5426 284.518 28.0196 284.494 28.5088C284.475 28.7125 284.48 28.9179 284.511 29.1202C284.785 29.418 284.99 29.4412 285.128 29.1985C285.104 29.1985 285.079 29.1976 285.055 29.1976C285.063 28.409 285.067 27.6202 285.069 26.8312C285.361 26.832 285.653 26.8324 285.946 26.8323C286.807 26.8307 288.07 26.9125 288.934 26.8605C289.329 26.837 290.041 26.3434 289.554 25.8124C289.388 25.643 289.176 25.5266 288.945 25.4779C288.997 25.5887 289.024 25.7098 289.024 25.8324C289.023 25.9549 288.996 26.0759 288.942 26.1863Z" fill="white"/>
</g>
<g style="mix-blend-mode:multiply">
<path d="M289.968 29.5858C289.864 29.4609 289.733 29.3611 289.585 29.2942C289.594 29.3508 289.598 29.4082 289.597 29.4655C289.583 30.1182 289.054 30.3624 288.471 30.4438C287.298 30.6085 286.055 30.5105 284.876 30.488C284.513 30.4813 284.143 30.4924 283.773 30.4935C284.019 30.6931 284.421 30.7029 284.722 30.7301C285.268 30.7801 285.819 30.726 286.367 30.7248C287.227 30.7231 288.486 30.8142 289.35 30.7554C289.744 30.7303 290.454 30.1791 289.968 29.5858Z" fill="white"/>
</g>
<path d="M301.926 23.0625C301.877 23.0233 301.828 22.9865 301.777 22.9521C301.288 22.6226 300.824 22.5853 300.243 22.5089C300.035 22.4995 299.698 22.5001 299.489 22.4898C298.863 22.4968 298.232 22.457 297.607 22.4951C297.315 22.5128 296.977 22.4531 296.701 22.5754C296.353 22.7299 296.317 23.1499 296.28 23.4839C296.274 23.7897 296.262 24.0954 296.246 24.4011C296.255 24.5261 296.264 24.6391 296.267 24.7314C296.306 25.8311 296.26 26.8603 296.269 27.9608C296.277 28.9014 296.167 30.1135 296.371 31.1326C296.44 31.4772 297.097 31.4782 297.416 31.3237C297.907 31.0858 297.783 30.4055 297.788 29.9526C297.795 29.1753 297.799 28.3977 297.799 27.6198C298.944 27.7308 300.283 27.6842 301.27 27.1926C301.691 26.9723 302.046 26.6445 302.299 26.2424C302.552 25.8404 302.693 25.3785 302.71 24.9038C302.721 24.5583 302.657 24.2145 302.522 23.8964C302.386 23.5783 302.183 23.2937 301.926 23.0625ZM299.87 26.1747C299.677 26.262 299.469 26.3118 299.257 26.3214C299.131 26.3282 297.798 26.2855 297.798 26.2672C297.798 26.1784 297.798 26.0895 297.798 26.0007C297.796 25.4752 297.834 24.7716 297.835 24.1493C298.467 24.1799 299.25 24.0637 299.88 24.2978C300.445 24.5072 300.756 25.2663 300.361 25.7684C300.227 25.9366 300.06 26.075 299.87 26.1747Z" fill="white"/>
<g style="mix-blend-mode:multiply">
<path d="M301.926 23.0625C301.877 23.0233 301.828 22.9865 301.777 22.9521C301.326 22.6486 300.896 22.5931 300.377 22.5264C301.362 22.8881 302.133 23.5582 302.039 24.7887C302.012 25.2249 301.887 25.6494 301.673 26.0307C301.459 26.412 301.163 26.7404 300.805 26.9915C300.269 27.3446 299.71 27.4399 299.09 27.5617C298.912 27.5868 298.736 27.6216 298.563 27.666C299.506 27.6892 300.496 27.5779 301.27 27.1921C301.691 26.9719 302.046 26.644 302.299 26.242C302.552 25.8399 302.693 25.378 302.71 24.9034C302.721 24.5579 302.657 24.2142 302.522 23.8962C302.386 23.5782 302.183 23.2936 301.926 23.0625Z" fill="white"/>
</g>
<g style="mix-blend-mode:multiply">
<path d="M297.798 26.0007C297.796 25.4752 297.833 24.7716 297.834 24.1493H297.838C297.796 24.0458 297.717 23.8555 297.672 23.9994C297.591 24.263 297.552 24.5377 297.557 24.8135C297.561 25.2502 297.599 25.6829 297.571 26.1187C297.551 26.4397 297.671 26.3745 297.798 26.2173C297.798 26.1452 297.798 26.073 297.798 26.0007Z" fill="white"/>
</g>
<g style="mix-blend-mode:multiply">
<path d="M297.845 27.6239C297.617 27.3488 297.513 28.0159 297.513 28.0926C297.513 28.3327 297.546 28.5752 297.539 28.8145C297.515 29.5681 297.774 30.6907 297.315 31.361C297.314 31.3621 297.313 31.3632 297.312 31.3642C297.348 31.3532 297.382 31.3397 297.416 31.324C297.907 31.0862 297.783 30.4058 297.788 29.9529C297.795 29.1756 297.799 28.3981 297.799 27.6201C297.814 27.6223 297.83 27.6223 297.845 27.6239Z" fill="white"/>
</g>
<path d="M307.677 21.9694C307.541 21.8426 307.364 21.7696 307.178 21.764C306.992 21.7584 306.811 21.8205 306.667 21.9389C305.9 22.47 305.43 23.8198 305.082 24.6434C304.914 25.0428 304.769 25.4511 304.646 25.8662C304.094 27.6958 303.184 29.6001 302.722 31.4562C302.58 32.0279 303.886 32.5019 304.208 31.9133C304.865 30.7132 304.988 29.914 305.481 28.6605C305.517 28.5588 307.72 28.584 307.988 28.6076C308.118 28.6194 308.25 28.606 308.375 28.5681C308.502 28.9263 308.633 29.2832 308.762 29.6406C309.041 30.4143 309.101 31.2945 309.69 31.8838C310.228 32.4221 311.279 32.2048 311.466 31.5518C311.66 30.8761 311.188 30.1782 310.922 29.605C310.612 28.9374 310.424 28.2636 310.18 27.5698C309.818 26.5376 309.377 25.5186 308.987 24.4867C308.68 23.672 308.378 22.544 307.677 21.9694ZM306.075 26.7464C306.314 26.0711 306.52 25.2178 306.889 24.5492C307.213 25.2167 307.482 25.9092 307.694 26.6201C307.206 26.756 306.616 26.728 306.075 26.7464Z" fill="white"/>
<g style="mix-blend-mode:multiply">
<path d="M306.889 24.5492C306.908 24.585 306.927 24.6265 306.946 24.6652C306.941 24.586 306.93 24.5074 306.911 24.4303C306.805 24.0208 306.573 24.3789 306.488 24.5604C306.138 25.3158 305.925 26.1274 305.859 26.9573C306.112 26.9038 306.361 26.8297 306.602 26.7358C306.425 26.739 306.247 26.7406 306.075 26.7464C306.314 26.0711 306.52 25.2173 306.889 24.5492Z" fill="white"/>
</g>
<g style="mix-blend-mode:multiply">
<path d="M304.99 29.0819C304.877 29.7442 304.484 30.3284 304.174 30.9255C303.991 31.2771 303.675 31.8292 303.31 32.1244C303.655 32.2335 304.05 32.2015 304.208 31.9125C304.866 30.7124 304.988 29.9133 305.481 28.6597C305.504 28.5961 306.375 28.5822 307.09 28.5866C306.316 28.2589 305.166 28.0548 304.99 29.0819Z" fill="white"/>
</g>
<g style="mix-blend-mode:multiply">
<path d="M310.922 29.6042C310.612 28.9367 310.425 28.2629 310.181 27.5691C309.818 26.5376 309.377 25.5186 308.987 24.4867C308.68 23.672 308.378 22.544 307.677 21.9694C307.541 21.8426 307.364 21.7696 307.178 21.764C306.992 21.7584 306.811 21.8205 306.667 21.9389C306.577 22.0025 306.493 22.0741 306.415 22.1529C307.666 22.3276 308.588 25.6544 308.881 26.4176C309.473 27.9604 310.447 29.4599 310.628 31.1297C310.677 31.4813 310.656 31.839 310.567 32.1826C310.977 32.1503 311.36 31.9206 311.467 31.551C311.661 30.8754 311.189 30.1768 310.922 29.6042Z" fill="white"/>
</g>
<path d="M328.457 22.9317C328.008 22.2695 327.041 22.5208 326.442 22.5474C325.566 22.5862 324.745 22.5402 323.869 22.5495C323.12 22.5575 322.033 22.4295 321.311 22.7279C321.046 22.838 321.067 23.3771 321.189 23.6959C321.379 24.1869 321.921 24.0637 322.282 24.0681C322.863 24.0752 323.444 24.0791 324.027 24.0798C324.034 24.4662 324.082 24.8515 324.092 25.1595C324.131 26.2592 324.085 27.2884 324.095 28.389C324.103 29.3295 323.975 30.6936 324.273 31.599C324.383 31.9327 324.922 31.9064 325.241 31.7518C325.732 31.514 325.609 30.8336 325.613 30.3807C325.626 29.038 325.63 27.6947 325.623 26.3509C325.621 25.7059 325.666 24.8453 325.669 24.0798C326.365 24.0885 327.295 24.1586 327.949 24.1036C328.273 24.0756 328.858 23.524 328.457 22.9317Z" fill="white"/>
<g style="mix-blend-mode:multiply">
<path d="M324.045 24.4531C324.145 24.266 324.182 24.0831 324.046 23.9761C323.686 23.6941 323.178 23.8441 322.764 23.8632C322.365 23.8869 321.965 23.8749 321.568 23.8274C321.448 23.812 321.329 23.7853 321.214 23.7478C321.421 24.1758 321.935 24.0639 322.282 24.0688C322.863 24.0758 323.445 24.0797 324.027 24.0804C324.029 24.2056 324.037 24.33 324.045 24.4531Z" fill="white"/>
</g>
<g style="mix-blend-mode:multiply">
<path d="M328.457 22.9317C328.371 22.8104 328.26 22.7091 328.131 22.6349C328.002 22.5607 327.859 22.5152 327.711 22.5017C327.778 22.5575 327.84 22.62 327.895 22.6885C328.099 22.9427 328.241 23.468 327.905 23.6869C327.459 23.9774 326.819 23.9025 326.312 23.8844C326.015 23.8618 325.716 23.8547 325.418 23.8632C325.208 23.8785 325.267 24.5269 325.268 24.634C325.275 25.1767 325.31 25.7172 325.336 26.2589C325.393 27.4585 325.233 28.6461 325.266 29.8437C325.283 30.4715 325.446 31.3219 324.993 31.835C325.079 31.8172 325.162 31.7892 325.241 31.7518C325.732 31.514 325.609 30.8336 325.614 30.3807C325.627 29.038 325.63 27.6948 325.623 26.3509C325.621 25.7059 325.666 24.8453 325.669 24.0798C326.366 24.0885 327.295 24.1587 327.95 24.1036C328.273 24.0756 328.858 23.524 328.457 22.9317Z" fill="white"/>
</g>
</g>
<g clip-path="url(#clip1_349_261)">
<path d="M146.387 10.0531L139.588 32H147.504L154.303 10.0531H146.387Z" fill="#444444"/>
<path d="M191.277 19.7463L196.679 32H189.228L184.665 22.3068L181.591 32H173.675L180.38 10.4189H188.297L186.341 16.8201L194.164 10.4189H202.826L191.277 19.7463Z" fill="#444444"/>
<path d="M226.947 12.2478C226.78 11.7593 226.492 11.3193 226.109 10.9676C225.927 10.7873 225.709 10.6456 225.468 10.5513C225.228 10.4569 224.971 10.4119 224.712 10.4189H206.178L204.502 15.7227H219.124L218.286 18.5575H207.11C206.522 18.5804 205.948 18.7369 205.433 19.0148C204.831 19.3833 204.269 19.8123 203.757 20.295C203.213 20.8095 202.743 21.3939 202.36 22.0324C201.976 22.6033 201.663 23.2173 201.429 23.8614L200.59 26.6962C200.4 27.2876 200.306 27.9048 200.311 28.5251C200.305 29.1154 200.4 29.7026 200.59 30.2625C200.757 30.751 201.045 31.191 201.429 31.5428C201.616 31.7099 201.838 31.8368 202.078 31.9155C202.319 31.9942 202.573 32.023 202.826 32H221.918L226.947 15.7227C227.138 15.1313 227.232 14.5141 227.227 13.8938C227.225 13.3339 227.13 12.778 226.947 12.2478M215.771 26.6962H208.6L209.438 23.8614H216.609L215.771 26.6962Z" fill="#444444"/>
<path d="M176.562 10.4189L174.886 15.7227H167.062L162.033 32H154.117L159.146 15.7227C159.798 12.9793 162.033 10.6932 164.361 10.4189H176.562V10.4189Z" fill="#444444"/>
<path d="M248.554 10.4189L246.878 15.7227H239.054L234.025 32H226.109L231.138 15.7227C231.79 12.9793 234.025 10.6932 236.354 10.4189H248.554V10.4189Z" fill="#444444"/>
<path d="M252 1L249.951 7.58408H233.932L235.981 1H252Z" fill="#FACF9C"/>
<path d="M235.981 1L233.932 7.58408H206.271L208.32 1H235.981Z" fill="#F6A647"/>
<path d="M208.32 1L206.272 7.58408H169.484L171.533 1H208.32Z" fill="#F28400"/>
<path d="M136.049 1L134 7.58408H166.597L168.552 1H136.049Z" fill="#444444"/>
</g>
<defs>
<clipPath id="clip0_349_261">
<rect width="85.388" height="11.187" fill="white" transform="translate(251 21)"/>
</clipPath>
<clipPath id="clip1_349_261">
<rect width="118" height="31" fill="white" transform="translate(134 1)"/>
</clipPath>
</defs>
</svg>
