<svg width="48" height="48" viewBox="0 0 48 48" fill="none" xmlns="http://www.w3.org/2000/svg">
<rect x="48" y="48" width="48" height="48" transform="rotate(-180 48 48)" fill="white"/>
<path d="M18.8033 27.1825L17.7427 28.2431L13.5 24.0005L17.7427 19.7578L18.8033 20.8185L16.3713 23.2505H27V24.7505H16.3713L18.8033 27.1825Z" fill="black"/>
<path d="M17.6489 30.364C19.3486 32.0639 21.6085 33 24.0124 33C26.4165 33 28.6767 32.0639 30.3767 30.364C32.0767 28.6641 33 26.404 33 24C33 21.5962 32.0767 19.3362 30.3766 17.6362C28.6766 15.9362 26.4164 15 24.0124 15C21.6087 15 19.3487 15.9362 17.6489 17.6362C17.531 17.7543 17.4164 17.8756 17.3051 18L15.3959 18C17.2931 15.2799 20.4447 13.5 24.0124 13.5C29.8115 13.5 34.5 18.2015 34.5 24C34.5 29.7991 29.8115 34.5 24.0124 34.5C20.4446 34.5 17.2928 32.7202 15.3957 30H17.3049C17.4162 30.1245 17.5309 30.2459 17.6489 30.364Z" fill="black"/>
</svg>
