<svg width="42" height="42" viewBox="0 0 42 42" fill="none" xmlns="http://www.w3.org/2000/svg">
<path d="M12.298 26.2348L10.5164 27.9887L3.50096 20.8624L10.6272 13.8469L12.3811 15.6285L8.29615 19.6499L26.0101 19.7887L25.9905 22.2886L8.27657 22.1498L12.298 26.2348Z" fill="#D20000"/>
<path d="M10.3322 31.5235C13.1429 34.3787 16.897 35.9684 20.9033 35.9998C24.91 36.0312 28.6892 34.5005 31.5446 31.6896C34.4 28.8788 35.9683 25.1241 35.9997 21.1176C36.0311 17.1114 34.5218 13.3327 31.7107 10.4773C28.8996 7.62193 25.1449 6.03208 21.1383 6.00069C17.1322 5.96931 13.3536 7.50014 10.4983 10.3111C10.3004 10.5064 10.1078 10.7071 9.92072 10.913L6.73871 10.888C9.93615 6.37951 15.212 3.45418 21.1579 3.50077C30.8228 3.57648 38.5753 11.4732 38.4996 21.1372C38.4239 30.8021 30.5486 38.5754 20.8837 38.4997C14.9376 38.4531 9.70806 35.4456 6.5818 30.8874L9.76373 30.9123C9.94758 31.1212 10.1371 31.325 10.3322 31.5235Z" fill="#D20000"/>
</svg>
