<svg width="48" height="48" viewBox="0 0 48 48" fill="none" xmlns="http://www.w3.org/2000/svg">
<path d="M33.4875 22.0125C33.9 21.825 34.125 21.4125 34.125 21V18C34.125 17.3625 33.6375 16.875 33 16.875H15C14.3625 16.875 13.875 17.3625 13.875 18V20.925C13.875 21.375 14.1375 21.75 14.55 21.9375C15.3375 22.3125 15.8625 23.1 15.8625 24C15.8625 24.9 15.375 25.6875 14.55 26.0625C14.1375 26.25 13.875 26.625 13.875 27.075V30C13.875 30.6375 14.3625 31.125 15 31.125H33C33.6375 31.125 34.125 30.6375 34.125 30V27.0375C34.125 26.625 33.8625 26.2125 33.4875 26.025C32.7375 25.65 32.25 24.8625 32.25 24.0375C32.25 23.2125 32.7375 22.3875 33.4875 22.0125ZM31.5 24C31.5 25.125 32.1375 26.175 33.15 26.6625C33.3 26.7375 33.375 26.8875 33.375 27V30C33.375 30.225 33.225 30.375 33 30.375H15C14.775 30.375 14.625 30.225 14.625 30V27.075C14.625 26.925 14.7375 26.775 14.8875 26.7375C15.975 26.25 16.65 25.1625 16.65 24C16.65 22.8375 15.975 21.75 14.8875 21.2625C14.7375 21.1875 14.625 21.075 14.625 20.925V18C14.625 17.775 14.775 17.625 15 17.625H33C33.225 17.625 33.375 17.775 33.375 18V20.9625C33.375 21.1125 33.3 21.225 33.15 21.3C32.1375 21.825 31.5 22.875 31.5 24Z" fill="#231F20"/>
<path d="M26.625 24.75C25.575 24.75 24.75 25.575 24.75 26.625C24.75 27.675 25.575 28.5 26.625 28.5C27.675 28.5 28.5 27.675 28.5 26.625C28.5 25.575 27.675 24.75 26.625 24.75ZM26.625 27.75C25.9875 27.75 25.5 27.2625 25.5 26.625C25.5 25.9875 25.9875 25.5 26.625 25.5C27.2625 25.5 27.75 25.9875 27.75 26.625C27.75 27.2625 27.2625 27.75 26.625 27.75ZM21.375 23.25C22.425 23.25 23.25 22.425 23.25 21.375C23.25 20.325 22.425 19.5 21.375 19.5C20.325 19.5 19.5 20.325 19.5 21.375C19.5 22.425 20.325 23.25 21.375 23.25ZM21.375 20.25C22.0125 20.25 22.5 20.7375 22.5 21.375C22.5 22.0125 22.0125 22.5 21.375 22.5C20.7375 22.5 20.25 22.0125 20.25 21.375C20.25 20.7375 20.7375 20.25 21.375 20.25ZM28.125 20.9625C28.125 20.6625 28.0125 20.4 27.7875 20.175C27.375 19.7625 26.6625 19.7625 26.25 20.175L20.2125 26.25C20.025 26.4375 19.875 26.7375 19.875 27.0375C19.875 27.3375 19.9875 27.6 20.2125 27.825C20.4375 28.05 20.7 28.1625 21 28.1625C21.2625 28.1625 21.5625 28.05 21.7875 27.825L27.7875 21.75C28.0125 21.525 28.125 21.2625 28.125 20.9625ZM27.2625 21.1875L21.1875 27.2625C21.0375 27.4125 20.85 27.4125 20.7 27.2625C20.625 27.1875 20.5875 27.1125 20.5875 27.0375C20.5875 26.9625 20.625 26.85 20.7 26.8125L26.775 20.7375C26.85 20.6625 26.925 20.625 27 20.625C27.075 20.625 27.1875 20.6625 27.225 20.7375C27.3 20.8125 27.3375 20.8875 27.3375 20.9625C27.3375 21.0375 27.3375 21.15 27.2625 21.1875Z" fill="#231F20"/>
</svg>
