<svg width="48" height="48" viewBox="0 0 48 48" fill="none" xmlns="http://www.w3.org/2000/svg">
<path d="M30.2917 24.1257L29.7005 17.6937C29.6738 17.4042 29.431 17.1826 29.1403 17.1826H25.7055V15.8758C25.7055 13.842 24.0509 12.1875 22.0172 12.1875C19.9835 12.1875 18.3289 13.842 18.3289 15.8758V17.1826H14.894C14.6032 17.1826 14.3604 17.4041 14.3338 17.6936L13.1118 30.9892C13.0645 31.5037 13.2236 31.9773 13.5717 32.3589C13.92 32.7406 14.377 32.9423 14.8936 32.9423H23.9092C24.9457 34.6608 26.8306 35.8125 28.9796 35.8125C32.2421 35.8125 34.8964 33.1582 34.8964 29.8957C34.8964 27.084 32.9249 24.7242 30.2917 24.1257ZM19.4539 15.8758C19.4539 14.4624 20.6038 13.3125 22.0172 13.3125C23.4306 13.3125 24.5805 14.4624 24.5805 15.8758V17.1826H19.4539V15.8758ZM14.8936 31.8173C14.6936 31.8173 14.5377 31.7485 14.4029 31.6007C14.268 31.4529 14.2138 31.2913 14.2321 31.0921L15.4072 18.3076H18.3289V19.3332C18.3289 19.6439 18.5807 19.8957 18.8914 19.8957C19.202 19.8957 19.4539 19.6439 19.4539 19.3332V18.3076H24.5805V19.3332C24.5805 19.6439 24.8324 19.8957 25.143 19.8957C25.4537 19.8957 25.7055 19.6439 25.7055 19.3332V18.3076H28.6272L29.1487 23.9814C29.0925 23.9798 29.0362 23.9789 28.9796 23.9789C25.7171 23.9789 23.0628 26.6332 23.0628 29.8957C23.0628 30.5681 23.1757 31.2145 23.3834 31.8173H14.8936ZM28.9796 34.6875C26.3373 34.6875 24.1877 32.5379 24.1877 29.8957C24.1877 27.2534 26.3373 25.1038 28.9796 25.1038C31.6218 25.1038 33.7714 27.2534 33.7714 29.8957C33.7714 32.5379 31.6218 34.6875 28.9796 34.6875ZM31.623 28.1316C31.8378 28.356 31.8301 28.7121 31.6057 28.9269L28.7334 31.677C28.6247 31.781 28.4846 31.8332 28.3444 31.8332C28.208 31.8332 28.0716 31.7839 27.9639 31.685L26.362 30.2138C26.1332 30.0037 26.118 29.6479 26.3282 29.4191C26.5383 29.1902 26.8942 29.1751 27.123 29.3852L28.3364 30.4996L30.8277 28.1143C31.0521 27.8995 31.4081 27.9072 31.623 28.1316Z" fill="black"/>
</svg>
