<svg width="66" height="21" viewBox="0 0 66 21" fill="none" xmlns="http://www.w3.org/2000/svg">
<g clip-path="url(#clip0_212_2841)">
<path d="M0.971889 16.9991L0.506836 11.1387C0.506836 11.1387 3.20441 8.53416 7.57643 7.23188C11.9485 5.9296 23.762 4.62726 23.762 4.62726C23.762 4.62726 31.8549 0.534338 34.7385 0.255308C37.6222 -0.0237227 43.2035 -0.581919 51.4823 1.9297C59.7612 4.44131 61.9936 4.44124 61.9936 4.44124L64.4122 4.0692L64.6913 6.20864C64.6913 6.20864 65.9005 6.95279 65.9005 8.72025C65.9005 10.4877 65.2495 15.6035 65.2495 15.6035L61.1565 16.3477C61.1565 16.3477 51.2039 17.2223 37.4362 17.4641C10.9252 17.9293 0.971889 16.9991 0.971889 16.9991Z" fill="#2B2A25"/>
<path d="M64.6913 6.20862L64.4122 4.06918L61.9936 4.44122C61.9936 4.44122 59.7612 4.44122 51.4823 1.92968C43.2035 -0.581869 37.6221 -0.0237414 34.7385 0.255289C31.8549 0.534319 23.762 4.62731 23.762 4.62731C23.762 4.62731 11.9484 5.92958 7.57643 7.23186C3.20448 8.53414 0.506836 11.1387 0.506836 11.1387L0.971889 16.9991C0.971889 16.9991 2.46615 17.1387 5.83752 17.2826C4.96932 16.2279 4.49498 14.904 4.4958 13.5379C4.4958 10.2413 7.2098 7.56891 10.5577 7.56891C13.9057 7.56891 16.6198 10.2413 16.6198 13.5379C16.6198 13.5454 16.6198 13.5528 16.6194 13.5605C16.6194 13.5655 16.6198 13.5705 16.6198 13.5754C16.6198 15.1068 16.0886 16.4917 15.1844 17.5362C20.7159 17.6184 28.0345 17.6291 37.4362 17.4642C42.5158 17.3752 47.0759 17.1997 50.8086 17.014C50.0708 16.0052 49.6737 14.7876 49.6748 13.5379C49.6748 10.2413 52.3888 7.56891 55.7368 7.56891C59.0847 7.56891 61.7988 10.2413 61.7988 13.5379C61.7988 13.5454 61.7988 13.5528 61.7988 13.5605C61.7988 13.5655 61.7988 13.5705 61.7988 13.5754C61.8036 14.5371 61.5836 15.4865 61.1561 16.348L65.2491 15.6038C65.2491 15.6038 65.9002 10.4876 65.9002 8.7205C65.9002 6.95345 64.6913 6.20862 64.6913 6.20862Z" fill="#FFA000"/>
<path d="M61.3492 14.6347C61.8933 11.5931 59.8686 8.68637 56.827 8.14234C53.7854 7.59832 50.8787 9.623 50.3347 12.6646C49.7906 15.7062 51.8153 18.6129 54.8569 19.1569C57.8985 19.7009 60.8052 17.6763 61.3492 14.6347Z" fill="#777464"/>
<path d="M57.9511 8.49805C59.5781 9.47705 61.0132 11.0925 61.0906 13.128C61.1964 15.9156 59.9483 19.0771 55.2332 18.9501C54.4564 18.9221 53.6897 18.7646 52.9648 18.4839C53.8066 18.9903 55.0264 19.2324 56.0801 19.2324C59.171 19.2324 61.4429 16.776 61.4429 13.6846C61.4428 12.5708 61.1105 11.4824 60.4885 10.5585C59.8665 9.63455 58.983 8.91716 57.9511 8.49805Z" fill="#424038"/>
<path d="M55.8461 17.0637C57.7314 17.0637 59.2598 15.5354 59.2598 13.65C59.2598 11.7647 57.7314 10.2363 55.8461 10.2363C53.9607 10.2363 52.4324 11.7647 52.4324 13.65C52.4324 15.5354 53.9607 17.0637 55.8461 17.0637Z" fill="#B7B29E"/>
<path d="M58.8973 14.3728C59.2956 12.6876 58.2525 10.9987 56.5674 10.6003C54.8823 10.202 53.1933 11.2452 52.795 12.9303C52.3966 14.6154 53.4398 16.3044 55.1249 16.7027C56.81 17.101 58.499 16.0579 58.8973 14.3728Z" fill="#969283"/>
<path d="M55.8462 15.873C57.0738 15.873 58.069 14.8778 58.069 13.6501C58.069 12.4225 57.0738 11.4272 55.8462 11.4272C54.6185 11.4272 53.6233 12.4225 53.6233 13.6501C53.6233 14.8778 54.6185 15.873 55.8462 15.873Z" fill="#777464"/>
<path d="M56.1676 15.1283C56.1676 15.2135 56.1338 15.2952 56.0735 15.3555C56.0132 15.4158 55.9315 15.4497 55.8463 15.4497V15.4497C55.761 15.4497 55.6793 15.4158 55.619 15.3555C55.5588 15.2952 55.5249 15.2135 55.5249 15.1283V12.1719C55.5249 12.1297 55.5332 12.0879 55.5494 12.0489C55.5655 12.0099 55.5892 11.9745 55.619 11.9447C55.6489 11.9148 55.6843 11.8912 55.7233 11.875C55.7623 11.8589 55.8041 11.8506 55.8463 11.8506V11.8506C55.9315 11.8506 56.0132 11.8844 56.0735 11.9447C56.1337 12.0049 56.1676 12.0867 56.1676 12.1719V15.1283Z" fill="#969283"/>
<path d="M57.3245 13.2964C57.4097 13.2964 57.4914 13.3303 57.5517 13.3905C57.6119 13.4508 57.6458 13.5325 57.6458 13.6177V13.6177C57.6458 13.6599 57.6375 13.7017 57.6213 13.7407C57.6052 13.7797 57.5815 13.8151 57.5517 13.8449C57.5219 13.8748 57.4864 13.8985 57.4475 13.9146C57.4085 13.9308 57.3667 13.9391 57.3245 13.9391H54.3677C54.2825 13.9391 54.2008 13.9052 54.1405 13.8449C54.0802 13.7847 54.0464 13.7029 54.0464 13.6177V13.6177C54.0464 13.5325 54.0803 13.4507 54.1405 13.3905C54.2008 13.3302 54.2825 13.2964 54.3677 13.2964H57.3245Z" fill="#969283"/>
<path d="M57.1301 14.4791C57.1904 14.5394 57.2242 14.6211 57.2242 14.7063C57.2242 14.7915 57.1904 14.8732 57.1301 14.9335V14.9335C57.1003 14.9634 57.0648 14.987 57.0259 15.0032C56.9869 15.0194 56.9451 15.0277 56.9029 15.0277C56.8606 15.0277 56.8189 15.0194 56.7799 15.0032C56.7409 14.987 56.7054 14.9634 56.6756 14.9335L54.5851 12.843C54.5248 12.7828 54.491 12.701 54.491 12.6158C54.491 12.5306 54.5248 12.4489 54.5851 12.3886C54.6149 12.3587 54.6503 12.3351 54.6893 12.3189C54.7283 12.3027 54.7701 12.2944 54.8123 12.2944C54.8545 12.2944 54.8963 12.3027 54.9353 12.3189C54.9743 12.3351 55.0097 12.3587 55.0395 12.3886L57.1301 14.4791Z" fill="#969283"/>
<path d="M56.6529 12.3661C56.7132 12.3058 56.7949 12.272 56.8802 12.272C56.9654 12.272 57.0471 12.3058 57.1074 12.3661V12.3661C57.1677 12.4264 57.2015 12.5081 57.2015 12.5933C57.2015 12.6786 57.1677 12.7603 57.1074 12.8206L55.0169 14.9111C54.9566 14.9713 54.8749 15.0052 54.7896 15.0052C54.7044 15.0052 54.6226 14.9713 54.5624 14.9111V14.9111C54.5021 14.8508 54.4683 14.7691 54.4683 14.6838C54.4683 14.5986 54.5021 14.5169 54.5624 14.4566L56.6529 12.3661Z" fill="#969283"/>
<path d="M57.1314 13.65C57.1314 13.9042 57.056 14.1527 56.9148 14.3641C56.7735 14.5755 56.5728 14.7402 56.3379 14.8375C56.1031 14.9348 55.8447 14.9602 55.5953 14.9106C55.346 14.861 55.117 14.7386 54.9372 14.5589C54.7575 14.3791 54.6351 14.1501 54.5855 13.9008C54.5359 13.6515 54.5613 13.393 54.6586 13.1582C54.7559 12.9233 54.9206 12.7226 55.132 12.5814C55.3434 12.4401 55.5919 12.3647 55.8461 12.3647C56.0149 12.3647 56.182 12.398 56.3379 12.4626C56.4939 12.5272 56.6356 12.6218 56.7549 12.7412C56.8743 12.8605 56.969 13.0022 57.0336 13.1582C57.0981 13.3141 57.1314 13.4812 57.1314 13.65V13.65Z" fill="#969283"/>
<path opacity="0.4" d="M50.7784 13.3757L51.2548 13.0051C51.2548 13.0051 51.3077 11.2586 53.0279 9.96176C54.5987 8.77763 56.5209 8.98235 56.5209 8.98235L56.7058 8.61188C56.7058 8.61188 54.2975 8.3208 52.6306 9.67048C50.6231 11.296 50.7784 13.3757 50.7784 13.3757Z" fill="#969283"/>
<path d="M55.8463 12.2839C55.9303 12.2839 55.9985 12.2157 55.9985 12.1317C55.9985 12.0476 55.9303 11.9795 55.8463 11.9795C55.7622 11.9795 55.6941 12.0476 55.6941 12.1317C55.6941 12.2157 55.7622 12.2839 55.8463 12.2839Z" fill="#B7B29E"/>
<path d="M57.0569 12.555C57.0569 12.5851 57.048 12.6145 57.0312 12.6395C57.0145 12.6645 56.9908 12.684 56.963 12.6955C56.9352 12.707 56.9046 12.71 56.8751 12.7041C56.8456 12.6983 56.8185 12.6837 56.7972 12.6625C56.7759 12.6412 56.7615 12.6141 56.7556 12.5846C56.7497 12.555 56.7528 12.5245 56.7643 12.4967C56.7758 12.4689 56.7953 12.4451 56.8203 12.4284C56.8454 12.4117 56.8748 12.4028 56.9049 12.4028C56.9249 12.4028 56.9446 12.4068 56.9631 12.4144C56.9815 12.4221 56.9983 12.4333 57.0124 12.4474C57.0265 12.4616 57.0377 12.4783 57.0454 12.4968C57.053 12.5153 57.0569 12.535 57.0569 12.555V12.555Z" fill="#B7B29E"/>
<path d="M57.5599 13.6267C57.5599 13.6568 57.5509 13.6862 57.5342 13.7112C57.5175 13.7362 57.4938 13.7558 57.466 13.7673C57.4382 13.7788 57.4076 13.7818 57.3781 13.7759C57.3486 13.7701 57.3215 13.7556 57.3002 13.7343C57.2789 13.713 57.2644 13.686 57.2585 13.6565C57.2527 13.627 57.2557 13.5964 57.2672 13.5686C57.2787 13.5408 57.2982 13.517 57.3232 13.5003C57.3482 13.4836 57.3776 13.4746 57.4077 13.4746C57.448 13.4746 57.4867 13.4906 57.5153 13.5192C57.5438 13.5477 57.5598 13.5864 57.5599 13.6267V13.6267Z" fill="#B7B29E"/>
<path d="M57.11 14.7782C57.11 14.8083 57.1011 14.8377 57.0844 14.8627C57.0677 14.8877 57.0439 14.9072 57.0161 14.9188C56.9883 14.9303 56.9577 14.9333 56.9282 14.9274C56.8986 14.9215 56.8715 14.9071 56.8502 14.8858C56.829 14.8645 56.8145 14.8374 56.8086 14.8078C56.8027 14.7783 56.8057 14.7477 56.8172 14.7199C56.8288 14.6921 56.8483 14.6683 56.8733 14.6516C56.8983 14.6349 56.9278 14.626 56.9579 14.626C56.9982 14.626 57.0369 14.642 57.0655 14.6705C57.094 14.6991 57.11 14.7378 57.11 14.7782V14.7782Z" fill="#B7B29E"/>
<path d="M55.9853 15.1751C55.9853 15.2052 55.9764 15.2347 55.9596 15.2597C55.9429 15.2847 55.9191 15.3042 55.8913 15.3157C55.8635 15.3273 55.8329 15.3303 55.8034 15.3244C55.7739 15.3185 55.7468 15.304 55.7255 15.2827C55.7042 15.2615 55.6897 15.2343 55.6838 15.2048C55.678 15.1753 55.681 15.1447 55.6925 15.1169C55.704 15.0891 55.7235 15.0653 55.7485 15.0486C55.7736 15.0319 55.803 15.0229 55.8331 15.0229C55.8531 15.0229 55.8729 15.0269 55.8913 15.0345C55.9098 15.0422 55.9266 15.0534 55.9407 15.0675C55.9549 15.0816 55.9661 15.0984 55.9737 15.1169C55.9814 15.1354 55.9853 15.1552 55.9853 15.1751V15.1751Z" fill="#B7B29E"/>
<path d="M54.9267 14.7122C54.9267 14.7423 54.9178 14.7718 54.901 14.7968C54.8843 14.8218 54.8605 14.8413 54.8327 14.8528C54.8049 14.8644 54.7743 14.8674 54.7448 14.8615C54.7153 14.8556 54.6882 14.8411 54.6669 14.8199C54.6456 14.7986 54.6311 14.7715 54.6252 14.7419C54.6194 14.7124 54.6224 14.6818 54.6339 14.654C54.6454 14.6262 54.6649 14.6024 54.69 14.5857C54.715 14.569 54.7444 14.5601 54.7745 14.5601C54.8149 14.5601 54.8536 14.5761 54.8821 14.6046C54.9107 14.6332 54.9267 14.6719 54.9267 14.7122Z" fill="#B7B29E"/>
<path d="M54.5032 13.64C54.5032 13.6701 54.4943 13.6995 54.4775 13.7245C54.4608 13.7495 54.4371 13.769 54.4093 13.7805C54.3815 13.792 54.3509 13.795 54.3214 13.7891C54.2919 13.7832 54.2648 13.7687 54.2435 13.7475C54.2223 13.7262 54.2078 13.6991 54.2019 13.6696C54.196 13.6401 54.199 13.6095 54.2105 13.5817C54.222 13.5539 54.2415 13.5302 54.2665 13.5135C54.2915 13.4967 54.3209 13.4878 54.351 13.4878C54.371 13.4878 54.3908 13.4917 54.4093 13.4994C54.4277 13.507 54.4445 13.5182 54.4587 13.5323C54.4728 13.5465 54.484 13.5633 54.4916 13.5817C54.4993 13.6002 54.5032 13.62 54.5032 13.64Z" fill="#B7B29E"/>
<path d="M54.9267 12.555C54.9267 12.5851 54.9178 12.6145 54.901 12.6396C54.8843 12.6646 54.8605 12.6841 54.8327 12.6956C54.8049 12.7071 54.7743 12.7101 54.7448 12.7043C54.7153 12.6984 54.6882 12.6839 54.6669 12.6626C54.6456 12.6413 54.6311 12.6142 54.6252 12.5847C54.6194 12.5552 54.6224 12.5246 54.6339 12.4968C54.6454 12.469 54.6649 12.4452 54.69 12.4285C54.715 12.4118 54.7444 12.4028 54.7745 12.4028C54.7945 12.4028 54.8143 12.4067 54.8328 12.4144C54.8512 12.422 54.868 12.4333 54.8821 12.4474C54.8963 12.4615 54.9075 12.4783 54.9151 12.4968C54.9228 12.5152 54.9267 12.535 54.9267 12.555Z" fill="#B7B29E"/>
<path d="M55.8461 14.3558C56.2359 14.3558 56.5518 14.0398 56.5518 13.6501C56.5518 13.2603 56.2359 12.9443 55.8461 12.9443C55.4563 12.9443 55.1404 13.2603 55.1404 13.6501C55.1404 14.0398 55.4563 14.3558 55.8461 14.3558Z" fill="#B7B29E"/>
<path d="M16.14 13.9834C16.2213 10.8934 13.7822 8.32257 10.6921 8.24133C7.60213 8.16009 5.03131 10.5992 4.95007 13.6892C4.86884 16.7792 7.30793 19.35 10.398 19.4313C13.488 19.5125 16.0588 17.0734 16.14 13.9834Z" fill="#777464"/>
<path d="M12.6503 8.68457C14.2774 9.66357 15.7125 11.2791 15.7898 13.3145C15.8956 16.1021 14.6476 19.2636 9.9324 19.1366C9.15559 19.1087 8.38892 18.9511 7.66406 18.6704C8.50574 19.1769 9.72563 19.4189 10.7792 19.4189C13.8703 19.4189 16.142 16.9625 16.142 13.8712C16.142 12.7574 15.8097 11.669 15.1877 10.745C14.5657 9.82111 13.6822 9.1037 12.6503 8.68457V8.68457Z" fill="#424038"/>
<path d="M10.5451 17.2503C12.4304 17.2503 13.9588 15.7219 13.9588 13.8366C13.9588 11.9512 12.4304 10.4229 10.5451 10.4229C8.65971 10.4229 7.13135 11.9512 7.13135 13.8366C7.13135 15.7219 8.65971 17.2503 10.5451 17.2503Z" fill="#B7B29E"/>
<path d="M12.7625 16.0538C13.9871 14.8292 13.9871 12.8437 12.7625 11.6191C11.5378 10.3944 9.55234 10.3944 8.32772 11.6191C7.1031 12.8437 7.1031 14.8292 8.32772 16.0538C9.55234 17.2784 11.5378 17.2784 12.7625 16.0538Z" fill="#969283"/>
<path d="M11.3958 15.89C12.53 15.4202 13.0686 14.1199 12.5988 12.9857C12.129 11.8515 10.8287 11.3128 9.69452 11.7826C8.56032 12.2525 8.02172 13.5528 8.49152 14.687C8.96132 15.8212 10.2616 16.3598 11.3958 15.89Z" fill="#777464"/>
<path d="M10.8666 15.3144C10.8666 15.3996 10.8327 15.4813 10.7725 15.5416C10.7122 15.6019 10.6305 15.6357 10.5452 15.6357V15.6357C10.46 15.6357 10.3783 15.6019 10.318 15.5416C10.2577 15.4813 10.2239 15.3996 10.2239 15.3144V12.358C10.2239 12.2728 10.2577 12.191 10.318 12.1307C10.3783 12.0705 10.46 12.0366 10.5452 12.0366C10.5874 12.0366 10.6292 12.0449 10.6682 12.0611C10.7072 12.0772 10.7426 12.1009 10.7725 12.1307C10.8023 12.1606 10.826 12.196 10.8421 12.235C10.8583 12.274 10.8666 12.3158 10.8666 12.358V15.3144Z" fill="#969283"/>
<path d="M12.0234 13.4824C12.1086 13.4824 12.1904 13.5163 12.2507 13.5765C12.3109 13.6368 12.3448 13.7186 12.3448 13.8038V13.8038C12.3448 13.889 12.3109 13.9707 12.2507 14.031C12.1904 14.0913 12.1086 14.1251 12.0234 14.1251H9.06703C8.9818 14.1251 8.90005 14.0913 8.83977 14.031C8.77949 13.9708 8.74562 13.889 8.74561 13.8038C8.74561 13.7616 8.75391 13.7198 8.77007 13.6808C8.78622 13.6418 8.8099 13.6064 8.83975 13.5765C8.86959 13.5467 8.90503 13.523 8.94403 13.5069C8.98303 13.4907 9.02482 13.4824 9.06703 13.4824H12.0234Z" fill="#969283"/>
<path d="M11.829 14.6655C11.8893 14.7258 11.9231 14.8076 11.9231 14.8928C11.9231 14.978 11.8893 15.0598 11.829 15.12C11.7688 15.1803 11.687 15.2141 11.6018 15.2141C11.5166 15.2141 11.4349 15.1803 11.3746 15.12L9.28405 13.0296C9.22379 12.9693 9.18994 12.8875 9.18994 12.8023C9.18994 12.7171 9.22379 12.6353 9.28405 12.5751V12.5751C9.34431 12.5148 9.42605 12.481 9.51127 12.481C9.59649 12.481 9.67822 12.5148 9.73848 12.5751L11.829 14.6655Z" fill="#969283"/>
<path d="M11.3519 12.5526C11.4121 12.4923 11.4939 12.4585 11.5791 12.4585C11.6643 12.4585 11.746 12.4923 11.8063 12.5526C11.8666 12.6129 11.9004 12.6946 11.9004 12.7799C11.9004 12.8651 11.8666 12.9468 11.8063 13.0071L9.71584 15.0976C9.65557 15.1578 9.57384 15.1917 9.48862 15.1917C9.4034 15.1917 9.32167 15.1578 9.2614 15.0976V15.0976C9.23155 15.0677 9.20786 15.0323 9.19171 14.9933C9.17555 14.9543 9.16724 14.9126 9.16724 14.8704C9.16724 14.8282 9.17555 14.7864 9.19171 14.7474C9.20786 14.7084 9.23155 14.673 9.2614 14.6431L11.3519 12.5526Z" fill="#969283"/>
<path d="M11.8306 13.8361C11.8306 14.0903 11.7552 14.3388 11.614 14.5501C11.4728 14.7615 11.272 14.9262 11.0372 15.0235C10.8023 15.1208 10.5439 15.1463 10.2946 15.0967C10.0452 15.0471 9.81621 14.9247 9.63646 14.7449C9.45671 14.5652 9.3343 14.3361 9.28471 14.0868C9.23511 13.8375 9.26057 13.5791 9.35785 13.3442C9.45513 13.1094 9.61987 12.9086 9.83123 12.7674C10.0426 12.6262 10.2911 12.5508 10.5453 12.5508C10.8862 12.5508 11.2131 12.6862 11.4541 12.9273C11.6952 13.1683 11.8306 13.4952 11.8306 13.8361V13.8361Z" fill="#969283"/>
<path opacity="0.4" d="M5.47741 13.5618L5.95383 13.1913C5.95383 13.1913 6.0067 11.4448 7.72684 10.1479C9.29767 8.96382 11.2199 9.16847 11.2199 9.16847L11.4048 8.79793C11.4048 8.79793 8.99652 8.50679 7.3296 9.85646C5.32186 11.4823 5.47741 13.5618 5.47741 13.5618Z" fill="#969283"/>
<path d="M10.6974 12.3177C10.6974 12.3478 10.6885 12.3772 10.6718 12.4023C10.6551 12.4273 10.6313 12.4468 10.6035 12.4583C10.5757 12.4698 10.5451 12.4729 10.5156 12.467C10.486 12.4611 10.4589 12.4466 10.4376 12.4253C10.4164 12.404 10.4019 12.3769 10.396 12.3474C10.3901 12.3179 10.3931 12.2873 10.4047 12.2595C10.4162 12.2317 10.4357 12.2079 10.4607 12.1912C10.4857 12.1745 10.5152 12.1655 10.5453 12.1655C10.5856 12.1655 10.6243 12.1816 10.6529 12.2101C10.6814 12.2386 10.6974 12.2774 10.6974 12.3177Z" fill="#B7B29E"/>
<path d="M11.7559 12.7416C11.7559 12.7717 11.7469 12.8011 11.7302 12.8261C11.7135 12.8511 11.6897 12.8706 11.6619 12.8821C11.6341 12.8935 11.6035 12.8965 11.574 12.8907C11.5445 12.8848 11.5174 12.8703 11.4962 12.849C11.4749 12.8277 11.4604 12.8006 11.4546 12.7711C11.4487 12.7416 11.4517 12.711 11.4633 12.6832C11.4748 12.6554 11.4943 12.6317 11.5193 12.615C11.5443 12.5983 11.5737 12.5894 11.6038 12.5894C11.6238 12.5894 11.6436 12.5933 11.662 12.601C11.6805 12.6086 11.6973 12.6198 11.7114 12.634C11.7255 12.6481 11.7367 12.6649 11.7444 12.6834C11.752 12.7018 11.7559 12.7216 11.7559 12.7416V12.7416Z" fill="#B7B29E"/>
<path d="M12.1065 13.9655C12.1906 13.9655 12.2587 13.8974 12.2587 13.8133C12.2587 13.7293 12.1906 13.6611 12.1065 13.6611C12.0225 13.6611 11.9543 13.7293 11.9543 13.8133C11.9543 13.8974 12.0225 13.9655 12.1065 13.9655Z" fill="#B7B29E"/>
<path d="M11.8088 14.9642C11.8088 14.9943 11.7998 15.0237 11.7831 15.0488C11.7664 15.0738 11.7426 15.0933 11.7148 15.1048C11.687 15.1163 11.6564 15.1193 11.6269 15.1135C11.5974 15.1076 11.5702 15.0931 11.549 15.0718C11.5277 15.0505 11.5132 15.0234 11.5073 14.9939C11.5014 14.9644 11.5045 14.9338 11.516 14.906C11.5275 14.8782 11.547 14.8544 11.572 14.8377C11.5971 14.8209 11.6265 14.812 11.6566 14.812C11.6766 14.812 11.6964 14.8159 11.7148 14.8236C11.7333 14.8312 11.7501 14.8424 11.7642 14.8566C11.7783 14.8707 11.7896 14.8875 11.7972 14.906C11.8048 14.9244 11.8088 14.9442 11.8088 14.9642V14.9642Z" fill="#B7B29E"/>
<path d="M10.6843 15.3612C10.6843 15.3913 10.6753 15.4207 10.6586 15.4457C10.6419 15.4707 10.6181 15.4903 10.5903 15.5018C10.5625 15.5133 10.5319 15.5163 10.5024 15.5104C10.4729 15.5046 10.4457 15.4901 10.4245 15.4688C10.4032 15.4475 10.3887 15.4204 10.3828 15.3909C10.3769 15.3613 10.3799 15.3307 10.3915 15.3029C10.403 15.2751 10.4225 15.2514 10.4475 15.2346C10.4725 15.2179 10.502 15.209 10.5321 15.209C10.5521 15.209 10.5719 15.2129 10.5903 15.2205C10.6088 15.2282 10.6256 15.2394 10.6397 15.2535C10.6538 15.2677 10.665 15.2844 10.6727 15.3029C10.6803 15.3214 10.6843 15.3412 10.6843 15.3612Z" fill="#B7B29E"/>
<path d="M9.62553 14.8983C9.62551 14.9284 9.61658 14.9578 9.59986 14.9828C9.58314 15.0078 9.55938 15.0273 9.53159 15.0388C9.50379 15.0503 9.47322 15.0533 9.44372 15.0474C9.41421 15.0415 9.38711 15.027 9.36584 15.0058C9.34457 14.9845 9.33009 14.9574 9.32422 14.9279C9.31834 14.8984 9.32135 14.8678 9.33285 14.84C9.34436 14.8122 9.36385 14.7885 9.38885 14.7718C9.41386 14.755 9.44326 14.7461 9.47334 14.7461C9.5137 14.7461 9.55241 14.7621 9.58095 14.7907C9.60949 14.8192 9.62553 14.8579 9.62553 14.8983V14.8983Z" fill="#B7B29E"/>
<path d="M9.20208 13.827C9.20208 13.8571 9.19315 13.8865 9.17643 13.9115C9.15971 13.9366 9.13594 13.9561 9.10813 13.9676C9.08032 13.9791 9.04972 13.9821 9.0202 13.9763C8.99068 13.9704 8.96357 13.9559 8.94228 13.9346C8.921 13.9133 8.9065 13.8862 8.90063 13.8567C8.89476 13.8272 8.89777 13.7966 8.90929 13.7688C8.92081 13.7409 8.94031 13.7172 8.96534 13.7005C8.99037 13.6837 9.01979 13.6748 9.04989 13.6748C9.09025 13.6748 9.12897 13.6908 9.15751 13.7194C9.18605 13.7479 9.20208 13.7866 9.20208 13.827Z" fill="#B7B29E"/>
<path d="M9.62553 12.7416C9.6255 12.7717 9.61656 12.8011 9.59983 12.8261C9.5831 12.8511 9.55934 12.8706 9.53155 12.882C9.50375 12.8935 9.47317 12.8965 9.44368 12.8907C9.41418 12.8848 9.38708 12.8703 9.36582 12.849C9.34456 12.8277 9.33008 12.8006 9.32421 12.7711C9.31834 12.7416 9.32136 12.7111 9.33286 12.6833C9.34437 12.6555 9.36386 12.6317 9.38886 12.615C9.41387 12.5983 9.44326 12.5894 9.47334 12.5894C9.49333 12.5894 9.51313 12.5933 9.5316 12.601C9.55006 12.6086 9.56684 12.6198 9.58097 12.634C9.59511 12.6481 9.60632 12.6649 9.61397 12.6834C9.62161 12.7018 9.62554 12.7216 9.62553 12.7416V12.7416Z" fill="#B7B29E"/>
<path d="M11.2414 13.9492C11.3037 13.5645 11.0424 13.2021 10.6577 13.1397C10.273 13.0774 9.91063 13.3387 9.84827 13.7234C9.78591 14.1081 10.0472 14.4705 10.4319 14.5328C10.8166 14.5952 11.179 14.3339 11.2414 13.9492Z" fill="#B7B29E"/>
<path d="M23.8618 4.58681C23.8618 4.58681 26.0193 5.51663 27.4325 5.55382C28.8457 5.59101 44.5044 5.07035 45.6203 4.69838C46.7361 4.32641 49.1537 2.61551 49.1537 2.61551C49.1537 2.61551 46.2526 1.3509 41.6777 0.978998C37.1028 0.607095 33.1232 0.532715 33.1232 0.532715C33.1232 0.532715 31.0031 0.979002 28.9575 2.02047C26.9119 3.06193 23.8618 4.58681 23.8618 4.58681Z" fill="#2B2A25"/>
<path d="M24.1995 4.42576C24.1995 4.42576 26.1572 5.18985 27.4851 5.22334C28.813 5.25683 43.5245 4.7876 44.5729 4.45233C45.6212 4.11707 47.8926 2.57522 47.8926 2.57522C47.8926 2.57522 45.1667 1.43554 40.8688 1.10035C36.5708 0.765155 32.6879 0.641113 32.6879 0.641113C31.3466 0.938408 30.0486 1.40503 28.825 2.02976C26.6834 3.11527 24.1995 4.42576 24.1995 4.42576Z" fill="black"/>
<path opacity="0.4" d="M33.5631 0.673828L25.9858 4.98756L27.2348 5.22508L35.2777 0.750537L33.5631 0.673828Z" fill="white"/>
<path opacity="0.4" d="M29.6335 5.18893L36.644 0.821289L37.0138 0.841831L31.0589 5.14988L29.6335 5.18893Z" fill="white"/>
<path d="M14.9717 6.5803L20.1808 10.3012C20.1808 10.3012 23.1575 8.81282 32.4596 7.78964C38.2397 7.15384 56.8311 5.83615 56.8311 5.83615L53.2963 4.62695C53.2963 4.62695 25.948 6.5803 25.6691 6.5803H14.9717Z" fill="black"/>
<path d="M49.2964 8.16189C49.0686 8.34818 47.5293 11.0453 45.4825 12.2548C43.4356 13.4643 29.0178 15.1383 29.0178 15.1383L27.9014 15.9754L48.18 14.9522C48.18 14.9522 48.0869 12.7194 49.2964 10.6732C50.5058 8.62707 53.1102 7.23145 53.1102 7.23145H51.5288C50.713 7.32927 49.9402 7.65134 49.2964 8.16189V8.16189Z" fill="black"/>
<path d="M4.23552 11.2556C4.08936 10.7256 0.509632 11.1444 0.509632 11.1444C0.509632 11.1444 0 11.2733 0 12.6556C0 13.552 0.744282 14.5164 0.744282 14.5164L2.44552 14.3923C2.44552 14.3923 4.38168 11.7856 4.23552 11.2556Z" fill="#FFA000"/>
<path d="M0.789716 11.4443C0.789716 11.4443 0.349598 12.1067 0.298436 12.4298C0.247273 12.7528 0.433769 13.8511 0.433769 13.8511L0.911155 13.7983C0.911155 13.7983 0.718144 12.8232 0.887795 12.4577C1.19429 11.797 2.19768 11.2734 2.19768 11.2734L0.789716 11.4443Z" fill="white"/>
<path d="M0.972621 17.0079C0.972621 17.0079 2.46695 17.1475 5.83826 17.2914C5.25825 16.5853 4.84987 15.7543 4.64522 14.8638H0.80249L0.972621 17.0079Z" fill="#3F343A"/>
<path d="M15.1848 17.545C20.7163 17.6272 28.0349 17.6379 37.4366 17.473C42.5162 17.384 47.0763 17.2085 50.8091 17.0227C50.338 16.3772 50.003 15.6427 49.8245 14.8638H16.4908C16.2931 15.8549 15.8434 16.7784 15.1848 17.545V17.545Z" fill="#3F343A"/>
<path d="M61.6713 14.8638C61.5661 15.3819 61.3931 15.8839 61.1567 16.3569H61.1571L65.2499 15.6127C65.2499 15.6127 65.2866 15.3254 65.3423 14.8639L61.6713 14.8638Z" fill="#3F343A"/>
<path d="M24.7387 14.9501C24.7022 14.9501 24.6762 14.9492 24.6613 14.9477C24.5682 14.9372 24.4824 14.8617 24.3914 14.7097C23.8246 13.7638 23.0661 9.65697 23.4069 8.80495C23.7861 7.8567 35.1776 0.930183 35.6623 0.635742L35.7588 0.794779C32.4713 2.79121 23.8754 8.13457 23.5796 8.87399C23.2581 9.67793 24.019 13.7264 24.551 14.6141C24.6361 14.7561 24.6811 14.7627 24.6819 14.7627C24.9304 14.7901 29.17 14.5267 33.7027 14.1423C41.7353 13.4611 42.6789 13.0887 42.7768 12.9909C43.4497 12.318 45.7171 8.01265 45.4196 6.94187C45.1257 5.88369 42.8335 5.02825 42.8101 5.01969L42.7362 4.99229L43.4331 1.3179L43.6159 1.35257L42.9482 4.87297C43.3613 5.03406 45.3074 5.84342 45.5988 6.8918C45.9181 8.04155 43.6117 12.419 42.9082 13.1221C42.5994 13.4309 39.5075 13.8365 33.7182 14.3275C29.5283 14.6829 25.4013 14.9501 24.7387 14.9501Z" fill="#2B2A25"/>
<path d="M51.6273 3.60333C51.7877 4.00058 51.4414 4.51426 50.8539 4.75185C50.2665 4.98945 49.6601 4.8598 49.4997 4.46283C49.3392 4.06585 49.6856 3.5519 50.2731 3.31424C50.8606 3.07658 51.467 3.20636 51.6273 3.60333Z" fill="#2B2A25"/>
<path d="M64.4122 4.06934L63.0601 5.98666L64.6913 6.20878L64.4122 4.06934Z" fill="#2B2A25"/>
</g>
<defs>
<clipPath id="clip0_212_2841">
<rect width="65.9004" height="20.1468" fill="white"/>
</clipPath>
</defs>
</svg>
