<svg width="187" height="95" viewBox="0 0 187 95" fill="none" xmlns="http://www.w3.org/2000/svg">
<path fill-rule="evenodd" clip-rule="evenodd" d="M116.322 11.4424H10.3391C7.59953 11.4502 4.97439 12.542 3.03715 14.4791C1.09991 16.4162 0.00801745 19.0413 0 21.7809V83.818C0.00719573 86.5584 1.09862 89.1846 3.03586 91.1229C4.97311 93.0611 7.59871 94.154 10.3391 94.1627H116.322C119.063 94.1543 121.688 93.062 123.626 91.1242C125.563 89.1864 126.655 86.5606 126.663 83.8205V21.7809C126.655 19.0411 125.563 16.4158 123.625 14.4787C121.688 12.5415 119.062 11.4499 116.322 11.4424Z" fill="#FFA000"/>
<path d="M126.663 28.3506H0V45.045H126.663V28.3506Z" fill="#1A1A1A"/>
<path d="M126.663 52.8008H46.0369V63.3024H126.663V52.8008Z" fill="white"/>
<path d="M41.4723 52.8008H10.0066V63.3024H41.4723V52.8008Z" fill="white"/>
<path opacity="0.23" fill-rule="evenodd" clip-rule="evenodd" d="M88.5187 94.1627H10.3391C7.59913 94.154 4.97391 93.0615 3.03673 91.1237C1.09956 89.186 0.00784991 86.5604 0 83.8205V21.7809C0.00736614 19.0411 1.09905 16.4156 3.03643 14.4784C4.97381 12.5411 7.59933 11.4496 10.3391 11.4424H41.9921L88.5187 94.1627Z" fill="white"/>
<path fill-rule="evenodd" clip-rule="evenodd" d="M185.31 31.4651H168.574L118.025 0L70.2659 11.4411L127.729 64.9165L144.447 81.4552H185.311L185.31 31.4651Z" fill="#F4C496"/>
<path d="M186.832 27.5488H177.701V86.6719H186.832V27.5488Z" fill="#F2F2F2"/>
<path fill-rule="evenodd" clip-rule="evenodd" d="M147.706 38.8535H91.7355C87.848 38.8645 84.1227 40.4137 81.3738 43.1626C78.6249 45.9116 77.0757 49.6368 77.0647 53.5244V53.5281C77.0763 57.4151 78.6258 61.1396 81.3748 63.8878C84.1237 66.636 87.8485 68.1846 91.7355 68.1952H147.706V38.8535Z" fill="#F4C496"/>
<path fill-rule="evenodd" clip-rule="evenodd" d="M99.2341 44.0693H90.7592C88.5132 44.076 86.3611 44.9711 84.7728 46.5591C83.1845 48.147 82.2889 50.2989 82.2817 52.5449V54.5046C82.2883 56.7507 83.1836 58.903 84.7721 60.4911C86.3605 62.0792 88.513 62.9741 90.7592 62.9801H99.236L99.2341 44.0693Z" fill="white"/>
</svg>
