<svg width="93" height="16" viewBox="0 0 93 16" fill="none" xmlns="http://www.w3.org/2000/svg">
<path d="M90.7298 0H1.56382C0.700147 0 0 0.69726 0 1.55737V14.0082C0 14.8683 0.700147 15.5656 1.56382 15.5656H90.7298C91.5934 15.5656 92.2936 14.8683 92.2936 14.0082V1.55737C92.2936 0.69726 91.5934 0 90.7298 0Z" fill="#FFA000"/>
<g clip-path="url(#clip0_44_89)">
<path d="M9.52884 8.29375C9.41022 7.55331 8.85259 6.82555 8.22557 6.4373C7.35153 5.89618 6.3118 5.87539 5.39924 5.43792C5.03758 5.26442 4.76305 4.78063 5.0171 4.43135C5.27466 4.07703 5.7661 4.00671 6.16735 3.97583C6.67503 3.948 7.17725 4.09228 7.59274 4.38534C7.89356 4.61111 7.95838 4.84391 8.06966 5.1776C8.15969 5.44663 8.27984 5.64366 8.6013 5.56739C8.89891 5.49677 9.25079 4.81013 9.29206 4.53606C9.31036 4.35794 9.28996 4.17797 9.23226 4.00846C9.17457 3.83895 9.08093 3.68392 8.95776 3.55395C8.47137 2.9951 7.64043 2.81152 6.94249 2.69321C6.55437 2.63075 6.1614 2.60358 5.76839 2.61204C4.24318 2.62977 2.47034 4.15957 3.1507 5.76473C3.50595 6.60315 4.51389 7.13295 5.34803 7.40794C6.32632 7.73062 7.49277 7.52672 8.0585 8.52381C8.59732 9.47351 7.62759 10.0608 6.81515 10.2433C5.8439 10.4617 4.41713 9.75415 4.44709 8.64532C4.47766 7.54154 3.02414 7.91161 3.00075 8.8448C2.95107 10.8277 4.8864 12.1303 6.74484 11.8176C8.45577 11.5302 9.81162 10.0608 9.52884 8.29375Z" fill="white"/>
<g style="mix-blend-mode:multiply">
<path d="M7.85719 4.11998C7.34818 3.85003 6.8679 3.58926 6.26915 3.57229C5.5411 3.55135 4.22469 3.94175 4.32787 4.91454C4.45948 6.15085 6.77236 6.23247 7.67055 6.74088C9.05513 7.52473 9.74192 9.13126 8.9651 10.5077C9.20623 10.1973 9.3807 9.84044 9.47759 9.45948C9.57449 9.07853 9.59173 8.68168 9.52823 8.29376C9.40961 7.55331 8.85199 6.82556 8.22497 6.4373C7.35093 5.89618 6.31119 5.8754 5.39863 5.43792C5.03697 5.26442 4.76244 4.78063 5.01649 4.43135C5.27405 4.07703 5.76549 4.00671 6.16674 3.97584C6.67442 3.948 7.17664 4.09228 7.59214 4.38534C7.89296 4.61111 7.95777 4.84391 8.06905 5.1776C8.15908 5.44663 8.27923 5.64367 8.60069 5.56739C8.89831 5.49677 9.25018 4.81013 9.29145 4.53606C9.30975 4.35794 9.28936 4.17797 9.23166 4.00846C9.17396 3.83895 9.08032 3.68392 8.95715 3.55395C8.95287 3.54891 8.94814 3.54447 8.9437 3.53973C8.98834 4.0888 8.6652 4.54905 7.85719 4.11998Z" fill="white"/>
</g>
<g style="mix-blend-mode:multiply">
<path d="M4.44725 8.64577C4.45871 8.22083 4.25006 8.01493 3.98868 7.97488C3.87058 8.04668 3.78143 8.15763 3.73673 8.28841C3.69204 8.41919 3.69465 8.56151 3.74411 8.69056C3.79737 8.90445 3.88709 9.10756 4.00932 9.29098C4.23503 9.63357 4.53702 9.91923 4.89161 10.1256C5.3332 10.3575 5.82329 10.482 6.32205 10.4889C6.80875 10.4937 7.36607 10.4419 7.76961 10.1374C8.28107 9.75201 8.42231 9.13706 8.13356 8.67405C8.49384 9.53541 7.58526 10.0706 6.81669 10.2433C5.84406 10.4622 4.41729 9.7546 4.44725 8.64577Z" fill="white"/>
</g>
<path d="M88.3504 8.29375C88.2318 7.55331 87.6742 6.82555 87.0472 6.4373C86.1731 5.89618 85.1334 5.87539 84.2208 5.43792C83.8592 5.26442 83.5846 4.78063 83.8387 4.43135C84.0963 4.07703 84.5877 4.00671 84.9889 3.97583C85.4966 3.948 85.9988 4.09228 86.4143 4.38534C86.7152 4.61111 86.78 4.84391 86.8913 5.1776C86.9813 5.44663 87.1014 5.64366 87.4229 5.56739C87.7205 5.49677 88.0724 4.81013 88.1137 4.53606C88.132 4.35794 88.1116 4.17797 88.0539 4.00846C87.9962 3.83895 87.9025 3.68392 87.7794 3.55395C87.293 2.9951 86.462 2.81152 85.7641 2.69321C85.376 2.63075 84.983 2.60358 84.59 2.61204C83.0648 2.62977 81.2919 4.15957 81.9723 5.76473C82.3275 6.60315 83.3355 7.13295 84.1696 7.40794C85.1479 7.73062 86.3144 7.52672 86.8801 8.52381C87.4189 9.47351 86.4492 10.0608 85.6367 10.2433C84.6655 10.4617 83.2387 9.75415 83.2687 8.64532C83.2993 7.54154 81.8457 7.91161 81.8223 8.8448C81.7727 10.8277 83.708 12.1303 85.5664 11.8176C87.2774 11.5302 88.6332 10.0608 88.3504 8.29375Z" fill="white"/>
<g style="mix-blend-mode:multiply">
<path d="M86.6788 4.11998C86.1698 3.85003 85.6895 3.58926 85.0907 3.57229C84.3627 3.55135 83.0463 3.94175 83.1495 4.91454C83.2811 6.15085 85.594 6.23247 86.4921 6.74088C87.8767 7.52473 88.5635 9.13126 87.7867 10.5077C88.0278 10.1973 88.2023 9.84044 88.2992 9.45948C88.3961 9.07853 88.4133 8.68168 88.3498 8.29376C88.2312 7.55331 87.6736 6.82556 87.0466 6.4373C86.1725 5.89618 85.1328 5.8754 84.2202 5.43792C83.8586 5.26442 83.584 4.78063 83.8381 4.43135C84.0956 4.07703 84.5871 4.00671 84.9883 3.97584C85.496 3.948 85.9982 4.09228 86.4137 4.38534C86.7146 4.61111 86.7794 4.84391 86.8906 5.1776C86.9807 5.44663 87.1008 5.64367 87.4223 5.56739C87.7199 5.49677 88.0718 4.81013 88.113 4.53606C88.1313 4.35794 88.111 4.17797 88.0533 4.00846C87.9956 3.83895 87.9019 3.68392 87.7787 3.55395C87.7745 3.54891 87.7697 3.54447 87.7653 3.53973C87.8099 4.0888 87.4868 4.54905 86.6788 4.11998Z" fill="white"/>
</g>
<g style="mix-blend-mode:multiply">
<path d="M83.2688 8.64577C83.2803 8.22083 83.0717 8.01493 82.8103 7.97488C82.6922 8.04668 82.603 8.15763 82.5583 8.28841C82.5136 8.41919 82.5162 8.56151 82.5657 8.69056C82.619 8.90445 82.7087 9.10756 82.8309 9.29098C83.0566 9.63357 83.3586 9.91923 83.7132 10.1256C84.1548 10.3575 84.6449 10.482 85.1436 10.4889C85.6303 10.4937 86.1877 10.4419 86.5912 10.1374C87.1027 9.75201 87.2439 9.13706 86.9552 8.67405C87.3154 9.53541 86.4069 10.0706 85.6383 10.2433C84.6657 10.4622 83.2389 9.7546 83.2688 8.64577Z" fill="white"/>
</g>
<path d="M16.4759 3.34821C16.4274 3.30898 16.3777 3.27219 16.3269 3.23785C15.8377 2.90829 15.3744 2.87099 14.7934 2.79457C14.5847 2.78524 14.2479 2.78585 14.0386 2.77546C13.4128 2.78249 12.7815 2.74275 12.1571 2.78081C11.865 2.79854 11.527 2.73877 11.2511 2.86106C10.903 3.0156 10.8665 3.43565 10.8298 3.76964C10.8242 4.07536 10.8118 4.38107 10.7957 4.68679C10.805 4.81183 10.8138 4.92479 10.817 5.01711C10.8558 6.11677 10.8098 7.14596 10.8191 8.24653C10.8271 9.18706 10.7173 10.3992 10.9211 11.4183C10.9898 11.7629 11.6467 11.7639 11.9655 11.6094C12.4565 11.3716 12.3333 10.6912 12.3377 10.2383C12.3453 9.46104 12.3491 8.68345 12.3492 7.90551C13.4943 8.01648 14.8327 7.96986 15.8201 7.47827C16.2409 7.25805 16.5958 6.9302 16.8487 6.52815C17.1015 6.1261 17.2433 5.66421 17.2594 5.18954C17.2711 4.84404 17.207 4.50018 17.0716 4.18209C16.9363 3.86401 16.7329 3.57939 16.4759 3.34821V3.34821ZM14.42 6.46039C14.2269 6.54775 14.0189 6.59755 13.8072 6.60714C13.6806 6.61386 12.348 6.57122 12.348 6.55287C12.348 6.46406 12.348 6.37525 12.348 6.28644C12.3458 5.76092 12.3835 5.05731 12.3845 4.43503C13.017 4.4656 13.8 4.34943 14.4304 4.58346C14.9946 4.79287 15.3059 5.55196 14.9106 6.0541C14.7773 6.22232 14.6101 6.36073 14.42 6.46039V6.46039Z" fill="white"/>
<g style="mix-blend-mode:multiply">
<path d="M16.4759 3.3482C16.4274 3.30897 16.3777 3.27218 16.3269 3.23784C15.8764 2.93427 15.4463 2.87878 14.9272 2.81213C15.9122 3.17379 16.6826 3.84392 16.5892 5.07442C16.5618 5.51064 16.4366 5.93511 16.2229 6.31642C16.0093 6.69772 15.7126 7.0261 15.3549 7.27725C14.8189 7.63035 14.2604 7.72558 13.6395 7.84741C13.4621 7.87249 13.2862 7.90729 13.1126 7.95166C14.056 7.97489 15.0458 7.86361 15.8202 7.4778C16.241 7.25757 16.5959 6.92973 16.8487 6.52768C17.1015 6.12563 17.2433 5.66373 17.2595 5.18907C17.271 4.84365 17.2069 4.49988 17.0715 4.18187C16.9362 3.86387 16.7329 3.57933 16.4759 3.3482V3.3482Z" fill="white"/>
</g>
<g style="mix-blend-mode:multiply">
<path d="M12.3477 6.28644C12.3455 5.76092 12.3832 5.05732 12.3842 4.43503H12.3877C12.3459 4.33155 12.2673 4.14124 12.222 4.28508C12.1409 4.54866 12.102 4.82344 12.1068 5.0992C12.1106 5.53591 12.1485 5.96865 12.1213 6.40445C12.1011 6.72545 12.2208 6.66018 12.348 6.50304C12.3477 6.4309 12.3477 6.35875 12.3477 6.28644Z" fill="white"/>
</g>
<g style="mix-blend-mode:multiply">
<path d="M12.3948 7.90964C12.1667 7.6345 12.0632 8.30157 12.0629 8.3783C12.0629 8.61844 12.0964 8.86087 12.089 9.10025C12.0652 9.85383 12.324 10.9764 11.865 11.6467C11.8642 11.6478 11.8633 11.6489 11.8624 11.6499C11.8976 11.6389 11.9321 11.6254 11.9655 11.6097C12.4565 11.3719 12.3333 10.6915 12.3378 10.2386C12.3453 9.46134 12.3491 8.68376 12.3492 7.90582C12.3642 7.90796 12.3796 7.90796 12.3948 7.90964Z" fill="white"/>
</g>
<path d="M22.0285 2.20515C21.8926 2.07836 21.7152 2.00534 21.5294 1.99971C21.3436 1.99408 21.1622 2.05624 21.0188 2.17458C20.2517 2.70576 19.7818 4.05549 19.4331 4.87908C19.2659 5.27856 19.1204 5.68678 18.9972 6.10194C18.4453 7.93149 17.5357 9.83579 17.0736 11.6919C16.9313 12.2636 18.2375 12.7376 18.5597 12.149C19.217 10.9489 19.3393 10.1498 19.8327 8.89618C19.8681 8.79453 22.0719 8.81975 22.3395 8.84329C22.4698 8.85511 22.6011 8.84172 22.7263 8.80385C22.8536 9.16199 22.9841 9.51892 23.1133 9.8763C23.3927 10.6501 23.4528 11.5302 24.0415 12.1195C24.5792 12.6578 25.6303 12.4405 25.818 11.7875C26.0118 11.1118 25.5398 10.4139 25.2735 9.84068C24.963 9.17315 24.7759 8.49936 24.5318 7.80554C24.1692 6.77329 23.7284 5.75434 23.3386 4.7224C23.0314 3.90767 22.7299 2.77974 22.0285 2.20515ZM20.4267 6.9821C20.6653 6.30677 20.8716 5.45352 21.2406 4.78492C21.5644 5.45241 21.8337 6.14497 22.0459 6.85583C21.5578 6.99173 20.9673 6.96375 20.4267 6.9821Z" fill="white"/>
<g style="mix-blend-mode:multiply">
<path d="M21.2408 4.78492C21.2591 4.82069 21.2786 4.86227 21.2975 4.90094C21.2928 4.82175 21.2811 4.74313 21.2625 4.666C21.1566 4.25649 20.9248 4.61464 20.8396 4.79608C20.4895 5.55149 20.2765 6.36309 20.2104 7.19304C20.4637 7.13953 20.7122 7.06545 20.9534 6.97154C20.7761 6.97475 20.5988 6.97628 20.4268 6.98209C20.6654 6.30677 20.8718 5.45306 21.2408 4.78492Z" fill="white"/>
</g>
<g style="mix-blend-mode:multiply">
<path d="M19.3414 9.3176C19.2281 9.97993 18.8353 10.5642 18.5251 11.1612C18.3426 11.5128 18.0266 12.0649 17.6616 12.3601C18.0065 12.4692 18.4018 12.4373 18.56 12.1482C19.2173 10.9481 19.3395 10.149 19.833 8.89541C19.8551 8.83182 20.7267 8.81791 21.4415 8.82234C20.6673 8.49462 19.517 8.29055 19.3414 9.3176Z" fill="white"/>
</g>
<g style="mix-blend-mode:multiply">
<path d="M25.2738 9.83992C24.9634 9.17239 24.7763 8.49859 24.5322 7.80477C24.1693 6.77329 23.7284 5.75434 23.3386 4.7224C23.0314 3.90767 22.73 2.77974 22.0285 2.20515C21.8926 2.07836 21.7152 2.00534 21.5294 1.99971C21.3437 1.99408 21.1622 2.05624 21.0189 2.17458C20.9287 2.23824 20.8444 2.30986 20.767 2.38858C22.0173 2.56329 22.9395 5.89008 23.2327 6.6533C23.8249 8.19609 24.7984 9.69562 24.9799 11.3654C25.0287 11.717 25.0079 12.0748 24.9187 12.4183C25.3287 12.3861 25.7119 12.1563 25.8183 11.7867C26.0121 11.1111 25.5401 10.4125 25.2738 9.83992Z" fill="white"/>
</g>
<path d="M34.1088 10.6832C33.3445 9.74695 32.6074 8.64653 31.8159 7.8373C31.9637 7.7894 32.1085 7.73269 32.2496 7.66748C32.6726 7.4683 33.0336 7.15785 33.2939 6.76936C33.5541 6.38086 33.7039 5.92894 33.7271 5.4619C33.7369 5.1244 33.6695 4.78911 33.5301 4.48158C33.3907 4.17404 33.183 3.90236 32.9228 3.68723C32.8731 3.64947 32.822 3.61386 32.7699 3.58023C32.2678 3.26259 31.7916 3.22697 31.1955 3.1533C30.9815 3.14428 30.6352 3.14504 30.4206 3.1348C29.7786 3.14153 29.1301 3.10331 28.489 3.14C28.1891 3.15727 27.8421 3.09949 27.5588 3.21734C27.1423 3.39099 27.1331 3.93241 27.1195 4.31195C27.0714 5.67009 27.1032 7.04811 27.1154 8.40716C27.1235 9.31361 27.0108 10.4817 27.2201 11.4643C27.2907 11.7962 27.965 11.7971 28.2924 11.6477C28.7968 11.4184 28.67 10.7627 28.6745 10.3264C28.6822 9.57744 28.6862 8.82808 28.6865 8.07836C29.1922 8.13705 29.7021 8.15162 30.2103 8.12193C30.2493 8.11933 30.5986 8.76653 30.643 8.83409C30.7973 9.06873 30.9463 9.30642 31.0941 9.54518C31.5734 10.3198 32.1426 11.0349 32.7898 11.6759C33.392 12.2801 34.602 11.2873 34.1088 10.6832ZM28.6855 6.77617C28.6855 6.69164 28.6855 6.60711 28.6855 6.52273C28.6834 6.02335 28.7215 5.35398 28.7227 4.76273C29.3632 4.7907 30.1562 4.68111 30.7947 4.90382C31.3661 5.10253 31.6812 5.82448 31.2809 6.30201C31.1437 6.46366 30.9746 6.59517 30.7841 6.68827C30.5874 6.77176 30.3772 6.81895 30.1637 6.82753C30.0351 6.8341 28.6857 6.79344 28.6855 6.77617V6.77617Z" fill="white"/>
<g style="mix-blend-mode:multiply" opacity="0.8">
<path d="M34.1088 10.6832C33.3445 9.74695 32.6074 8.64652 31.8159 7.8373C31.9637 7.78939 32.1085 7.73268 32.2496 7.66747C32.6726 7.46829 33.0336 7.15785 33.2939 6.76935C33.5541 6.38086 33.7039 5.92893 33.7271 5.4619C33.7369 5.12439 33.6695 4.78911 33.5301 4.48157C33.3907 4.17403 33.183 3.90235 32.9228 3.68722C32.8731 3.64946 32.822 3.61385 32.7699 3.58022C32.4888 3.4061 32.1752 3.29095 31.8482 3.24179C32.4336 3.56157 32.9793 4.06355 33.1322 4.73077C33.4408 6.08158 32.4617 7.17879 31.241 7.5192C31.9442 8.47884 32.8155 9.33821 33.4442 10.3336C33.6878 10.7196 33.9608 11.4308 33.5065 11.7983C33.488 11.8136 33.4683 11.824 33.4494 11.8376C33.9744 11.7067 34.4506 11.1017 34.1088 10.6832Z" fill="white"/>
</g>
<g style="mix-blend-mode:multiply" opacity="0.8">
<path d="M28.6854 6.52272C28.6832 6.02334 28.7213 5.35397 28.7225 4.76272C28.8101 4.76654 28.9009 4.76761 28.9935 4.76746C28.95 4.70927 28.8928 4.66269 28.8269 4.63183C28.7611 4.60096 28.6887 4.58675 28.6161 4.59045C28.313 4.625 28.424 5.67482 28.4189 5.89861C28.4141 6.11184 28.4208 6.32661 28.4063 6.54061C28.4014 6.61215 28.3772 7.18704 28.5905 6.92565C28.6279 6.87902 28.6618 6.82972 28.6921 6.77815L28.6855 6.77677C28.6854 6.69224 28.6857 6.6071 28.6854 6.52272Z" fill="white"/>
</g>
<g style="mix-blend-mode:multiply" opacity="0.8">
<path d="M29.2775 8.12576C28.9356 7.8471 28.3197 7.63019 28.2566 8.59854C28.2233 9.10924 28.2358 9.6178 28.2326 10.1291C28.2289 10.6974 28.2104 11.3246 27.8184 11.7433C27.9812 11.7426 28.1424 11.7105 28.2931 11.6487C28.7976 11.4194 28.6707 10.7636 28.6753 10.3274C28.6829 9.57836 28.6869 8.829 28.6872 8.07929C28.8943 8.09855 29.0874 8.1146 29.2775 8.12576Z" fill="white"/>
</g>
<path d="M71.7573 10.6832C70.993 9.74695 70.2559 8.64653 69.4644 7.8373C69.6122 7.7894 69.757 7.73269 69.8981 7.66748C70.3211 7.4683 70.6821 7.15785 70.9424 6.76936C71.2026 6.38086 71.3524 5.92894 71.3756 5.4619C71.3854 5.1244 71.318 4.78911 71.1786 4.48158C71.0392 4.17404 70.8315 3.90236 70.5713 3.68723C70.5216 3.64947 70.4705 3.61386 70.4184 3.58023C69.9163 3.26259 69.4401 3.22697 68.844 3.1533C68.63 3.14428 68.2837 3.14504 68.0691 3.1348C67.4271 3.14153 66.7786 3.10331 66.1375 3.14C65.8376 3.15727 65.4906 3.09949 65.2073 3.21734C64.7908 3.39099 64.7816 3.93241 64.768 4.31195C64.7199 5.67009 64.7517 7.04811 64.7639 8.40716C64.772 9.31361 64.6593 10.4817 64.8686 11.4643C64.9392 11.7962 65.6135 11.7971 65.9409 11.6477C66.4453 11.4184 66.3185 10.7627 66.323 10.3264C66.3307 9.57744 66.3347 8.82808 66.335 8.07836C66.8407 8.13705 67.3506 8.15162 67.8588 8.12193C67.8978 8.11933 68.2471 8.76653 68.2915 8.83409C68.4458 9.06873 68.5948 9.30642 68.7426 9.54518C69.2219 10.3198 69.7911 11.0349 70.4383 11.6759C71.0405 12.2801 72.2505 11.2873 71.7573 10.6832ZM66.334 6.77617C66.334 6.69164 66.334 6.60711 66.334 6.52273C66.3319 6.02335 66.37 5.35398 66.3712 4.76273C67.0117 4.7907 67.8047 4.68111 68.4432 4.90382C69.0146 5.10253 69.3297 5.82448 68.9294 6.30201C68.7922 6.46366 68.6231 6.59517 68.4326 6.68827C68.2359 6.77176 68.0257 6.81895 67.8122 6.82753C67.6836 6.8341 66.3342 6.79344 66.334 6.77617V6.77617Z" fill="white"/>
<g style="mix-blend-mode:multiply" opacity="0.8">
<path d="M71.7573 10.6832C70.993 9.74695 70.2559 8.64652 69.4644 7.8373C69.6122 7.78939 69.757 7.73268 69.8981 7.66747C70.3211 7.46829 70.6821 7.15785 70.9424 6.76935C71.2026 6.38086 71.3524 5.92893 71.3756 5.4619C71.3854 5.12439 71.318 4.78911 71.1786 4.48157C71.0392 4.17403 70.8315 3.90235 70.5713 3.68722C70.5216 3.64946 70.4705 3.61385 70.4184 3.58022C70.1373 3.4061 69.8237 3.29095 69.4967 3.24179C70.0821 3.56157 70.6278 4.06355 70.7807 4.73077C71.0893 6.08158 70.1102 7.17879 68.8895 7.5192C69.5927 8.47884 70.464 9.33821 71.0927 10.3336C71.3363 10.7196 71.6093 11.4308 71.155 11.7983C71.1365 11.8136 71.1168 11.824 71.0979 11.8376C71.6229 11.7067 72.0991 11.1017 71.7573 10.6832Z" fill="white"/>
</g>
<g style="mix-blend-mode:multiply" opacity="0.8">
<path d="M66.3339 6.52272C66.3317 6.02334 66.3698 5.35397 66.371 4.76272C66.4586 4.76654 66.5494 4.76761 66.642 4.76746C66.5985 4.70927 66.5413 4.66269 66.4754 4.63183C66.4096 4.60096 66.3372 4.58675 66.2646 4.59045C65.9615 4.625 66.0725 5.67482 66.0674 5.89861C66.0626 6.11184 66.0693 6.32661 66.0548 6.54061C66.0499 6.61215 66.0257 7.18704 66.239 6.92565C66.2764 6.87902 66.3103 6.82972 66.3406 6.77815L66.334 6.77677C66.3339 6.69224 66.3342 6.6071 66.3339 6.52272Z" fill="white"/>
</g>
<g style="mix-blend-mode:multiply" opacity="0.8">
<path d="M66.926 8.12576C66.5841 7.8471 65.9682 7.63019 65.9051 8.59854C65.8718 9.10924 65.8843 9.6178 65.8811 10.1291C65.8774 10.6974 65.8589 11.3246 65.4669 11.7433C65.6297 11.7426 65.7909 11.7105 65.9416 11.6487C66.4461 11.4194 66.3192 10.7636 66.3238 10.3274C66.3314 9.57836 66.3354 8.829 66.3357 8.07929C66.5428 8.09855 66.7359 8.1146 66.926 8.12576Z" fill="white"/>
</g>
<path d="M41.9681 10.5858C41.4248 9.92274 40.25 10.1717 39.5224 10.197C38.6809 10.2262 37.879 10.2045 37.0547 10.197C37.0627 9.40842 37.0674 8.61963 37.0687 7.83058C37.3612 7.83139 37.6536 7.83175 37.9458 7.83165C38.8073 7.83012 40.0698 7.9119 40.9346 7.85993C41.3293 7.83639 42.0412 7.34281 41.554 6.81178C41.0095 6.21763 39.8324 6.44065 39.1034 6.46296C38.4096 6.48421 37.7439 6.47382 37.0704 6.46541V6.45471C37.0692 5.82631 37.1143 4.9914 37.1202 4.24057C37.53 4.24149 37.9398 4.24179 38.3495 4.24149C39.209 4.2398 40.4687 4.33106 41.3321 4.27206C41.7258 4.24577 42.4363 3.69456 41.9505 3.10132C41.4071 2.43823 40.2321 2.68738 39.5048 2.71245C38.4981 2.7473 37.5508 2.70756 36.5501 2.7094C36.5501 2.71597 36.5501 2.72269 36.5501 2.72942C36.2615 2.75388 35.9811 2.79805 35.758 3.02321C35.7044 3.07804 35.6558 3.13765 35.6131 3.20129C35.3838 3.65757 35.4688 4.23384 35.4675 4.88425C35.4656 5.98483 35.4538 7.37583 35.461 8.4764C35.4645 9.02761 35.486 9.55603 35.4706 10.1068C35.4593 10.508 35.4169 11.0698 35.6846 11.4061C35.9114 11.6916 36.3819 11.6988 36.7208 11.7295C37.2674 11.7795 37.8186 11.7254 38.3665 11.7242C39.226 11.7225 40.4857 11.8136 41.3489 11.7547C41.7436 11.7303 42.4539 11.1791 41.9681 10.5858Z" fill="white"/>
<g style="mix-blend-mode:multiply">
<path d="M41.6835 2.99433C41.728 3.32099 41.6335 3.688 41.2849 3.81166C40.7288 4.0087 40.0756 3.89986 39.4981 3.8806C38.5687 3.85003 37.6417 3.81946 36.7135 3.8806C36.6993 4.61432 36.7413 5.35384 36.7104 6.08527C36.6979 6.3812 36.8803 6.56524 37.0704 6.50623C37.0721 5.88594 37.1143 4.96681 37.1201 4.24119C37.5299 4.24211 37.9396 4.24242 38.3494 4.24211C39.2089 4.24043 40.4686 4.33168 41.3319 4.27268C41.7257 4.24639 42.4362 3.69519 41.9504 3.10195C41.8643 2.99894 41.7593 2.91329 41.6412 2.84958C41.6621 2.89558 41.6763 2.94432 41.6835 2.99433V2.99433Z" fill="white"/>
</g>
<g style="mix-blend-mode:multiply">
<path d="M40.9424 7.18628C40.6592 7.80336 39.3403 7.59166 38.8516 7.5565C38.4709 7.52898 38.0874 7.51064 37.7052 7.49535C37.1354 7.47304 36.5669 7.33134 36.5577 8.05206C36.5516 8.54258 36.5177 9.01965 36.4938 9.50879C36.4746 9.71254 36.4803 9.91786 36.5108 10.1202C36.7847 10.418 36.99 10.4412 37.1285 10.1985C37.1037 10.1985 37.0793 10.1976 37.0545 10.1976C37.0626 9.40903 37.0672 8.62023 37.0686 7.83118C37.361 7.832 37.6534 7.83235 37.9457 7.83225C38.8072 7.83072 40.0696 7.9125 40.9345 7.86053C41.3292 7.83699 42.041 7.34341 41.5539 6.81239C41.3884 6.64302 41.1764 6.52661 40.9447 6.47794C40.9972 6.5887 41.0242 6.7098 41.0238 6.83237C41.0234 6.95493 40.9956 7.07586 40.9424 7.18628V7.18628Z" fill="white"/>
</g>
<g style="mix-blend-mode:multiply">
<path d="M41.9681 10.5858C41.8641 10.4609 41.7331 10.3611 41.5849 10.2942C41.5941 10.3508 41.5981 10.4082 41.597 10.4655C41.5829 11.1182 41.0545 11.3624 40.4706 11.4438C39.2983 11.6085 38.0554 11.5105 36.8758 11.488C36.5134 11.4813 36.1433 11.4924 35.7729 11.4935C36.0189 11.6931 36.4214 11.7029 36.7216 11.7301C37.2682 11.7801 37.8194 11.726 38.3673 11.7248C39.2268 11.7231 40.4865 11.8142 41.3497 11.7554C41.7436 11.7303 42.4539 11.1791 41.9681 10.5858Z" fill="white"/>
</g>
<path d="M53.926 4.06251C53.8775 4.02328 53.8278 3.98649 53.7769 3.95215C53.2878 3.62259 52.8245 3.58529 52.2435 3.50886C52.0348 3.49954 51.6979 3.50015 51.4887 3.48975C50.8629 3.49678 50.2316 3.45704 49.6071 3.4951C49.315 3.51284 48.9771 3.45307 48.7012 3.57535C48.3531 3.72989 48.3166 4.14994 48.2799 4.48394C48.2742 4.78965 48.2618 5.09537 48.2458 5.40108C48.2551 5.52612 48.2638 5.63908 48.267 5.73141C48.3059 6.83106 48.2599 7.86025 48.2692 8.96083C48.2771 9.90136 48.1674 11.1135 48.3711 12.1326C48.4399 12.4772 49.0967 12.4782 49.4156 12.3237C49.9066 12.0858 49.7834 11.4055 49.7878 10.9526C49.7954 10.1753 49.7992 9.39775 49.7993 8.6198C50.9443 8.73078 52.2828 8.68416 53.2702 8.19257C53.691 7.97234 54.0459 7.6445 54.2988 7.24244C54.5516 6.84039 54.6933 6.3785 54.7095 5.90383C54.7212 5.55833 54.657 5.21448 54.5217 4.89639C54.3863 4.5783 54.183 4.29368 53.926 4.06251V4.06251ZM51.87 7.17469C51.6769 7.26205 51.469 7.31185 51.2572 7.32143C51.1307 7.32816 49.7981 7.28551 49.7981 7.26717C49.7981 7.17836 49.7981 7.08955 49.7981 7.00074C49.7959 6.47521 49.8335 5.77161 49.8346 5.14933C50.4671 5.1799 51.2501 5.06373 51.8804 5.29775C52.4446 5.50717 52.756 6.26626 52.3607 6.76839C52.2273 6.93662 52.0602 7.07502 51.87 7.17469V7.17469Z" fill="white"/>
<g style="mix-blend-mode:multiply">
<path d="M53.926 4.0625C53.8775 4.02326 53.8278 3.98648 53.777 3.95213C53.3265 3.64856 52.8964 3.59307 52.3772 3.52643C53.3623 3.88809 54.1327 4.55821 54.0393 5.78872C54.0118 6.22494 53.8867 6.64941 53.673 7.03071C53.4593 7.41201 53.1627 7.74039 52.8049 7.99155C52.269 8.34465 51.7105 8.43988 51.0896 8.5617C50.9122 8.58678 50.7363 8.62158 50.5627 8.66595C51.5061 8.68919 52.4959 8.57791 53.2702 8.1921C53.691 7.97187 54.0459 7.64403 54.2988 7.24197C54.5516 6.83992 54.6934 6.37803 54.7095 5.90336C54.7211 5.55794 54.657 5.21417 54.5216 4.89617C54.3863 4.57816 54.183 4.29362 53.926 4.0625V4.0625Z" fill="white"/>
</g>
<g style="mix-blend-mode:multiply">
<path d="M49.7978 7.00074C49.7956 6.47521 49.8332 5.77161 49.8343 5.14933H49.8378C49.7959 5.04584 49.7174 4.85554 49.6721 4.99938C49.5909 5.26296 49.552 5.53774 49.5569 5.8135C49.5607 6.25021 49.5986 6.68295 49.5714 7.11874C49.5512 7.43975 49.6709 7.37448 49.7981 7.21734C49.7978 7.14519 49.7978 7.07304 49.7978 7.00074Z" fill="white"/>
</g>
<g style="mix-blend-mode:multiply">
<path d="M49.8448 8.62393C49.6168 8.34879 49.5133 9.01586 49.513 9.0926C49.513 9.33273 49.5465 9.57517 49.5391 9.81454C49.5153 10.5681 49.7741 11.6907 49.315 12.361C49.3143 12.3621 49.3134 12.3632 49.3124 12.3642C49.3477 12.3532 49.3822 12.3397 49.4156 12.324C49.9066 12.0862 49.7834 11.4058 49.7878 10.9529C49.7954 10.1756 49.7992 9.39806 49.7993 8.62011C49.8143 8.62225 49.8297 8.62225 49.8448 8.62393Z" fill="white"/>
</g>
<path d="M59.677 2.96943C59.5411 2.84264 59.3637 2.76962 59.1779 2.76399C58.9921 2.75837 58.8107 2.82052 58.6673 2.93886C57.9002 3.47004 57.4303 4.81977 57.0816 5.64336C56.9144 6.04285 56.7689 6.45106 56.6457 6.86622C56.0938 8.69577 55.1842 10.6001 54.7221 12.4562C54.5798 13.0279 55.886 13.5019 56.2082 12.9133C56.8655 11.7132 56.9878 10.914 57.4812 9.66046C57.5166 9.55881 59.7204 9.58403 59.988 9.60757C60.1183 9.61939 60.2496 9.606 60.3748 9.56813C60.5021 9.92628 60.6326 10.2832 60.7618 10.6406C61.0412 11.4143 61.1013 12.2945 61.69 12.8838C62.2277 13.4221 63.2788 13.2048 63.4665 12.5518C63.6603 11.8761 63.1883 11.1782 62.922 10.605C62.6115 9.93744 62.4244 9.26364 62.1803 8.56982C61.8177 7.53757 61.3769 6.51863 60.9871 5.48669C60.6799 4.67196 60.3784 3.54402 59.677 2.96943ZM58.0752 7.74638C58.3138 7.07105 58.5201 6.2178 58.8891 5.5492C59.2129 6.21669 59.4822 6.90925 59.6944 7.62012C59.2063 7.75601 58.6158 7.72803 58.0752 7.74638Z" fill="white"/>
<g style="mix-blend-mode:multiply">
<path d="M58.8893 5.5492C58.9076 5.58497 58.9271 5.62655 58.946 5.66522C58.9413 5.58603 58.9296 5.50741 58.911 5.43028C58.8051 5.02077 58.5733 5.37892 58.488 5.56036C58.138 6.31577 57.925 7.12737 57.8589 7.95732C58.1122 7.90381 58.3607 7.82973 58.6019 7.73583C58.4246 7.73904 58.2473 7.74057 58.0753 7.74637C58.3139 7.07105 58.5203 6.21734 58.8893 5.5492Z" fill="white"/>
</g>
<g style="mix-blend-mode:multiply">
<path d="M56.9899 10.0819C56.8766 10.7442 56.4838 11.3284 56.1736 11.9255C55.9911 12.2771 55.6751 12.8292 55.3101 13.1244C55.655 13.2335 56.0503 13.2015 56.2085 12.9125C56.8657 11.7124 56.988 10.9133 57.4815 9.65969C57.5036 9.5961 58.3752 9.58219 59.09 9.58662C58.3158 9.2589 57.1655 9.05483 56.9899 10.0819Z" fill="white"/>
</g>
<g style="mix-blend-mode:multiply">
<path d="M62.9223 10.6042C62.6119 9.93667 62.4248 9.26288 62.1807 8.56906C61.8178 7.53757 61.3769 6.51863 60.9871 5.48669C60.6799 4.67196 60.3785 3.54402 59.677 2.96943C59.5411 2.84264 59.3637 2.76962 59.1779 2.76399C58.9922 2.75837 58.8107 2.82052 58.6674 2.93886C58.5772 3.00252 58.4929 3.07414 58.4155 3.15286C59.6658 3.32757 60.588 6.65436 60.8812 7.41758C61.4734 8.96037 62.4469 10.4599 62.6284 12.1297C62.6772 12.4813 62.6564 12.839 62.5672 13.1826C62.9772 13.1503 63.3604 12.9206 63.4668 12.551C63.6606 11.8754 63.1886 11.1768 62.9223 10.6042Z" fill="white"/>
</g>
<path d="M80.4565 3.93166C80.0082 3.26948 79.0407 3.52077 78.442 3.54737C77.5658 3.5862 76.7453 3.54019 75.869 3.54951C75.12 3.55746 74.0328 3.42952 73.3115 3.72789C73.0457 3.83795 73.0669 4.37708 73.1892 4.69594C73.3788 5.18692 73.9209 5.06372 74.2818 5.06815C74.8627 5.07518 75.4443 5.07905 76.0267 5.07977C76.0343 5.46619 76.0816 5.85154 76.0924 6.15955C76.1311 7.25921 76.0853 8.2884 76.0946 9.38897C76.1025 10.3295 75.9747 11.6936 76.273 12.599C76.3829 12.9327 76.9221 12.9064 77.241 12.7518C77.732 12.514 77.6088 11.8336 77.6132 11.3807C77.6263 10.038 77.6296 8.69474 77.6231 7.35092C77.6206 6.70586 77.6656 5.84528 77.669 5.07977C78.3654 5.08848 79.2946 5.15864 79.9495 5.10361C80.2734 5.07564 80.8576 4.52398 80.4565 3.93166Z" fill="white"/>
<g style="mix-blend-mode:multiply">
<path d="M76.0449 5.45306C76.1445 5.26596 76.1825 5.08314 76.0461 4.97614C75.6858 4.69412 75.178 4.84407 74.7639 4.86318C74.365 4.8869 73.9648 4.87493 73.568 4.82741C73.4476 4.81198 73.3289 4.78532 73.2135 4.74777C73.4211 5.17577 73.935 5.06388 74.2821 5.06877C74.863 5.07581 75.4446 5.07968 76.027 5.08039C76.0294 5.20558 76.0366 5.33001 76.0449 5.45306Z" fill="white"/>
</g>
<g style="mix-blend-mode:multiply">
<path d="M80.4565 3.93166C80.3706 3.81038 80.2595 3.70913 80.1308 3.63491C80.002 3.56068 79.8587 3.51523 79.7107 3.50168C79.7784 3.55745 79.8402 3.62004 79.8951 3.68847C80.0993 3.94267 80.2411 4.46804 79.9052 4.68693C79.4587 4.97736 78.819 4.90246 78.3119 4.88443C78.0145 4.86177 77.7162 4.85467 77.418 4.86318C77.2078 4.87846 77.2668 5.52688 77.2682 5.63404C77.2748 6.17668 77.3099 6.71719 77.3359 7.25891C77.3934 8.45854 77.2328 9.64609 77.2656 10.8437C77.2827 11.4715 77.4463 12.3219 76.9929 12.835C77.0787 12.8172 77.1621 12.7892 77.2413 12.7518C77.7323 12.514 77.6091 11.8336 77.6135 11.3807C77.6266 10.038 77.6299 8.69475 77.6235 7.35093C77.6209 6.70587 77.666 5.84528 77.6693 5.07977C78.3657 5.08849 79.295 5.15865 79.9498 5.10362C80.2734 5.07565 80.8576 4.52399 80.4565 3.93166Z" fill="white"/>
</g>
</g>
<defs>
<clipPath id="clip0_44_89">
<rect width="85.388" height="11.187" fill="white" transform="translate(3 2)"/>
</clipPath>
</defs>
</svg>
