<svg width="207" height="34" viewBox="0 0 207 34" fill="none" xmlns="http://www.w3.org/2000/svg">
<path d="M204.73 18H115.564C114.7 18 114 18.6973 114 19.5574V32.0082C114 32.8683 114.7 33.5656 115.564 33.5656H204.73C205.593 33.5656 206.294 32.8683 206.294 32.0082V19.5574C206.294 18.6973 205.593 18 204.73 18Z" fill="#FFA000"/>
<g clip-path="url(#clip0_482_3535)">
<path d="M123.529 26.2938C123.41 25.5533 122.853 24.8256 122.226 24.4373C121.352 23.8962 120.312 23.8754 119.399 23.4379C119.038 23.2644 118.763 22.7806 119.017 22.4314C119.275 22.077 119.766 22.0067 120.167 21.9758C120.675 21.948 121.177 22.0923 121.593 22.3853C121.894 22.6111 121.958 22.8439 122.07 23.1776C122.16 23.4466 122.28 23.6437 122.601 23.5674C122.899 23.4968 123.251 22.8101 123.292 22.5361C123.31 22.3579 123.29 22.178 123.232 22.0085C123.175 21.839 123.081 21.6839 122.958 21.554C122.471 20.9951 121.64 20.8115 120.942 20.6932C120.554 20.6308 120.161 20.6036 119.768 20.612C118.243 20.6298 116.47 22.1596 117.151 23.7647C117.506 24.6031 118.514 25.133 119.348 25.4079C120.326 25.7306 121.493 25.5267 122.058 26.5238C122.597 27.4735 121.628 28.0608 120.815 28.2433C119.844 28.4617 118.417 27.7542 118.447 26.6453C118.478 25.5415 117.024 25.9116 117.001 26.8448C116.951 28.8277 118.886 30.1303 120.745 29.8176C122.456 29.5302 123.812 28.0608 123.529 26.2938Z" fill="white"/>
<g style="mix-blend-mode:multiply">
<path d="M121.857 22.12C121.348 21.85 120.868 21.5893 120.269 21.5723C119.541 21.5514 118.225 21.9418 118.328 22.9145C118.459 24.1508 120.772 24.2325 121.671 24.7409C123.055 25.5247 123.742 27.1313 122.965 28.5077C123.206 28.1973 123.381 27.8404 123.478 27.4595C123.574 27.0785 123.592 26.6817 123.528 26.2938C123.41 25.5533 122.852 24.8256 122.225 24.4373C121.351 23.8962 120.311 23.8754 119.399 23.4379C119.037 23.2644 118.762 22.7806 119.016 22.4314C119.274 22.077 119.765 22.0067 120.167 21.9758C120.674 21.948 121.177 22.0923 121.592 22.3853C121.893 22.6111 121.958 22.8439 122.069 23.1776C122.159 23.4466 122.279 23.6437 122.601 23.5674C122.898 23.4968 123.25 22.8101 123.291 22.5361C123.31 22.3579 123.289 22.178 123.232 22.0085C123.174 21.839 123.08 21.6839 122.957 21.554C122.953 21.5489 122.948 21.5445 122.944 21.5397C122.988 22.0888 122.665 22.549 121.857 22.12Z" fill="white"/>
</g>
<g style="mix-blend-mode:multiply">
<path d="M118.447 26.6458C118.459 26.2208 118.25 26.0149 117.989 25.9749C117.871 26.0467 117.781 26.1576 117.737 26.2884C117.692 26.4192 117.695 26.5615 117.744 26.6906C117.797 26.9044 117.887 27.1076 118.009 27.291C118.235 27.6336 118.537 27.9192 118.892 28.1256C119.333 28.3575 119.823 28.482 120.322 28.4889C120.809 28.4937 121.366 28.4419 121.77 28.1374C122.281 27.752 122.422 27.1371 122.134 26.6741C122.494 27.5354 121.585 28.0706 120.817 28.2433C119.844 28.4622 118.417 27.7546 118.447 26.6458Z" fill="white"/>
</g>
<path d="M202.35 26.2938C202.232 25.5533 201.674 24.8256 201.047 24.4373C200.173 23.8962 199.133 23.8754 198.221 23.4379C197.859 23.2644 197.585 22.7806 197.839 22.4314C198.096 22.077 198.588 22.0067 198.989 21.9758C199.497 21.948 199.999 22.0923 200.414 22.3853C200.715 22.6111 200.78 22.8439 200.891 23.1776C200.981 23.4466 201.101 23.6437 201.423 23.5674C201.721 23.4968 202.072 22.8101 202.114 22.5361C202.132 22.3579 202.112 22.178 202.054 22.0085C201.996 21.839 201.903 21.6839 201.779 21.554C201.293 20.9951 200.462 20.8115 199.764 20.6932C199.376 20.6308 198.983 20.6036 198.59 20.612C197.065 20.6298 195.292 22.1596 195.972 23.7647C196.328 24.6031 197.335 25.133 198.17 25.4079C199.148 25.7306 200.314 25.5267 200.88 26.5238C201.419 27.4735 200.449 28.0608 199.637 28.2433C198.665 28.4617 197.239 27.7542 197.269 26.6453C197.299 25.5415 195.846 25.9116 195.822 26.8448C195.773 28.8277 197.708 30.1303 199.566 29.8176C201.277 29.5302 202.633 28.0608 202.35 26.2938Z" fill="white"/>
<g style="mix-blend-mode:multiply">
<path d="M200.679 22.12C200.17 21.85 199.689 21.5893 199.091 21.5723C198.363 21.5514 197.046 21.9418 197.149 22.9145C197.281 24.1508 199.594 24.2325 200.492 24.7409C201.877 25.5247 202.564 27.1313 201.787 28.5077C202.028 28.1973 202.202 27.8404 202.299 27.4595C202.396 27.0785 202.413 26.6817 202.35 26.2938C202.231 25.5533 201.674 24.8256 201.047 24.4373C200.173 23.8962 199.133 23.8754 198.22 23.4379C197.859 23.2644 197.584 22.7806 197.838 22.4314C198.096 22.077 198.587 22.0067 198.988 21.9758C199.496 21.948 199.998 22.0923 200.414 22.3853C200.715 22.6111 200.779 22.8439 200.891 23.1776C200.981 23.4466 201.101 23.6437 201.422 23.5674C201.72 23.4968 202.072 22.8101 202.113 22.5361C202.131 22.3579 202.111 22.178 202.053 22.0085C201.996 21.839 201.902 21.6839 201.779 21.554C201.774 21.5489 201.77 21.5445 201.765 21.5397C201.81 22.0888 201.487 22.549 200.679 22.12Z" fill="white"/>
</g>
<g style="mix-blend-mode:multiply">
<path d="M197.269 26.6458C197.28 26.2208 197.072 26.0149 196.81 25.9749C196.692 26.0467 196.603 26.1576 196.558 26.2884C196.514 26.4192 196.516 26.5615 196.566 26.6906C196.619 26.9044 196.709 27.1076 196.831 27.291C197.057 27.6336 197.359 27.9192 197.713 28.1256C198.155 28.3575 198.645 28.482 199.144 28.4889C199.63 28.4937 200.188 28.4419 200.591 28.1374C201.103 27.752 201.244 27.1371 200.955 26.6741C201.315 27.5354 200.407 28.0706 199.638 28.2433C198.666 28.4622 197.239 27.7546 197.269 26.6458Z" fill="white"/>
</g>
<path d="M130.476 21.3482C130.427 21.309 130.378 21.2722 130.327 21.2379C129.838 20.9083 129.374 20.871 128.793 20.7946C128.585 20.7852 128.248 20.7859 128.039 20.7755C127.413 20.7825 126.781 20.7427 126.157 20.7808C125.865 20.7985 125.527 20.7388 125.251 20.8611C124.903 21.0156 124.866 21.4356 124.83 21.7696C124.824 22.0754 124.812 22.3811 124.796 22.6868C124.805 22.8118 124.814 22.9248 124.817 23.0171C124.856 24.1168 124.81 25.146 124.819 26.2465C124.827 27.1871 124.717 28.3992 124.921 29.4183C124.99 29.7629 125.647 29.7639 125.966 29.6094C126.457 29.3716 126.333 28.6912 126.338 28.2383C126.345 27.461 126.349 26.6835 126.349 25.9055C127.494 26.0165 128.833 25.9699 129.82 25.4783C130.241 25.258 130.596 24.9302 130.849 24.5281C131.102 24.1261 131.243 23.6642 131.259 23.1895C131.271 22.844 131.207 22.5002 131.072 22.1821C130.936 21.864 130.733 21.5794 130.476 21.3482ZM128.42 24.4604C128.227 24.5478 128.019 24.5976 127.807 24.6071C127.681 24.6139 126.348 24.5712 126.348 24.5529C126.348 24.4641 126.348 24.3753 126.348 24.2864C126.346 23.7609 126.383 23.0573 126.385 22.435C127.017 22.4656 127.8 22.3494 128.43 22.5835C128.995 22.7929 129.306 23.552 128.911 24.0541C128.777 24.2223 128.61 24.3607 128.42 24.4604Z" fill="white"/>
<g style="mix-blend-mode:multiply">
<path d="M130.476 21.3482C130.427 21.309 130.378 21.2722 130.327 21.2378C129.876 20.9343 129.446 20.8788 128.927 20.8121C129.912 21.1738 130.683 21.8439 130.589 23.0744C130.562 23.5106 130.437 23.9351 130.223 24.3164C130.009 24.6977 129.713 25.0261 129.355 25.2773C128.819 25.6304 128.26 25.7256 127.64 25.8474C127.462 25.8725 127.286 25.9073 127.113 25.9517C128.056 25.9749 129.046 25.8636 129.82 25.4778C130.241 25.2576 130.596 24.9297 130.849 24.5277C131.102 24.1256 131.243 23.6637 131.259 23.1891C131.271 22.8436 131.207 22.4999 131.072 22.1819C130.936 21.8639 130.733 21.5793 130.476 21.3482Z" fill="white"/>
</g>
<g style="mix-blend-mode:multiply">
<path d="M126.348 24.2864C126.346 23.7609 126.383 23.0573 126.384 22.435H126.388C126.346 22.3316 126.267 22.1412 126.222 22.2851C126.141 22.5487 126.102 22.8234 126.107 23.0992C126.111 23.5359 126.149 23.9687 126.121 24.4045C126.101 24.7255 126.221 24.6602 126.348 24.503C126.348 24.4309 126.348 24.3587 126.348 24.2864Z" fill="white"/>
</g>
<g style="mix-blend-mode:multiply">
<path d="M126.395 25.9096C126.167 25.6345 126.063 26.3016 126.063 26.3783C126.063 26.6184 126.096 26.8609 126.089 27.1002C126.065 27.8538 126.324 28.9764 125.865 29.6467C125.864 29.6478 125.863 29.6489 125.862 29.6499C125.898 29.6389 125.932 29.6254 125.966 29.6097C126.457 29.3719 126.333 28.6915 126.338 28.2386C126.345 27.4613 126.349 26.6838 126.349 25.9058C126.364 25.908 126.38 25.908 126.395 25.9096Z" fill="white"/>
</g>
<path d="M136.028 20.2051C135.893 20.0784 135.715 20.0053 135.529 19.9997C135.344 19.9941 135.162 20.0562 135.019 20.1746C134.252 20.7058 133.782 22.0555 133.433 22.8791C133.266 23.2786 133.12 23.6868 132.997 24.1019C132.445 25.9315 131.536 27.8358 131.074 29.6919C130.931 30.2636 132.237 30.7376 132.56 30.149C133.217 28.9489 133.339 28.1498 133.833 26.8962C133.868 26.7945 136.072 26.8197 136.34 26.8433C136.47 26.8551 136.601 26.8417 136.726 26.8038C136.854 27.162 136.984 27.5189 137.113 27.8763C137.393 28.6501 137.453 29.5302 138.041 30.1195C138.579 30.6578 139.63 30.4405 139.818 29.7875C140.012 29.1118 139.54 28.4139 139.273 27.8407C138.963 27.1732 138.776 26.4994 138.532 25.8055C138.169 24.7733 137.728 23.7543 137.339 22.7224C137.031 21.9077 136.73 20.7797 136.028 20.2051ZM134.427 24.9821C134.665 24.3068 134.872 23.4535 135.241 22.7849C135.564 23.4524 135.834 24.145 136.046 24.8558C135.558 24.9917 134.967 24.9638 134.427 24.9821Z" fill="white"/>
<g style="mix-blend-mode:multiply">
<path d="M135.241 22.7849C135.259 22.8207 135.279 22.8623 135.298 22.9009C135.293 22.8217 135.281 22.7431 135.263 22.666C135.157 22.2565 134.925 22.6146 134.84 22.7961C134.49 23.5515 134.276 24.3631 134.21 25.193C134.464 25.1395 134.712 25.0655 134.953 24.9715C134.776 24.9748 134.599 24.9763 134.427 24.9821C134.665 24.3068 134.872 23.4531 135.241 22.7849Z" fill="white"/>
</g>
<g style="mix-blend-mode:multiply">
<path d="M133.341 27.3176C133.228 27.9799 132.835 28.5642 132.525 29.1612C132.343 29.5128 132.027 30.0649 131.662 30.3601C132.006 30.4692 132.402 30.4373 132.56 30.1482C133.217 28.9481 133.34 28.149 133.833 26.8954C133.855 26.8318 134.727 26.8179 135.441 26.8223C134.667 26.4946 133.517 26.2906 133.341 27.3176Z" fill="white"/>
</g>
<g style="mix-blend-mode:multiply">
<path d="M139.274 27.8399C138.963 27.1724 138.776 26.4986 138.532 25.8048C138.169 24.7733 137.728 23.7543 137.339 22.7224C137.031 21.9077 136.73 20.7797 136.029 20.2051C135.893 20.0784 135.715 20.0053 135.529 19.9997C135.344 19.9941 135.162 20.0562 135.019 20.1746C134.929 20.2382 134.844 20.3099 134.767 20.3886C136.017 20.5633 136.94 23.8901 137.233 24.6533C137.825 26.1961 138.798 27.6956 138.98 29.3654C139.029 29.717 139.008 30.0748 138.919 30.4183C139.329 30.3861 139.712 30.1563 139.818 29.7867C140.012 29.1111 139.54 28.4125 139.274 27.8399Z" fill="white"/>
</g>
<path d="M148.109 28.6832C147.344 27.747 146.607 26.6465 145.816 25.8373C145.964 25.7894 146.109 25.7327 146.25 25.6675C146.673 25.4683 147.034 25.1579 147.294 24.7694C147.554 24.3809 147.704 23.9289 147.727 23.4619C147.737 23.1244 147.669 22.7891 147.53 22.4816C147.391 22.174 147.183 21.9024 146.923 21.6872C146.873 21.6495 146.822 21.6139 146.77 21.5802C146.268 21.2626 145.792 21.227 145.195 21.1533C144.981 21.1443 144.635 21.145 144.421 21.1348C143.779 21.1415 143.13 21.1033 142.489 21.14C142.189 21.1573 141.842 21.0995 141.559 21.2173C141.142 21.391 141.133 21.9324 141.12 22.312C141.071 23.6701 141.103 25.0481 141.115 26.4072C141.123 27.3136 141.011 28.4817 141.22 29.4643C141.291 29.7962 141.965 29.7971 142.292 29.6477C142.797 29.4184 142.67 28.7627 142.675 28.3264C142.682 27.5774 142.686 26.8281 142.686 26.0784C143.192 26.137 143.702 26.1516 144.21 26.1219C144.249 26.1193 144.599 26.7665 144.643 26.8341C144.797 27.0687 144.946 27.3064 145.094 27.5452C145.573 28.3198 146.143 29.0349 146.79 29.6759C147.392 30.2801 148.602 29.2873 148.109 28.6832ZM142.686 24.7762C142.686 24.6916 142.686 24.6071 142.686 24.5227C142.683 24.0233 142.721 23.354 142.723 22.7627C143.363 22.7907 144.156 22.6811 144.795 22.9038C145.366 23.1025 145.681 23.8245 145.281 24.302C145.144 24.4637 144.975 24.5952 144.784 24.6883C144.587 24.7718 144.377 24.8189 144.164 24.8275C144.035 24.8341 142.686 24.7934 142.686 24.7762Z" fill="white"/>
<g style="mix-blend-mode:multiply" opacity="0.8">
<path d="M148.109 28.6832C147.344 27.7469 146.607 26.6465 145.816 25.8373C145.964 25.7894 146.109 25.7327 146.25 25.6675C146.673 25.4683 147.034 25.1578 147.294 24.7694C147.554 24.3809 147.704 23.9289 147.727 23.4619C147.737 23.1244 147.669 22.7891 147.53 22.4816C147.391 22.174 147.183 21.9024 146.923 21.6872C146.873 21.6495 146.822 21.6138 146.77 21.5802C146.489 21.4061 146.175 21.291 145.848 21.2418C146.434 21.5616 146.979 22.0636 147.132 22.7308C147.441 24.0816 146.462 25.1788 145.241 25.5192C145.944 26.4788 146.815 27.3382 147.444 28.3336C147.688 28.7196 147.961 29.4308 147.507 29.7983C147.488 29.8136 147.468 29.824 147.449 29.8376C147.974 29.7067 148.451 29.1017 148.109 28.6832Z" fill="white"/>
</g>
<g style="mix-blend-mode:multiply" opacity="0.8">
<path d="M142.685 24.5227C142.683 24.0233 142.721 23.354 142.723 22.7627C142.81 22.7665 142.901 22.7676 142.994 22.7675C142.95 22.7093 142.893 22.6627 142.827 22.6318C142.761 22.601 142.689 22.5867 142.616 22.5904C142.313 22.625 142.424 23.6748 142.419 23.8986C142.414 24.1118 142.421 24.3266 142.406 24.5406C142.401 24.6121 142.377 25.187 142.59 24.9257C142.628 24.879 142.662 24.8297 142.692 24.7781L142.686 24.7768C142.685 24.6922 142.686 24.6071 142.685 24.5227Z" fill="white"/>
</g>
<g style="mix-blend-mode:multiply" opacity="0.8">
<path d="M143.278 26.1258C142.936 25.8471 142.32 25.6302 142.257 26.5985C142.223 27.1092 142.236 27.6178 142.233 28.1291C142.229 28.6974 142.21 29.3246 141.818 29.7433C141.981 29.7426 142.142 29.7105 142.293 29.6487C142.798 29.4194 142.671 28.7636 142.675 28.3274C142.683 27.5784 142.687 26.829 142.687 26.0793C142.894 26.0985 143.087 26.1146 143.278 26.1258Z" fill="white"/>
</g>
<path d="M185.757 28.6832C184.993 27.747 184.256 26.6465 183.464 25.8373C183.612 25.7894 183.757 25.7327 183.898 25.6675C184.321 25.4683 184.682 25.1579 184.942 24.7694C185.203 24.3809 185.352 23.9289 185.376 23.4619C185.385 23.1244 185.318 22.7891 185.179 22.4816C185.039 22.174 184.831 21.9024 184.571 21.6872C184.522 21.6495 184.471 21.6139 184.418 21.5802C183.916 21.2626 183.44 21.227 182.844 21.1533C182.63 21.1443 182.284 21.145 182.069 21.1348C181.427 21.1415 180.779 21.1033 180.137 21.14C179.838 21.1573 179.491 21.0995 179.207 21.2173C178.791 21.391 178.782 21.9324 178.768 22.312C178.72 23.6701 178.752 25.0481 178.764 26.4072C178.772 27.3136 178.659 28.4817 178.869 29.4643C178.939 29.7962 179.613 29.7971 179.941 29.6477C180.445 29.4184 180.318 28.7627 180.323 28.3264C180.331 27.5774 180.335 26.8281 180.335 26.0784C180.841 26.137 181.351 26.1516 181.859 26.1219C181.898 26.1193 182.247 26.7665 182.292 26.8341C182.446 27.0687 182.595 27.3064 182.743 27.5452C183.222 28.3198 183.791 29.0349 184.438 29.6759C185.041 30.2801 186.251 29.2873 185.757 28.6832ZM180.334 24.7762C180.334 24.6916 180.334 24.6071 180.334 24.5227C180.332 24.0233 180.37 23.354 180.371 22.7627C181.012 22.7907 181.805 22.6811 182.443 22.9038C183.015 23.1025 183.33 23.8245 182.929 24.302C182.792 24.4637 182.623 24.5952 182.433 24.6883C182.236 24.7718 182.026 24.8189 181.812 24.8275C181.684 24.8341 180.334 24.7934 180.334 24.7762Z" fill="white"/>
<g style="mix-blend-mode:multiply" opacity="0.8">
<path d="M185.757 28.6832C184.993 27.7469 184.256 26.6465 183.464 25.8373C183.612 25.7894 183.757 25.7327 183.898 25.6675C184.321 25.4683 184.682 25.1578 184.942 24.7694C185.203 24.3809 185.352 23.9289 185.376 23.4619C185.385 23.1244 185.318 22.7891 185.179 22.4816C185.039 22.174 184.831 21.9024 184.571 21.6872C184.522 21.6495 184.471 21.6138 184.418 21.5802C184.137 21.4061 183.824 21.291 183.497 21.2418C184.082 21.5616 184.628 22.0636 184.781 22.7308C185.089 24.0816 184.11 25.1788 182.89 25.5192C183.593 26.4788 184.464 27.3382 185.093 28.3336C185.336 28.7196 185.609 29.4308 185.155 29.7983C185.137 29.8136 185.117 29.824 185.098 29.8376C185.623 29.7067 186.099 29.1017 185.757 28.6832Z" fill="white"/>
</g>
<g style="mix-blend-mode:multiply" opacity="0.8">
<path d="M180.334 24.5227C180.332 24.0233 180.37 23.354 180.371 22.7627C180.459 22.7665 180.549 22.7676 180.642 22.7675C180.598 22.7093 180.541 22.6627 180.475 22.6318C180.41 22.601 180.337 22.5867 180.265 22.5904C179.962 22.625 180.072 23.6748 180.067 23.8986C180.063 24.1118 180.069 24.3266 180.055 24.5406C180.05 24.6121 180.026 25.187 180.239 24.9257C180.276 24.879 180.31 24.8297 180.341 24.7781L180.334 24.7768C180.334 24.6922 180.334 24.6071 180.334 24.5227Z" fill="white"/>
</g>
<g style="mix-blend-mode:multiply" opacity="0.8">
<path d="M180.926 26.1258C180.584 25.8471 179.968 25.6302 179.905 26.5985C179.872 27.1092 179.884 27.6178 179.881 28.1291C179.877 28.6974 179.859 29.3246 179.467 29.7433C179.63 29.7426 179.791 29.7105 179.942 29.6487C180.446 29.4194 180.319 28.7636 180.324 28.3274C180.331 27.5784 180.335 26.829 180.336 26.0793C180.543 26.0985 180.736 26.1146 180.926 26.1258Z" fill="white"/>
</g>
<path d="M155.968 28.5858C155.425 27.9227 154.25 28.1717 153.522 28.197C152.681 28.2262 151.879 28.2045 151.055 28.197C151.063 27.4084 151.067 26.6196 151.069 25.8306C151.361 25.8314 151.654 25.8318 151.946 25.8316C152.807 25.8301 154.07 25.9119 154.935 25.8599C155.329 25.8364 156.041 25.3428 155.554 24.8118C155.01 24.2176 153.832 24.4406 153.103 24.463C152.41 24.4842 151.744 24.4738 151.07 24.4654V24.4547C151.069 23.8263 151.114 22.9914 151.12 22.2406C151.53 22.2415 151.94 22.2418 152.35 22.2415C153.209 22.2398 154.469 22.3311 155.332 22.2721C155.726 22.2458 156.436 21.6946 155.951 21.1013C155.407 20.4382 154.232 20.6874 153.505 20.7125C152.498 20.7473 151.551 20.7076 150.55 20.7094C150.55 20.716 150.55 20.7227 150.55 20.7294C150.261 20.7539 149.981 20.7981 149.758 21.0232C149.704 21.078 149.656 21.1376 149.613 21.2013C149.384 21.6576 149.469 22.2338 149.468 22.8843C149.466 23.9848 149.454 25.3758 149.461 26.4764C149.464 27.0276 149.486 27.556 149.471 28.1068C149.459 28.508 149.417 29.0698 149.685 29.4061C149.911 29.6916 150.382 29.6988 150.721 29.7295C151.267 29.7795 151.819 29.7254 152.366 29.7242C153.226 29.7225 154.486 29.8136 155.349 29.7547C155.744 29.7303 156.454 29.1791 155.968 28.5858Z" fill="white"/>
<g style="mix-blend-mode:multiply">
<path d="M155.684 20.9943C155.728 21.321 155.634 21.688 155.285 21.8117C154.729 22.0087 154.076 21.8999 153.498 21.8806C152.569 21.85 151.642 21.8195 150.714 21.8806C150.699 22.6143 150.741 23.3538 150.71 24.0853C150.698 24.3812 150.88 24.5652 151.07 24.5062C151.072 23.8859 151.114 22.9668 151.12 22.2412C151.53 22.2421 151.94 22.2424 152.349 22.2421C153.209 22.2404 154.469 22.3317 155.332 22.2727C155.726 22.2464 156.436 21.6952 155.95 21.1019C155.864 20.9989 155.759 20.9133 155.641 20.8496C155.662 20.8956 155.676 20.9443 155.684 20.9943Z" fill="white"/>
</g>
<g style="mix-blend-mode:multiply">
<path d="M154.942 25.1863C154.659 25.8034 153.34 25.5917 152.852 25.5565C152.471 25.529 152.087 25.5106 151.705 25.4954C151.135 25.473 150.567 25.3313 150.558 26.0521C150.552 26.5426 150.518 27.0196 150.494 27.5088C150.475 27.7125 150.48 27.9179 150.511 28.1202C150.785 28.418 150.99 28.4412 151.128 28.1985C151.104 28.1985 151.079 28.1976 151.055 28.1976C151.063 27.409 151.067 26.6202 151.069 25.8312C151.361 25.832 151.653 25.8324 151.946 25.8323C152.807 25.8307 154.07 25.9125 154.934 25.8605C155.329 25.837 156.041 25.3434 155.554 24.8124C155.388 24.643 155.176 24.5266 154.945 24.4779C154.997 24.5887 155.024 24.7098 155.024 24.8324C155.023 24.9549 154.996 25.0759 154.942 25.1863Z" fill="white"/>
</g>
<g style="mix-blend-mode:multiply">
<path d="M155.968 28.5858C155.864 28.4609 155.733 28.3611 155.585 28.2942C155.594 28.3508 155.598 28.4082 155.597 28.4655C155.583 29.1182 155.054 29.3624 154.471 29.4438C153.298 29.6085 152.055 29.5105 150.876 29.488C150.513 29.4813 150.143 29.4924 149.773 29.4935C150.019 29.6931 150.421 29.7029 150.722 29.7301C151.268 29.7801 151.819 29.726 152.367 29.7248C153.227 29.7231 154.486 29.8142 155.35 29.7554C155.744 29.7303 156.454 29.1791 155.968 28.5858Z" fill="white"/>
</g>
<path d="M167.926 22.0625C167.877 22.0233 167.828 21.9865 167.777 21.9521C167.288 21.6226 166.824 21.5853 166.243 21.5089C166.035 21.4995 165.698 21.5001 165.489 21.4898C164.863 21.4968 164.232 21.457 163.607 21.4951C163.315 21.5128 162.977 21.4531 162.701 21.5754C162.353 21.7299 162.317 22.1499 162.28 22.4839C162.274 22.7897 162.262 23.0954 162.246 23.4011C162.255 23.5261 162.264 23.6391 162.267 23.7314C162.306 24.8311 162.26 25.8603 162.269 26.9608C162.277 27.9014 162.167 29.1135 162.371 30.1326C162.44 30.4772 163.097 30.4782 163.416 30.3237C163.907 30.0858 163.783 29.4055 163.788 28.9526C163.795 28.1753 163.799 27.3977 163.799 26.6198C164.944 26.7308 166.283 26.6842 167.27 26.1926C167.691 25.9723 168.046 25.6445 168.299 25.2424C168.552 24.8404 168.693 24.3785 168.71 23.9038C168.721 23.5583 168.657 23.2145 168.522 22.8964C168.386 22.5783 168.183 22.2937 167.926 22.0625ZM165.87 25.1747C165.677 25.262 165.469 25.3118 165.257 25.3214C165.131 25.3282 163.798 25.2855 163.798 25.2672C163.798 25.1784 163.798 25.0895 163.798 25.0007C163.796 24.4752 163.834 23.7716 163.835 23.1493C164.467 23.1799 165.25 23.0637 165.88 23.2978C166.445 23.5072 166.756 24.2663 166.361 24.7684C166.227 24.9366 166.06 25.075 165.87 25.1747Z" fill="white"/>
<g style="mix-blend-mode:multiply">
<path d="M167.926 22.0625C167.877 22.0233 167.828 21.9865 167.777 21.9521C167.326 21.6486 166.896 21.5931 166.377 21.5264C167.362 21.8881 168.133 22.5582 168.039 23.7887C168.012 24.2249 167.887 24.6494 167.673 25.0307C167.459 25.412 167.163 25.7404 166.805 25.9915C166.269 26.3446 165.71 26.4399 165.09 26.5617C164.912 26.5868 164.736 26.6216 164.563 26.666C165.506 26.6892 166.496 26.5779 167.27 26.1921C167.691 25.9719 168.046 25.644 168.299 25.242C168.552 24.8399 168.693 24.378 168.71 23.9034C168.721 23.5579 168.657 23.2142 168.522 22.8962C168.386 22.5782 168.183 22.2936 167.926 22.0625Z" fill="white"/>
</g>
<g style="mix-blend-mode:multiply">
<path d="M163.798 25.0007C163.796 24.4752 163.833 23.7716 163.834 23.1493H163.838C163.796 23.0458 163.717 22.8555 163.672 22.9994C163.591 23.263 163.552 23.5377 163.557 23.8135C163.561 24.2502 163.599 24.6829 163.571 25.1187C163.551 25.4397 163.671 25.3745 163.798 25.2173C163.798 25.1452 163.798 25.073 163.798 25.0007Z" fill="white"/>
</g>
<g style="mix-blend-mode:multiply">
<path d="M163.845 26.6239C163.617 26.3488 163.513 27.0159 163.513 27.0926C163.513 27.3327 163.546 27.5752 163.539 27.8145C163.515 28.5681 163.774 29.6907 163.315 30.361C163.314 30.3621 163.313 30.3632 163.312 30.3642C163.348 30.3532 163.382 30.3397 163.416 30.324C163.907 30.0862 163.783 29.4058 163.788 28.9529C163.795 28.1756 163.799 27.3981 163.799 26.6201C163.814 26.6223 163.83 26.6223 163.845 26.6239Z" fill="white"/>
</g>
<path d="M173.677 20.9694C173.541 20.8426 173.364 20.7696 173.178 20.764C172.992 20.7584 172.811 20.8205 172.667 20.9389C171.9 21.47 171.43 22.8198 171.082 23.6434C170.914 24.0428 170.769 24.4511 170.646 24.8662C170.094 26.6958 169.184 28.6001 168.722 30.4562C168.58 31.0279 169.886 31.5019 170.208 30.9133C170.865 29.7132 170.988 28.914 171.481 27.6605C171.517 27.5588 173.72 27.584 173.988 27.6076C174.118 27.6194 174.25 27.606 174.375 27.5681C174.502 27.9263 174.633 28.2832 174.762 28.6406C175.041 29.4143 175.101 30.2945 175.69 30.8838C176.228 31.4221 177.279 31.2048 177.466 30.5518C177.66 29.8761 177.188 29.1782 176.922 28.605C176.612 27.9374 176.424 27.2636 176.18 26.5698C175.818 25.5376 175.377 24.5186 174.987 23.4867C174.68 22.672 174.378 21.544 173.677 20.9694ZM172.075 25.7464C172.314 25.0711 172.52 24.2178 172.889 23.5492C173.213 24.2167 173.482 24.9092 173.694 25.6201C173.206 25.756 172.616 25.728 172.075 25.7464Z" fill="white"/>
<g style="mix-blend-mode:multiply">
<path d="M172.889 23.5492C172.908 23.585 172.927 23.6265 172.946 23.6652C172.941 23.586 172.93 23.5074 172.911 23.4303C172.805 23.0208 172.573 23.3789 172.488 23.5604C172.138 24.3158 171.925 25.1274 171.859 25.9573C172.112 25.9038 172.361 25.8297 172.602 25.7358C172.425 25.739 172.247 25.7406 172.075 25.7464C172.314 25.0711 172.52 24.2173 172.889 23.5492Z" fill="white"/>
</g>
<g style="mix-blend-mode:multiply">
<path d="M170.99 28.0819C170.877 28.7442 170.484 29.3284 170.174 29.9255C169.991 30.2771 169.675 30.8292 169.31 31.1244C169.655 31.2335 170.05 31.2015 170.208 30.9125C170.866 29.7124 170.988 28.9133 171.481 27.6597C171.504 27.5961 172.375 27.5822 173.09 27.5866C172.316 27.2589 171.166 27.0548 170.99 28.0819Z" fill="white"/>
</g>
<g style="mix-blend-mode:multiply">
<path d="M176.922 28.6042C176.612 27.9367 176.425 27.2629 176.181 26.5691C175.818 25.5376 175.377 24.5186 174.987 23.4867C174.68 22.672 174.378 21.544 173.677 20.9694C173.541 20.8426 173.364 20.7696 173.178 20.764C172.992 20.7584 172.811 20.8205 172.667 20.9389C172.577 21.0025 172.493 21.0741 172.415 21.1529C173.666 21.3276 174.588 24.6544 174.881 25.4176C175.473 26.9604 176.447 28.4599 176.628 30.1297C176.677 30.4813 176.656 30.839 176.567 31.1826C176.977 31.1503 177.36 30.9206 177.467 30.551C177.661 29.8754 177.189 29.1768 176.922 28.6042Z" fill="white"/>
</g>
<path d="M194.457 21.9317C194.008 21.2695 193.041 21.5208 192.442 21.5474C191.566 21.5862 190.745 21.5402 189.869 21.5495C189.12 21.5575 188.033 21.4295 187.311 21.7279C187.046 21.838 187.067 22.3771 187.189 22.6959C187.379 23.1869 187.921 23.0637 188.282 23.0681C188.863 23.0752 189.444 23.0791 190.027 23.0798C190.034 23.4662 190.082 23.8515 190.092 24.1595C190.131 25.2592 190.085 26.2884 190.095 27.389C190.103 28.3295 189.975 29.6936 190.273 30.599C190.383 30.9327 190.922 30.9064 191.241 30.7518C191.732 30.514 191.609 29.8336 191.613 29.3807C191.626 28.038 191.63 26.6947 191.623 25.3509C191.621 24.7059 191.666 23.8453 191.669 23.0798C192.365 23.0885 193.295 23.1586 193.949 23.1036C194.273 23.0756 194.858 22.524 194.457 21.9317Z" fill="white"/>
<g style="mix-blend-mode:multiply">
<path d="M190.045 23.4531C190.145 23.266 190.182 23.0831 190.046 22.9761C189.686 22.6941 189.178 22.8441 188.764 22.8632C188.365 22.8869 187.965 22.8749 187.568 22.8274C187.448 22.812 187.329 22.7853 187.214 22.7478C187.421 23.1758 187.935 23.0639 188.282 23.0688C188.863 23.0758 189.445 23.0797 190.027 23.0804C190.029 23.2056 190.037 23.33 190.045 23.4531Z" fill="white"/>
</g>
<g style="mix-blend-mode:multiply">
<path d="M194.457 21.9317C194.371 21.8104 194.26 21.7091 194.131 21.6349C194.002 21.5607 193.859 21.5152 193.711 21.5017C193.778 21.5575 193.84 21.62 193.895 21.6885C194.099 21.9427 194.241 22.468 193.905 22.6869C193.459 22.9774 192.819 22.9025 192.312 22.8844C192.015 22.8618 191.716 22.8547 191.418 22.8632C191.208 22.8785 191.267 23.5269 191.268 23.634C191.275 24.1767 191.31 24.7172 191.336 25.2589C191.393 26.4585 191.233 27.6461 191.266 28.8437C191.283 29.4715 191.446 30.3219 190.993 30.835C191.079 30.8172 191.162 30.7892 191.241 30.7518C191.732 30.514 191.609 29.8336 191.614 29.3807C191.627 28.038 191.63 26.6948 191.623 25.3509C191.621 24.7059 191.666 23.8453 191.669 23.0798C192.366 23.0885 193.295 23.1587 193.95 23.1036C194.273 23.0756 194.858 22.524 194.457 21.9317Z" fill="white"/>
</g>
</g>
<g clip-path="url(#clip1_482_3535)">
<path d="M12.3868 9.05313L5.58801 31H13.5044L20.3031 9.05313H12.3868Z" fill="#444444"/>
<path d="M57.277 18.7463L62.6788 31H55.2281L50.6645 21.3068L47.5911 31H39.6748L46.3804 9.41888H54.2968L52.341 15.8201L60.1642 9.41888H68.8255L57.277 18.7463Z" fill="#444444"/>
<path d="M92.9471 11.2478C92.7804 10.7593 92.4923 10.3193 92.1089 9.96757C91.9265 9.78732 91.7085 9.64565 91.4683 9.55129C91.228 9.45692 90.9706 9.41186 90.7119 9.41889H72.1784L70.5019 14.7227H85.1239L84.2857 17.5575H73.1097C72.5224 17.5804 71.9485 17.7369 71.4333 18.0148C70.8308 18.3833 70.269 18.8123 69.7569 19.295C69.2133 19.8095 68.7434 20.3939 68.3599 21.0324C67.976 21.6033 67.6633 22.2173 67.4285 22.8614L66.5904 25.6962C66.3998 26.2876 66.3055 26.9048 66.311 27.5251C66.3054 28.1154 66.3998 28.7026 66.5904 29.2625C66.7571 29.751 67.0452 30.191 67.4285 30.5428C67.6164 30.7099 67.8376 30.8368 68.0781 30.9155C68.3186 30.9942 68.5731 31.023 68.8256 31H87.9179L92.9471 14.7227C93.1377 14.1313 93.2319 13.5141 93.2265 12.8938C93.2246 12.3339 93.1303 11.778 92.9471 11.2478ZM81.7711 25.6962H74.5998L75.4381 22.8614H82.6093L81.7711 25.6962Z" fill="#444444"/>
<path d="M42.562 9.41888L40.8856 14.7227H33.0624L28.0332 31H20.1168L25.146 14.7227C25.798 11.9793 28.0332 9.69322 30.3615 9.41888H42.562Z" fill="#444444"/>
<path d="M114.554 9.41888L112.878 14.7227H105.054L100.025 31H92.1089L97.1381 14.7227C97.79 11.9793 100.025 9.69322 102.354 9.41888H114.554Z" fill="#444444"/>
<path d="M118 0L115.951 6.58408H99.9321L101.981 0H118Z" fill="#FACF9C"/>
<path d="M101.981 0L99.9321 6.58408H72.2715L74.3204 0H101.981Z" fill="#F6A647"/>
<path d="M74.3205 0L72.2715 6.58408H35.4838L37.5328 0H74.3205Z" fill="#F28400"/>
<path d="M2.04895 0L0 6.58408H32.5967L34.5525 0H2.04895Z" fill="#444444"/>
</g>
<defs>
<clipPath id="clip0_482_3535">
<rect width="85.388" height="11.187" fill="white" transform="translate(117 20)"/>
</clipPath>
<clipPath id="clip1_482_3535">
<rect width="118" height="31" fill="white"/>
</clipPath>
</defs>
</svg>
