<svg width="24" height="24" viewBox="0 0 24 24" fill="none" xmlns="http://www.w3.org/2000/svg">
<path d="M20.1427 23.9172H2.25C1.0095 23.9172 0 22.9077 0 21.6672V3.77369C0 2.53319 1.0095 1.52369 2.25 1.52369H14.4105C14.8253 1.52369 15.1605 1.85969 15.1605 2.27369C15.1605 2.68769 14.8253 3.02369 14.4105 3.02369H2.25C1.83675 3.02369 1.5 3.36044 1.5 3.77369V21.6672C1.5 22.0804 1.83675 22.4172 2.25 22.4172H20.1427C20.5567 22.4172 20.8927 22.0804 20.8927 21.6672V9.50595C20.8927 9.09194 21.228 8.75595 21.6427 8.75595C22.0575 8.75595 22.3927 9.09194 22.3927 9.50595V21.6672C22.3927 22.9077 21.384 23.9172 20.1427 23.9172ZM18.3615 17.6217C18.36 17.6217 18.3592 17.6217 18.3577 17.6217L3.894 17.5549C3.47925 17.5534 3.1455 17.2159 3.147 16.8019C3.1485 16.3887 3.4845 16.0549 3.897 16.0549C3.89775 16.0549 3.89925 16.0549 3.9 16.0549L18.3645 16.1217C18.7785 16.1232 19.113 16.4607 19.1108 16.8747C19.1093 17.2879 18.774 17.6217 18.3615 17.6217ZM11.4383 13.8109C11.085 13.8109 10.8525 13.6609 10.7205 13.5364C10.4977 13.3264 10.1888 12.8382 10.6155 11.9232L11.088 10.9107C11.475 10.0827 12.285 8.9262 12.9323 8.27819L19.5 1.71044C19.5023 1.70894 19.5037 1.70745 19.5052 1.70595C19.5068 1.70445 19.5083 1.70294 19.5098 1.70144L19.848 1.36319C20.724 0.486445 22.0823 0.416695 22.875 1.20794C23.667 1.99919 23.5972 3.35744 22.7197 4.23494C22.7197 4.23494 22.3178 4.64894 22.2803 4.67444L15.804 11.1507C15.1665 11.7882 14.0452 12.6237 13.2502 13.0542L12.3368 13.5469C11.9767 13.7412 11.679 13.8109 11.4383 13.8109ZM20.0355 3.29669L13.9935 9.33945C13.4693 9.86444 12.7605 10.8747 12.4478 11.5459L12.3 11.8609L12.537 11.7334C13.2007 11.3742 14.2118 10.6219 14.7435 10.0894L20.7863 4.04669L20.0355 3.29669ZM21.1222 2.26169L21.8212 2.96069C21.9712 2.69369 21.954 2.40794 21.8145 2.26844C21.6607 2.11469 21.3743 2.12219 21.1222 2.26169Z" fill="black"/>
</svg>
