<svg width="72" height="63" viewBox="0 0 72 63" fill="none" xmlns="http://www.w3.org/2000/svg">
<g clip-path="url(#clip0_25_237)">
<path d="M25.707 8.51853C24.9256 8.71904 23.9596 9.01057 23.3791 9.59804C22.6718 10.3138 22.4117 11.4043 22.1807 12.4916C22.1766 12.5136 22.165 12.5335 22.1478 12.5478C22.1306 12.5621 22.1089 12.5699 22.0865 12.5699C22.0642 12.5699 22.0425 12.5621 22.0253 12.5478C22.0081 12.5335 21.9965 12.5136 21.9924 12.4916C21.806 11.6202 21.5659 10.574 21.0613 9.92703C20.4196 9.10406 19.431 8.76737 18.4604 8.51836C18.4388 8.51344 18.4195 8.50131 18.4056 8.48397C18.3918 8.46663 18.3843 8.44511 18.3843 8.42292C18.3843 8.40074 18.3918 8.37921 18.4056 8.36187C18.4195 8.34453 18.4388 8.33241 18.4604 8.32749C19.3092 8.10979 20.2818 7.82109 20.889 7.15303C21.5221 6.45665 21.7762 5.36478 21.9924 4.3542C21.9965 4.3322 22.0081 4.31231 22.0253 4.298C22.0425 4.28369 22.0642 4.27586 22.0865 4.27586C22.1089 4.27586 22.1306 4.28369 22.1478 4.298C22.165 4.31231 22.1766 4.3322 22.1807 4.3542C22.3824 5.30342 22.7267 6.38194 23.3008 7.05881C23.9241 7.79371 24.8047 8.09587 25.707 8.32732C25.7287 8.3321 25.7482 8.34419 25.7622 8.36158C25.7762 8.37896 25.7838 8.40061 25.7838 8.42292C25.7838 8.44524 25.7762 8.46688 25.7622 8.48427C25.7482 8.50166 25.7287 8.51375 25.707 8.51853Z" fill="#FBD494"/>
<path d="M10.4652 27.9881C9.34854 28.2746 7.96804 28.6913 7.13834 29.5309C6.12758 30.5538 5.7559 32.1122 5.42565 33.6661C5.41988 33.6976 5.40324 33.7261 5.37865 33.7466C5.35406 33.7672 5.32305 33.7784 5.29104 33.7784C5.25902 33.7784 5.22802 33.7672 5.20342 33.7466C5.17883 33.7261 5.1622 33.6976 5.15643 33.6661C4.89009 32.4208 4.54676 30.9257 3.82583 30.0011C2.90879 28.8249 1.49595 28.3439 0.108751 27.9879C0.077862 27.9809 0.0502778 27.9636 0.0305193 27.9388C0.0107609 27.914 0 27.8833 0 27.8516C0 27.8199 0.0107609 27.7891 0.0305193 27.7643C0.0502778 27.7395 0.077862 27.7222 0.108751 27.7152C1.32166 27.404 2.71179 26.9914 3.57965 26.0367C4.48429 25.0414 4.84755 23.4811 5.15643 22.037C5.1622 22.0055 5.17883 21.977 5.20342 21.9565C5.22802 21.936 5.25902 21.9247 5.29104 21.9247C5.32305 21.9247 5.35406 21.936 5.37865 21.9565C5.40324 21.977 5.41988 22.0055 5.42565 22.037C5.71392 23.3934 6.206 24.9348 7.02624 25.9021C7.91703 26.9524 9.17552 27.3842 10.465 27.715C10.4961 27.7219 10.5239 27.7391 10.5438 27.764C10.5637 27.7888 10.5746 27.8196 10.5746 27.8515C10.5746 27.8833 10.5638 27.9142 10.5439 27.939C10.524 27.9639 10.4963 27.9812 10.4652 27.9881Z" fill="#FBD494"/>
<path d="M67.7085 16.7365C67.3295 16.8338 66.8611 16.9752 66.5792 17.2602C66.2362 17.6073 66.11 18.1363 65.9977 18.6638C65.9957 18.6745 65.9901 18.6841 65.9817 18.6911C65.9734 18.698 65.9629 18.7018 65.952 18.7018C65.9412 18.7018 65.9306 18.698 65.9223 18.6911C65.914 18.6841 65.9083 18.6745 65.9063 18.6638C65.8159 18.2411 65.6994 17.7336 65.4546 17.4198C65.1434 17.0208 64.6638 16.8572 64.193 16.7364C64.1825 16.7341 64.1731 16.7282 64.1664 16.7198C64.1597 16.7114 64.156 16.7009 64.156 16.6902C64.156 16.6794 64.1597 16.6689 64.1664 16.6605C64.1731 16.6521 64.1825 16.6463 64.193 16.6439C64.6048 16.5382 65.0765 16.3982 65.3711 16.0741C65.6781 15.7361 65.8015 15.2067 65.9063 14.7163C65.9083 14.7056 65.914 14.696 65.9223 14.689C65.9306 14.6821 65.9412 14.6783 65.952 14.6783C65.9629 14.6783 65.9734 14.6821 65.9817 14.689C65.9901 14.696 65.9957 14.7056 65.9977 14.7163C66.0956 15.1767 66.2626 15.6999 66.5411 16.0282C66.8434 16.3847 67.2707 16.5313 67.7083 16.6434C67.7191 16.6456 67.7287 16.6513 67.7357 16.6598C67.7427 16.6683 67.7465 16.6789 67.7466 16.6899C67.7466 16.7008 67.7428 16.7115 67.7359 16.72C67.7289 16.7285 67.7193 16.7343 67.7085 16.7365Z" fill="#FBD494"/>
<path d="M25.6625 49.9528C25.2834 50.05 24.8151 50.1914 24.5333 50.4764C24.1899 50.8236 24.064 51.3526 23.9517 51.88C23.9498 51.8907 23.9441 51.9003 23.9358 51.9073C23.9274 51.9142 23.9169 51.9181 23.9061 51.9181C23.8952 51.9181 23.8847 51.9142 23.8763 51.9073C23.868 51.9003 23.8623 51.8907 23.8604 51.88C23.77 51.4573 23.6534 50.9499 23.4087 50.636C23.0974 50.237 22.6179 50.0734 22.147 49.9527C22.1365 49.9503 22.1272 49.9444 22.1205 49.936C22.1138 49.9276 22.1101 49.9172 22.1101 49.9064C22.1101 49.8956 22.1138 49.8852 22.1205 49.8768C22.1272 49.8684 22.1365 49.8625 22.147 49.8601C22.5588 49.7545 23.0306 49.6144 23.3251 49.2903C23.6322 48.9526 23.7555 48.4229 23.8604 47.9325C23.8623 47.9218 23.868 47.9121 23.8763 47.9052C23.8847 47.8982 23.8952 47.8944 23.9061 47.8944C23.9169 47.8944 23.9274 47.8982 23.9358 47.9052C23.9441 47.9121 23.9498 47.9218 23.9517 47.9325C24.0496 48.393 24.2166 48.9161 24.4951 49.2445C24.7975 49.6009 25.2246 49.7475 25.6623 49.8596C25.6731 49.8618 25.6827 49.8676 25.6897 49.8761C25.6966 49.8846 25.7004 49.8952 25.7005 49.9061C25.7005 49.9171 25.6967 49.9277 25.6898 49.9362C25.6829 49.9447 25.6732 49.9506 25.6625 49.9528Z" fill="#FBD494"/>
<path d="M39.1127 60.4007C38.7336 60.4979 38.2653 60.6394 37.9834 60.9244C37.64 61.2716 37.5141 61.8006 37.4019 62.328C37.3999 62.3387 37.3943 62.3484 37.386 62.3554C37.3776 62.3623 37.3671 62.3662 37.3562 62.3662C37.3453 62.3662 37.3348 62.3623 37.3265 62.3554C37.3181 62.3484 37.3125 62.3387 37.3106 62.328C37.2201 61.9053 37.1036 61.3979 36.8588 61.0839C36.5476 60.6849 36.068 60.5214 35.5972 60.4006C35.5867 60.3982 35.5774 60.3924 35.5707 60.384C35.564 60.3755 35.5603 60.3651 35.5603 60.3543C35.5603 60.3436 35.564 60.3331 35.5707 60.3247C35.5774 60.3163 35.5867 60.3104 35.5972 60.308C36.009 60.2024 36.4807 60.0624 36.7753 59.7383C37.0824 59.4005 37.2057 58.8709 37.3106 58.3804C37.3125 58.3697 37.3181 58.3601 37.3265 58.3531C37.3348 58.3461 37.3453 58.3423 37.3562 58.3423C37.3671 58.3423 37.3776 58.3461 37.386 58.3531C37.3943 58.3601 37.3999 58.3697 37.4019 58.3804C37.4997 58.8409 37.6668 59.3641 37.9453 59.6924C38.2476 60.0489 38.6748 60.1955 39.1125 60.3076C39.1233 60.3097 39.1329 60.3156 39.1399 60.324C39.1468 60.3325 39.1506 60.3431 39.1507 60.3541C39.1507 60.365 39.1469 60.3757 39.14 60.3842C39.1331 60.3927 39.1234 60.3985 39.1127 60.4007Z" fill="#FBD494"/>
<path d="M41.3909 53.0338C29.0464 53.0338 19.0032 42.9837 19.0032 30.6305C19.0032 18.2774 29.0464 8.22723 41.3909 8.22723C53.7354 8.22723 63.7786 18.2772 63.7786 30.6305C63.7786 42.9838 53.7353 53.0338 41.3909 53.0338ZM41.3909 9.71598C29.8668 9.71598 20.4909 19.0984 20.4909 30.6305C20.4909 42.1627 29.8668 51.545 41.3909 51.545C52.915 51.545 62.2909 42.1627 62.2909 30.6305C62.2909 19.0984 52.915 9.71598 41.3909 9.71598Z" fill="#FFA000"/>
<path d="M53.1855 19.7752C51.8956 18.4562 49.1831 18.2137 47.9256 19.7752C45.7618 22.4627 43.598 25.1502 41.434 27.8376C40.4036 29.1174 39.3732 30.3971 38.3428 31.6769C37.9772 32.1314 37.5417 32.8126 37.0672 33.4453C36.9744 33.3497 36.8815 33.2541 36.7885 33.1586L34.6905 31.0011C31.346 27.5618 26.0883 32.8279 29.4304 36.2647C31.1559 38.0391 32.9183 40.5194 35.2579 41.4554C37.8234 42.4822 40.0988 41.2467 41.7481 39.2441C45.6119 34.5525 49.3739 29.7728 53.1855 25.0386C54.4552 23.462 54.6967 21.3211 53.1855 19.7752Z" fill="#FFA000"/>
<path d="M47.774 10.9042C42.8777 8.80678 29.414 8.29989 22.5688 21.6605C29.0074 13.929 35.9814 10.0226 47.774 10.9042Z" fill="#FFA000"/>
<path d="M36.8994 50.9566C48.2725 50.1344 56.1386 43.4756 61.5805 35.4445C60.701 40.4502 57.3209 45.0475 53.2252 47.8761C49.1295 50.7048 42.7692 52.4285 36.8445 50.9566" fill="#FFA000"/>
</g>
<defs>
<clipPath id="clip0_25_237">
<rect width="72" height="62.3662" fill="white"/>
</clipPath>
</defs>
</svg>
