<svg width="48" height="48" viewBox="0 0 48 48" fill="none" xmlns="http://www.w3.org/2000/svg">
<rect width="48" height="48" fill="none"/>
<path d="M31.75 22.5V23H32.25H33C33.4641 23 33.9092 23.1844 34.2374 23.5126C34.5656 23.8408 34.75 24.2859 34.75 24.75V27.75C34.75 28.2141 34.5656 28.6592 34.2374 28.9874C33.9092 29.3156 33.4641 29.5 33 29.5H32.25H31.75V30V34.5C31.75 34.5663 31.7237 34.6299 31.6768 34.6768C31.6299 34.7237 31.5663 34.75 31.5 34.75H28.6268C28.7001 34.5877 28.763 34.4207 28.8149 34.25H30.75H31.25V33.75V32.115V31.4079L30.5833 31.6436C30.3198 31.7368 30.0377 31.7655 29.7608 31.7273C29.4839 31.689 29.2201 31.585 28.9916 31.424C28.7632 31.2629 28.5766 31.0494 28.4476 30.8014C28.3186 30.5536 28.2509 30.2786 28.25 29.9992V22.5022C28.2526 22.2284 28.3195 21.959 28.4452 21.7156C28.5713 21.4717 28.753 21.2609 28.9756 21.1002C29.1982 20.9395 29.4555 20.8334 29.7267 20.7905C29.9979 20.7477 30.2753 20.7692 30.5366 20.8534L31.2593 21.0863L31.1878 20.3304C31.0178 18.5338 30.184 16.8652 28.8492 15.6507C27.5144 14.4362 25.7746 13.7632 23.97 13.7632C22.1654 13.7632 20.4256 14.4362 19.0908 15.6507C17.756 16.8652 16.9222 18.5338 16.7522 20.3304L16.6785 21.1099L17.4167 20.8489C17.6807 20.7556 17.9633 20.7269 18.2407 20.7654C18.518 20.804 18.7821 20.9085 19.0107 21.0702C19.2394 21.232 19.4258 21.4462 19.5544 21.695C19.6831 21.9437 19.7501 22.2197 19.75 22.4997V22.5V30C19.75 30.4641 19.5656 30.9092 19.2374 31.2374C18.9092 31.5656 18.4641 31.75 18 31.75C17.5359 31.75 17.0908 31.5656 16.7626 31.2374C16.4344 30.9092 16.25 30.4641 16.25 30V29.5H15.75H15C14.5359 29.5 14.0908 29.3156 13.7626 28.9874C13.4344 28.6592 13.25 28.2141 13.25 27.75V24.75C13.25 24.2859 13.4344 23.8408 13.7626 23.5126C14.0908 23.1844 14.5359 23 15 23H15.75H16.25V22.5V21C16.25 18.9446 17.0665 16.9733 18.5199 15.5199C19.9733 14.0665 21.9446 13.25 24 13.25C26.0554 13.25 28.0267 14.0665 29.4801 15.5199C30.9335 16.9733 31.75 18.9446 31.75 21V22.5Z" fill="none" stroke="black"/>
<path d="M23.25 31.25H24.75C25.2141 31.25 25.6592 31.4344 25.9874 31.7626C26.3156 32.0908 26.5 32.5359 26.5 33C26.5 33.4641 26.3156 33.9092 25.9874 34.2374C25.6592 34.5656 25.2141 34.75 24.75 34.75H23.25C22.7859 34.75 22.3408 34.5656 22.0126 34.2374C21.6844 33.9092 21.5 33.4641 21.5 33C21.5 32.5359 21.6844 32.0908 22.0126 31.7626C22.3408 31.4344 22.7859 31.25 23.25 31.25Z" fill="none" stroke="black"/>
</svg>
