<svg width="87" height="87" viewBox="0 0 87 87" fill="none" xmlns="http://www.w3.org/2000/svg">
<path d="M72.4844 38.0938V38.5938H72.9844H75.6875C77.7056 38.5938 79.6411 39.3955 81.0681 40.8225C82.4952 42.2495 83.2969 44.185 83.2969 46.2031V57.0156C83.2969 59.0338 82.4952 60.9692 81.0681 62.3963C79.6411 63.8233 77.7056 64.625 75.6875 64.625H72.9844H72.4844V65.125V81.3438C72.4844 81.9281 72.2523 82.4884 71.8391 82.9016C71.4259 83.3148 70.8656 83.5469 70.2812 83.5469H57.7308C58.6101 82.2019 59.2446 80.7101 59.6033 79.1406H67.5781H68.0781V78.6406V72.7478V72.0407L67.4115 72.2764C66.2654 72.6816 65.039 72.8063 63.8349 72.6402C62.6307 72.474 61.4839 72.0218 60.4904 71.3214C59.497 70.621 58.6857 69.6928 58.1247 68.6145C57.5638 67.5366 57.2692 66.34 57.2656 65.1249C57.2656 65.1245 57.2656 65.124 57.2656 65.1236L57.2656 38.0958C57.2761 36.9028 57.5669 35.7289 58.1147 34.669C58.6628 33.6084 59.4527 32.6917 60.4206 31.9929C61.3886 31.2941 62.5074 30.8328 63.6866 30.6464C64.8657 30.46 66.0722 30.5537 67.2085 30.9198L67.9312 31.1527L67.8597 30.3968C67.2776 24.2442 64.422 18.5299 59.8509 14.3708C55.2798 10.2117 49.3219 7.90691 43.1419 7.90691C36.9618 7.90691 31.004 10.2117 26.4329 14.3708C21.8618 18.5299 19.0061 24.2442 18.4241 30.3968L18.3504 31.1763L19.0885 30.9153C20.2366 30.5094 21.4653 30.385 22.6714 30.5524C23.8775 30.7199 25.0258 31.1743 26.0199 31.8776C27.014 32.5809 27.8247 33.5125 28.3841 34.5941C28.9434 35.6757 29.235 36.8758 29.2344 38.0935V38.0938V65.125C29.2344 67.1431 28.4327 69.0786 27.0056 70.5056C25.5786 71.9327 23.6431 72.7344 21.625 72.7344C19.6069 72.7344 17.6714 71.9327 16.2444 70.5056C14.8173 69.0786 14.0156 67.1431 14.0156 65.125V64.625H13.5156H10.8125C8.79437 64.625 6.85889 63.8233 5.43186 62.3963C4.00482 60.9692 3.20312 59.0338 3.20312 57.0156V46.2031C3.20312 44.185 4.00482 42.2495 5.43186 40.8225C6.85889 39.3955 8.79437 38.5938 10.8125 38.5938H13.5156H14.0156V38.0938V32.6875C14.0156 24.9341 17.0957 17.4982 22.5782 12.0157C28.0607 6.53317 35.4966 3.45312 43.25 3.45312C51.0034 3.45312 58.4393 6.53317 63.9218 12.0157C69.4043 17.4982 72.4844 24.9341 72.4844 32.6875V38.0938Z" fill="white" stroke="black"/>
<path d="M40.5469 68.3281H45.9531C47.9713 68.3281 49.9067 69.1298 51.3338 70.5569C52.7608 71.9839 53.5625 73.9194 53.5625 75.9375C53.5625 77.9556 52.7608 79.8911 51.3338 81.3181C49.9067 82.7452 47.9713 83.5469 45.9531 83.5469H40.5469C38.5287 83.5469 36.5933 82.7452 35.1662 81.3181C33.7392 79.8911 32.9375 77.9556 32.9375 75.9375C32.9375 73.9194 33.7392 71.9839 35.1662 70.5569C36.5933 69.1298 38.5287 68.3281 40.5469 68.3281Z" fill="white" stroke="black"/>
</svg>
