<svg width="62" height="29" viewBox="0 0 62 29" fill="none" xmlns="http://www.w3.org/2000/svg">
<g clip-path="url(#clip0_212_2915)">
<path d="M5.16707 11.4863C5.17645 11.9157 1.82361 18.0599 1.82361 18.0599L59.814 18.2406L55.3741 11.8256L5.16707 11.4863Z" fill="#2B2A25"/>
<path d="M5.16711 11.4863C5.16711 11.4863 5.58995 9.25742 6.37528 8.71537C7.16061 8.17332 21.6588 7.26958 21.6588 7.26958C21.6588 7.26958 24.9814 2.51064 25.8271 2.02869C26.6728 1.54673 29.935 1.3661 29.935 1.3661L57.1191 0.944381C57.1191 0.944381 58.6294 0.884145 58.75 1.30579C58.8706 1.72744 60.079 14.137 60.079 14.137L56.6353 14.2574L54.6418 11.1852L45.8825 11.7876L43.1645 19.197L20.0882 19.2573L16.4033 11.7273L5.16711 11.4863Z" fill="#B5B5B5"/>
<path d="M60.7437 13.233C59.7771 12.992 57.2399 12.992 57.2399 12.992C57.2399 12.992 56.4705 10.7026 55.5484 10.7026C54.5215 10.7026 47.3328 10.7026 46.185 10.8833C45.0461 11.0627 42.8528 17.2231 42.5384 18.1225L21.056 18.3481C21.056 18.3481 17.4304 11.6665 16.2221 11.2448C15.0138 10.8232 5.04637 10.8231 4.20063 11.1846C3.3549 11.5461 3.11328 12.9917 3.11328 12.9917C3.11328 12.9917 14.0241 12.8576 14.289 12.9917C15.2792 13.4934 18.9405 19.317 18.9405 19.317L43.7083 19.2568C43.7083 19.2568 46.5114 13.2213 47.3933 13.0517C48.2587 12.8856 53.9779 12.6903 54.4008 12.9313C55.9137 13.7933 58.4482 18.654 58.871 19.0757C59.2939 19.4973 60.925 19.2565 61.227 19.0155C61.5291 18.7746 61.284 13.3679 60.7437 13.233Z" fill="#636152"/>
<path d="M34.6468 2.75131C34.8645 2.93202 34.4958 6.27532 34.4958 6.27532C34.4958 6.27532 34.1333 8.08259 33.6955 8.24822C33.2545 8.41511 23.7731 8.65487 23.6523 8.41385C23.5314 8.17284 26.7332 2.69108 27.096 2.75131C27.4587 2.81155 34.2772 2.44462 34.6468 2.75131Z" fill="#97C1BF"/>
<path d="M27.4936 3.06377C27.8122 3.11675 33.1197 2.83958 34.6499 2.98002C34.6394 2.85745 34.6209 2.77579 34.5916 2.7515C34.2221 2.44439 27.4029 2.81173 27.0405 2.7515C26.6781 2.69126 23.4764 8.1731 23.5968 8.41404C23.6132 8.4467 23.8021 8.47044 24.1158 8.48684C24.5741 7.3892 27.1694 3.00989 27.4936 3.06377Z" fill="#49473E"/>
<path d="M36.9962 2.47852C36.7072 2.73495 36.292 7.81154 36.4377 8.09269C36.6111 8.42737 44.0707 8.29342 44.4332 8.11272C44.7957 7.93201 45.7018 6.42306 45.7622 6.12349C45.8226 5.82391 46.2197 2.37877 45.7622 2.32985C45.1599 2.26514 37.3351 2.17769 36.9962 2.47852Z" fill="#97C1BF"/>
<path d="M37.3351 2.75124C37.6533 2.46891 44.5942 2.63098 45.9403 2.69268C45.9123 2.38117 45.8718 2.34132 45.7622 2.32973C45.1602 2.26517 37.3349 2.17771 36.9962 2.47854C36.7072 2.73497 36.292 7.81156 36.4377 8.09271C36.4587 8.13312 36.5869 8.16669 36.7954 8.19419C36.8053 6.89568 37.0909 2.96803 37.3351 2.75124Z" fill="#49473E"/>
<path d="M47.6736 2.21359C47.2102 2.52167 47.7944 7.33736 47.9757 7.5783C48.157 7.81924 57.762 7.81924 57.9432 7.5783C58.1244 7.33736 57.5807 2.27717 57.3995 2.09647C57.2183 1.91576 48.0361 1.97265 47.6736 2.21359Z" fill="#97C1BF"/>
<path d="M47.9369 2.48028C48.2557 2.26838 55.6721 2.41314 57.5106 2.52216C57.4546 2.17841 57.4355 2.13178 57.3995 2.09598C57.2183 1.91527 48.0361 1.97216 47.6736 2.2131C47.2102 2.52119 47.7944 7.33687 47.9757 7.57781C47.9971 7.60636 48.1507 7.63149 48.4047 7.65319C48.1765 6.30631 47.5631 2.72883 47.9369 2.48028Z" fill="#49473E"/>
<path d="M6.25452 10.0991C6.25452 10.0991 6.4155 9.23717 7.05993 9.07649C7.70437 8.91582 21.4373 7.99219 21.4373 7.99219L20.7552 9.73615L6.25452 10.0991Z" fill="black"/>
<path d="M58.4481 9.19727H20.1083V9.75949H58.4481V9.19727Z" fill="black"/>
<path d="M43.2653 18.8357H19.464L20.8735 18.5146H42.4196L43.2653 18.8357Z" fill="#7F7C6B"/>
<path d="M15.6783 11.8479H3.99915L4.69082 11.5269H15.2632L15.6783 11.8479Z" fill="#7F7C6B"/>
<path d="M55.9512 11.6067H45.8021L46.4032 11.2856H55.5906L55.9512 11.6067Z" fill="#7F7C6B"/>
<path d="M26.3104 2.04265L58.2468 1.62386L57.5621 1.20508L29.1823 1.68668L26.3104 2.04265Z" fill="black"/>
<path d="M23.7324 8.14124L33.4991 7.99236L33.982 7.63088L34.6466 2.75146H34.8681L34.3244 7.99236L33.9216 8.51584H23.5516L23.7324 8.14124Z" fill="black"/>
<path d="M36.4376 8.09257L44.4332 8.11267L45.7421 6.19072L45.7621 2.32959H45.9797V6.36564L44.7759 8.51582L36.2582 8.55435L36.4376 8.09257Z" fill="black"/>
<path d="M47.9369 7.63085H57.4614L57.7434 7.34978L57.1392 2.10889H57.4816L58.2468 7.53049L57.941 8.05257L48.1786 7.9522L47.9369 7.63085Z" fill="black"/>
<path d="M42.8021 17.7212H35.0697V17.9019H42.8021V17.7212Z" fill="#49473E"/>
<path d="M35.2847 7.62382C35.2707 7.62214 35.2567 7.62193 35.2423 7.62109L35.0636 9.17332C35.0776 9.1757 35.0912 9.17863 35.1056 9.1803C35.2081 9.19203 35.3119 9.18351 35.4111 9.15524C35.5103 9.12696 35.6029 9.07948 35.6837 9.01551C35.7645 8.95154 35.8318 8.87232 35.8819 8.78239C35.932 8.69246 35.9638 8.59357 35.9756 8.49137C35.9873 8.38917 35.9788 8.28566 35.9504 8.18675C35.9221 8.08784 35.8745 7.99547 35.8103 7.91491C35.7462 7.83435 35.6667 7.76718 35.5765 7.71723C35.4864 7.66729 35.3872 7.63554 35.2847 7.62382V7.62382Z" fill="black"/>
<path d="M46.74 7.48671C46.726 7.48762 46.712 7.48993 46.698 7.4916L46.8019 9.05011C46.8159 9.05011 46.8299 9.05011 46.8444 9.04948C47.0511 9.03426 47.2434 8.93815 47.3793 8.78212C47.5153 8.62609 47.5839 8.42279 47.5701 8.21655C47.5564 8.01031 47.4614 7.81785 47.3059 7.68113C47.1505 7.54441 46.9471 7.47453 46.7402 7.48671H46.74Z" fill="black"/>
<path d="M23.8341 17.9636C23.6436 17.9636 22.9966 17.9212 22.6684 17.3759C22.3008 16.7649 22.1785 15.9316 22.1732 15.8962L22.1723 15.885L22.051 8.62924L22.0654 8.60642C22.4561 7.98808 25.8963 2.55622 26.3831 2.25281C26.8739 1.94689 34.8282 1.88379 35.7335 1.87765L35.8309 1.87695L35.8246 1.97383C35.8158 2.10987 35.748 2.71159 35.6543 3.54428C35.431 5.52744 35.0573 8.84652 35.0995 9.309C35.1596 9.96817 35.1603 17.4911 35.1603 17.811V17.9009L23.8973 17.9616C23.8891 17.9624 23.867 17.9636 23.8341 17.9636ZM22.3534 15.8762C22.3645 15.9482 22.49 16.7281 22.8239 17.2829C23.103 17.7468 23.6677 17.7829 23.8341 17.7829C23.8663 17.7829 23.8854 17.7816 23.8871 17.7815H23.8935L34.979 17.7217C34.979 16.8487 34.9749 9.93872 34.919 9.32589C34.8752 8.84513 35.2357 5.6433 35.4741 3.5246C35.5501 2.85014 35.6125 2.29539 35.6351 2.05947C32.0996 2.08502 26.8144 2.19739 26.479 2.40644C26.1383 2.61876 23.7589 6.26576 22.2329 8.68048L22.3534 15.8762Z" fill="#49473E"/>
<path d="M46.6985 10.8876L46.4343 4.74543V4.74131C46.4773 3.87582 46.4569 2.4183 46.219 2.19181C45.8881 1.87681 44.5602 1.90166 43.1541 1.92811C42.62 1.9381 42.0676 1.94843 41.5298 1.94207C40.3948 1.92811 35.783 2.05731 35.7366 2.05864L35.7314 1.878C35.7779 1.87667 40.3947 1.74755 41.532 1.76137C42.0674 1.76786 42.618 1.75753 43.1506 1.74741C44.6579 1.71907 45.9592 1.69471 46.3441 2.06115C46.7179 2.41712 46.6281 4.4892 46.6155 4.74598L46.8794 10.8799L46.6985 10.8876Z" fill="#49473E"/>
<path d="M59.6565 10.4015C59.6565 10.4015 58.0456 10.3613 57.8844 10.3613C57.7233 10.3613 57.4817 10.5219 57.4817 10.7228C57.4817 10.9238 57.6026 12.2087 57.6427 12.3693C57.6828 12.5299 57.9246 12.6904 58.2065 12.6904C58.4883 12.6904 59.8979 12.7305 59.8979 12.7305L59.6565 10.4015Z" fill="#B52C1A"/>
<path d="M5.85168 9.31752C5.85168 9.31752 5.73087 9.63859 5.56974 9.96008C5.40862 10.2816 5.32812 10.8838 5.32812 10.8838L6.17386 10.7633C6.17386 10.7633 6.73766 9.71914 6.81822 9.4782C6.89878 9.23725 5.85168 9.31752 5.85168 9.31752Z" fill="#97C1BF"/>
<path d="M57.8744 10.6157L58.0188 12.397H58.5962L58.4519 10.5977L57.8744 10.6157Z" fill="#F23325"/>
<path d="M15.4257 24.496C17.9204 22.0084 17.9204 17.975 15.4257 15.4874C12.931 12.9997 8.8864 12.9997 6.39174 15.4874C3.89708 17.975 3.89708 22.0084 6.39174 24.496C8.8864 26.9837 12.931 26.9837 15.4257 24.496Z" fill="#777464"/>
<path d="M13.3112 14.1279C15.1683 15.2422 16.8061 17.0809 16.8944 19.3976C17.0152 22.5703 15.5908 26.1686 10.2091 26.0241C9.32253 25.9923 8.44753 25.8131 7.62024 25.4936C8.5809 26.07 9.97287 26.3452 11.1759 26.3452C14.7036 26.3452 17.2969 23.5494 17.2969 20.0313C17.2968 18.7636 16.9175 17.5247 16.2076 16.4731C15.4976 15.4214 14.4891 14.6049 13.3112 14.1279V14.1279Z" fill="#424038"/>
<path d="M11.0589 23.8738C13.2091 23.7911 14.885 21.9859 14.802 19.8417C14.7191 17.6975 12.9088 16.0263 10.7585 16.109C8.60833 16.1917 6.93247 17.997 7.01541 20.1412C7.09835 22.2854 8.90868 23.9565 11.0589 23.8738Z" fill="#B7B29E"/>
<path d="M14.4616 20.4226C14.7001 18.4659 13.3029 16.6868 11.3406 16.4489C9.37844 16.211 7.59435 17.6044 7.35579 19.5611C7.11722 21.5178 8.51451 23.2969 10.4767 23.5348C12.4389 23.7727 14.223 22.3793 14.4616 20.4226Z" fill="#969283"/>
<path d="M13.3791 20.5632C13.6958 19.2022 12.8461 17.843 11.4814 17.5272C10.1166 17.2114 8.75357 18.0587 8.4369 19.4196C8.12023 20.7805 8.96987 22.1398 10.3346 22.4556C11.6994 22.7713 13.0624 21.9241 13.3791 20.5632Z" fill="#777464"/>
<path d="M11.2755 21.674C11.2755 21.771 11.2369 21.864 11.1681 21.9326C11.0994 22.0012 11.0061 22.0398 10.9088 22.0398C10.8115 22.0398 10.7183 22.0013 10.6495 21.9327C10.5807 21.8641 10.542 21.771 10.542 21.674V18.3091C10.542 18.2121 10.5807 18.1191 10.6495 18.0505C10.7183 17.9819 10.8115 17.9434 10.9088 17.9434V17.9434C11.0061 17.9434 11.0994 17.9819 11.1681 18.0505C11.2369 18.1191 11.2755 18.2121 11.2755 18.3091V21.674Z" fill="#969283"/>
<path d="M12.596 19.5894C12.6932 19.5894 12.7865 19.6279 12.8553 19.6965C12.9241 19.7651 12.9627 19.8581 12.9627 19.9551V19.9551C12.9627 20.0521 12.9241 20.1451 12.8553 20.2137C12.7865 20.2823 12.6932 20.3208 12.596 20.3208H9.22162C9.17346 20.3208 9.12577 20.3114 9.08127 20.293C9.03677 20.2746 8.99634 20.2477 8.96228 20.2137C8.92822 20.1798 8.90121 20.1394 8.88278 20.0951C8.86434 20.0507 8.85486 20.0031 8.85486 19.9551V19.9551C8.85486 19.9071 8.86434 19.8595 8.88278 19.8151C8.90121 19.7708 8.92822 19.7304 8.96228 19.6965C8.99634 19.6625 9.03677 19.6356 9.08127 19.6172C9.12577 19.5988 9.17346 19.5894 9.22162 19.5894H12.596Z" fill="#969283"/>
<path d="M12.3741 20.9357C12.4082 20.9696 12.4352 21.0099 12.4537 21.0543C12.4721 21.0987 12.4816 21.1462 12.4816 21.1943C12.4816 21.2423 12.4721 21.2899 12.4537 21.3342C12.4352 21.3786 12.4082 21.4189 12.3741 21.4529V21.4529C12.3401 21.4868 12.2997 21.5138 12.2552 21.5322C12.2107 21.5506 12.163 21.56 12.1148 21.56C12.0666 21.56 12.019 21.5506 11.9745 21.5322C11.93 21.5138 11.8895 21.4868 11.8555 21.4529L9.46947 19.0735C9.4007 19.0049 9.36206 18.9119 9.36206 18.8149C9.36206 18.7179 9.4007 18.6249 9.46947 18.5563V18.5563C9.53826 18.4877 9.63155 18.4492 9.72883 18.4492C9.82611 18.4492 9.9194 18.4877 9.98819 18.5563L12.3741 20.9357Z" fill="#969283"/>
<path d="M11.8295 18.5305C11.8635 18.4965 11.904 18.4696 11.9485 18.4512C11.993 18.4328 12.0407 18.4233 12.0888 18.4233C12.137 18.4233 12.1847 18.4328 12.2292 18.4512C12.2737 18.4696 12.3141 18.4965 12.3482 18.5305C12.417 18.5991 12.4556 18.6921 12.4556 18.7891C12.4556 18.8861 12.417 18.9791 12.3482 19.0477L9.96218 21.427C9.8934 21.4956 9.80012 21.5341 9.70286 21.5341C9.60559 21.5341 9.51231 21.4956 9.44353 21.427V21.427C9.40946 21.3931 9.38243 21.3528 9.36399 21.3084C9.34555 21.264 9.33606 21.2164 9.33606 21.1684C9.33606 21.1204 9.34555 21.0728 9.36399 21.0284C9.38243 20.984 9.40946 20.9437 9.44353 20.9098L11.8295 18.5305Z" fill="#969283"/>
<path d="M10.9087 21.4544C11.7189 21.4544 12.3756 20.7995 12.3756 19.9916C12.3756 19.1837 11.7189 18.5288 10.9087 18.5288C10.0985 18.5288 9.44177 19.1837 9.44177 19.9916C9.44177 20.7995 10.0985 21.4544 10.9087 21.4544Z" fill="#969283"/>
<path opacity="0.4" d="M5.12439 19.6792L5.66803 19.2576C5.66803 19.2576 5.72843 17.2696 7.69176 15.7937C9.48458 14.4461 11.6787 14.6793 11.6787 14.6793L11.8902 14.2576C11.8902 14.2576 9.14203 13.9263 7.23897 15.4623C4.9473 17.3124 5.12439 19.6792 5.12439 19.6792Z" fill="#969283"/>
<path d="M11.0825 18.2636C11.0825 18.2978 11.0723 18.3313 11.0532 18.3598C11.0341 18.3882 11.007 18.4104 10.9753 18.4235C10.9436 18.4366 10.9086 18.44 10.875 18.4333C10.8413 18.4266 10.8103 18.4101 10.7861 18.3859C10.7618 18.3617 10.7453 18.3308 10.7386 18.2973C10.7319 18.2637 10.7353 18.2289 10.7485 18.1972C10.7616 18.1656 10.7839 18.1385 10.8124 18.1195C10.841 18.1005 10.8745 18.0903 10.9089 18.0903C10.9317 18.0903 10.9543 18.0948 10.9754 18.1035C10.9964 18.1122 11.0156 18.125 11.0317 18.1411C11.0478 18.1572 11.0606 18.1763 11.0693 18.1973C11.0781 18.2183 11.0825 18.2408 11.0825 18.2636V18.2636Z" fill="#B7B29E"/>
<path d="M12.2908 18.7454C12.2908 18.7797 12.2806 18.8132 12.2615 18.8416C12.2424 18.8701 12.2153 18.8923 12.1836 18.9054C12.1519 18.9185 12.1169 18.922 12.0833 18.9153C12.0496 18.9086 12.0186 18.8921 11.9943 18.8679C11.9701 18.8437 11.9535 18.8128 11.9468 18.7792C11.9401 18.7456 11.9436 18.7108 11.9567 18.6792C11.9698 18.6475 11.9921 18.6205 12.0207 18.6014C12.0492 18.5824 12.0828 18.5723 12.1171 18.5723C12.1632 18.5723 12.2073 18.5905 12.2399 18.623C12.2725 18.6555 12.2908 18.6995 12.2908 18.7454V18.7454Z" fill="#B7B29E"/>
<path d="M12.8646 19.9652C12.8646 19.9994 12.8545 20.0329 12.8354 20.0614C12.8163 20.0898 12.7892 20.112 12.7574 20.1251C12.7257 20.1383 12.6908 20.1417 12.6571 20.135C12.6234 20.1283 12.5925 20.1118 12.5682 20.0876C12.5439 20.0634 12.5274 20.0325 12.5207 19.9989C12.514 19.9654 12.5174 19.9305 12.5306 19.8989C12.5437 19.8672 12.566 19.8402 12.5945 19.8212C12.6231 19.8021 12.6566 19.792 12.691 19.792C12.737 19.792 12.7812 19.8102 12.8138 19.8427C12.8463 19.8752 12.8646 19.9192 12.8646 19.9652V19.9652Z" fill="#B7B29E"/>
<path d="M12.3511 21.2752C12.3511 21.3095 12.3409 21.3429 12.3218 21.3714C12.3027 21.3999 12.2756 21.4221 12.2439 21.4352C12.2122 21.4483 12.1772 21.4517 12.1436 21.4451C12.1099 21.4384 12.0789 21.4219 12.0546 21.3977C12.0304 21.3734 12.0138 21.3426 12.0071 21.309C12.0004 21.2754 12.0039 21.2406 12.017 21.2089C12.0301 21.1773 12.0524 21.1503 12.081 21.1312C12.1095 21.1122 12.1431 21.1021 12.1774 21.1021C12.2235 21.1021 12.2677 21.1203 12.3002 21.1528C12.3328 21.1852 12.3511 21.2293 12.3511 21.2752V21.2752Z" fill="#B7B29E"/>
<path d="M11.0674 21.7274C11.0674 21.7616 11.0572 21.7951 11.0381 21.8236C11.0191 21.8521 10.9919 21.8742 10.9602 21.8874C10.9285 21.9005 10.8936 21.9039 10.8599 21.8972C10.8262 21.8905 10.7952 21.874 10.771 21.8498C10.7467 21.8256 10.7301 21.7947 10.7234 21.7612C10.7167 21.7276 10.7202 21.6927 10.7333 21.6611C10.7465 21.6295 10.7687 21.6024 10.7973 21.5834C10.8258 21.5644 10.8594 21.5542 10.8937 21.5542C10.9398 21.5542 10.984 21.5724 11.0165 21.6049C11.0491 21.6374 11.0674 21.6814 11.0674 21.7274V21.7274Z" fill="#B7B29E"/>
<path d="M9.85929 21.2C9.8593 21.2343 9.84913 21.2678 9.83005 21.2963C9.81096 21.3248 9.78384 21.347 9.75209 21.3601C9.72035 21.3732 9.68542 21.3767 9.65172 21.37C9.61801 21.3633 9.58705 21.3468 9.56275 21.3226C9.53844 21.2984 9.52189 21.2675 9.51518 21.2339C9.50848 21.2003 9.51191 21.1655 9.52506 21.1338C9.5382 21.1022 9.56047 21.0751 9.58904 21.0561C9.61761 21.037 9.6512 21.0269 9.68557 21.0269C9.73163 21.0269 9.7758 21.0451 9.80838 21.0776C9.84096 21.11 9.85927 21.1541 9.85929 21.2Z" fill="#B7B29E"/>
<path d="M9.376 19.9803C9.376 20.0145 9.36581 20.048 9.34673 20.0765C9.32765 20.105 9.30053 20.1272 9.2688 20.1403C9.23706 20.1534 9.20215 20.1568 9.16846 20.1501C9.13478 20.1435 9.10384 20.127 9.07955 20.1027C9.05526 20.0785 9.03872 20.0477 9.03202 20.0141C9.02532 19.9805 9.02876 19.9457 9.04191 19.914C9.05505 19.8824 9.07731 19.8553 9.10586 19.8363C9.13442 19.8173 9.168 19.8071 9.20234 19.8071C9.2484 19.8071 9.29257 19.8254 9.32513 19.8578C9.3577 19.8903 9.376 19.9344 9.376 19.9803V19.9803Z" fill="#B7B29E"/>
<path d="M9.85929 18.7454C9.8593 18.7797 9.84913 18.8132 9.83005 18.8417C9.81096 18.8702 9.78384 18.8924 9.75209 18.9055C9.72035 18.9187 9.68542 18.9221 9.65172 18.9154C9.61801 18.9087 9.58705 18.8923 9.56275 18.868C9.53844 18.8438 9.52189 18.8129 9.51518 18.7793C9.50848 18.7457 9.51191 18.7109 9.52506 18.6792C9.5382 18.6476 9.56047 18.6205 9.58904 18.6015C9.61761 18.5824 9.6512 18.5723 9.68557 18.5723C9.73163 18.5723 9.7758 18.5905 9.80838 18.623C9.84096 18.6555 9.85927 18.6995 9.85929 18.7454V18.7454Z" fill="#B7B29E"/>
<path d="M11.7142 19.9916C11.7143 20.1505 11.667 20.3058 11.5785 20.4379C11.49 20.57 11.3642 20.673 11.217 20.7338C11.0699 20.7946 10.9079 20.8105 10.7516 20.7795C10.5954 20.7485 10.4518 20.672 10.3392 20.5597C10.2265 20.4473 10.1498 20.3042 10.1187 20.1484C10.0877 19.9926 10.1036 19.8311 10.1646 19.6843C10.2256 19.5375 10.3288 19.4121 10.4613 19.3238C10.5938 19.2356 10.7495 19.1885 10.9088 19.1885C11.1224 19.1885 11.3273 19.2731 11.4783 19.4237C11.6294 19.5743 11.7142 19.7786 11.7142 19.9916V19.9916Z" fill="#B7B29E"/>
<path d="M57.6287 21.3498C58.381 17.9126 56.1965 14.5181 52.7497 13.768C49.3028 13.0178 45.8988 15.1961 45.1466 18.6333C44.3943 22.0705 46.5788 25.465 50.0256 26.2151C53.4725 26.9653 56.8765 24.787 57.6287 21.3498Z" fill="#777464"/>
<path d="M53.7901 14.1279C55.6471 15.2422 57.2851 17.0809 57.3733 19.3976C57.4941 22.5703 56.0696 26.1686 50.688 26.0241C49.8014 25.9923 48.9264 25.813 48.0991 25.4936C49.0598 26.07 50.4518 26.3452 51.6548 26.3452C55.1828 26.3452 57.7758 23.5494 57.7758 20.0313C57.7758 18.7636 57.3965 17.5247 56.6865 16.473C55.9765 15.4214 54.968 14.6049 53.7901 14.1279Z" fill="#424038"/>
<path d="M55.2352 20.603C55.574 18.484 54.126 16.4923 52.001 16.1544C49.8761 15.8166 47.8788 17.2605 47.54 19.3795C47.2012 21.4985 48.6491 23.4902 50.7741 23.8281C52.8991 24.1659 54.8964 22.722 55.2352 20.603Z" fill="#B7B29E"/>
<path d="M52.801 23.2705C54.617 22.4921 55.4563 20.3931 54.6757 18.5822C53.8952 16.7713 51.7902 15.9342 49.9742 16.7126C48.1582 17.491 47.3188 19.5901 48.0994 21.401C48.88 23.2119 50.985 24.0489 52.801 23.2705Z" fill="#969283"/>
<path d="M52.3802 22.3199C53.6697 21.7732 54.2706 20.2876 53.7223 19.0017C53.1741 17.7159 51.6843 17.1167 50.3948 17.6634C49.1054 18.2101 48.5045 19.6957 49.0528 20.9816C49.601 22.2674 51.0908 22.8666 52.3802 22.3199Z" fill="#777464"/>
<path d="M51.7542 21.674C51.7542 21.771 51.7156 21.8641 51.6468 21.9327C51.578 22.0013 51.4847 22.0398 51.3874 22.0398V22.0398C51.2901 22.0398 51.1968 22.0012 51.1281 21.9327C51.0593 21.8641 51.0206 21.771 51.0206 21.674V18.3091C51.0206 18.2121 51.0593 18.1191 51.1281 18.0505C51.1968 17.9819 51.2901 17.9434 51.3874 17.9434V17.9434C51.4847 17.9434 51.578 17.9819 51.6468 18.0505C51.7156 18.1191 51.7542 18.2121 51.7542 18.3091V21.674Z" fill="#969283"/>
<path d="M53.0748 19.5894C53.1229 19.5893 53.1706 19.5988 53.2151 19.6172C53.2597 19.6356 53.3001 19.6625 53.3342 19.6965C53.3682 19.7304 53.3952 19.7707 53.4137 19.8151C53.4321 19.8595 53.4416 19.9071 53.4416 19.9551V19.9551C53.4416 20.0031 53.4321 20.0507 53.4137 20.0951C53.3952 20.1395 53.3682 20.1798 53.3342 20.2137C53.3001 20.2477 53.2597 20.2746 53.2151 20.293C53.1706 20.3114 53.1229 20.3208 53.0748 20.3208H49.7005C49.6032 20.3208 49.5099 20.2823 49.4412 20.2137C49.3724 20.1451 49.3337 20.0521 49.3337 19.9551V19.9551C49.3337 19.8581 49.3724 19.7651 49.4412 19.6965C49.5099 19.6279 49.6032 19.5894 49.7005 19.5894H53.0748Z" fill="#969283"/>
<path d="M52.8532 20.9357C52.8873 20.9696 52.9143 21.0099 52.9327 21.0543C52.9512 21.0987 52.9607 21.1462 52.9607 21.1943C52.9607 21.2423 52.9512 21.2899 52.9327 21.3342C52.9143 21.3786 52.8873 21.4189 52.8532 21.4529V21.4529C52.8192 21.4868 52.7787 21.5138 52.7342 21.5322C52.6897 21.5506 52.6421 21.56 52.5939 21.56C52.5457 21.56 52.498 21.5506 52.4535 21.5322C52.409 21.5138 52.3686 21.4868 52.3346 21.4529L49.9485 19.0735C49.8797 19.0049 49.8411 18.9119 49.8411 18.8149C49.8411 18.7179 49.8797 18.6249 49.9485 18.5563V18.5563C50.0173 18.4877 50.1106 18.4492 50.2078 18.4492C50.3051 18.4492 50.3984 18.4877 50.4672 18.5563L52.8532 20.9357Z" fill="#969283"/>
<path d="M52.3084 18.5305C52.3424 18.4965 52.3828 18.4696 52.4273 18.4512C52.4718 18.4328 52.5195 18.4233 52.5677 18.4233C52.6159 18.4233 52.6636 18.4328 52.7081 18.4512C52.7526 18.4696 52.793 18.4965 52.8271 18.5305V18.5305C52.8959 18.5991 52.9345 18.6921 52.9345 18.7891C52.9345 18.8861 52.8959 18.9791 52.8271 19.0477L50.4411 21.427C50.3723 21.4956 50.279 21.5341 50.1817 21.5341C50.0845 21.5341 49.9912 21.4956 49.9224 21.427V21.427C49.8883 21.3931 49.8613 21.3528 49.8429 21.3084C49.8244 21.264 49.8149 21.2164 49.8149 21.1684C49.8149 21.1204 49.8244 21.0728 49.8429 21.0284C49.8613 20.984 49.8883 20.9437 49.9224 20.9098L52.3084 18.5305Z" fill="#969283"/>
<path d="M51.3876 21.4544C52.1977 21.4544 52.8545 20.7995 52.8545 19.9916C52.8545 19.1837 52.1977 18.5288 51.3876 18.5288C50.5774 18.5288 49.9207 19.1837 49.9207 19.9916C49.9207 20.7995 50.5774 21.4544 51.3876 21.4544Z" fill="#969283"/>
<path opacity="0.4" d="M45.6037 19.6787L46.1474 19.2571C46.1474 19.2571 46.2077 17.2691 48.171 15.7933C49.9638 14.4456 52.1581 14.6788 52.1581 14.6788L52.3695 14.2571C52.3695 14.2571 49.6209 13.9258 47.718 15.4619C45.4263 17.3119 45.6037 19.6787 45.6037 19.6787Z" fill="#969283"/>
<path d="M51.5614 18.2631C51.5614 18.2973 51.5513 18.3308 51.5322 18.3593C51.5131 18.3878 51.4859 18.41 51.4542 18.4231C51.4224 18.4362 51.3875 18.4397 51.3538 18.433C51.3201 18.4263 51.2891 18.4098 51.2648 18.3856C51.2406 18.3613 51.224 18.3304 51.2173 18.2968C51.2106 18.2632 51.2141 18.2284 51.2272 18.1967C51.2404 18.1651 51.2627 18.138 51.2913 18.119C51.3198 18.1 51.3534 18.0898 51.3878 18.0898C51.4106 18.0898 51.4332 18.0943 51.4543 18.103C51.4753 18.1117 51.4945 18.1245 51.5106 18.1406C51.5267 18.1567 51.5395 18.1758 51.5482 18.1968C51.557 18.2178 51.5614 18.2403 51.5614 18.2631V18.2631Z" fill="#B7B29E"/>
<path d="M52.7697 18.7449C52.7697 18.7792 52.7595 18.8127 52.7404 18.8412C52.7213 18.8696 52.6942 18.8918 52.6625 18.9049C52.6307 18.918 52.5958 18.9215 52.5621 18.9148C52.5285 18.9081 52.4975 18.8916 52.4732 18.8674C52.4489 18.8432 52.4324 18.8123 52.4257 18.7787C52.419 18.7451 52.4224 18.7103 52.4356 18.6787C52.4487 18.647 52.471 18.62 52.4995 18.601C52.5281 18.5819 52.5617 18.5718 52.596 18.5718C52.6421 18.5718 52.6862 18.59 52.7188 18.6225C52.7514 18.655 52.7697 18.699 52.7697 18.7449V18.7449Z" fill="#B7B29E"/>
<path d="M53.3435 19.9652C53.3435 19.9994 53.3333 20.0329 53.3143 20.0614C53.2952 20.0898 53.2681 20.112 53.2363 20.1251C53.2046 20.1383 53.1697 20.1417 53.136 20.135C53.1023 20.1283 53.0714 20.1118 53.0471 20.0876C53.0228 20.0634 53.0063 20.0325 52.9996 19.9989C52.9929 19.9654 52.9963 19.9305 53.0094 19.8989C53.0226 19.8672 53.0448 19.8402 53.0734 19.8212C53.1019 19.8021 53.1355 19.792 53.1699 19.792C53.2159 19.792 53.2601 19.8103 53.2926 19.8427C53.3252 19.8752 53.3435 19.9192 53.3435 19.9652Z" fill="#B7B29E"/>
<path d="M52.83 21.2752C52.83 21.3095 52.8198 21.343 52.8007 21.3715C52.7817 21.4 52.7545 21.4222 52.7228 21.4353C52.691 21.4484 52.6561 21.4519 52.6224 21.4452C52.5887 21.4385 52.5577 21.422 52.5334 21.3978C52.5091 21.3736 52.4926 21.3427 52.4859 21.3091C52.4792 21.2755 52.4826 21.2406 52.4958 21.209C52.5089 21.1773 52.5312 21.1502 52.5598 21.1312C52.5884 21.1122 52.622 21.102 52.6563 21.1021C52.7024 21.1021 52.7465 21.1203 52.7791 21.1528C52.8117 21.1853 52.83 21.2293 52.83 21.2752Z" fill="#B7B29E"/>
<path d="M51.5464 21.7269C51.5464 21.7611 51.5362 21.7946 51.5171 21.8231C51.4981 21.8516 51.4709 21.8738 51.4392 21.8869C51.4075 21.9 51.3726 21.9034 51.3389 21.8967C51.3052 21.89 51.2742 21.8735 51.25 21.8493C51.2257 21.8251 51.2091 21.7943 51.2024 21.7607C51.1957 21.7271 51.1992 21.6923 51.2123 21.6606C51.2255 21.629 51.2477 21.6019 51.2763 21.5829C51.3048 21.5639 51.3384 21.5537 51.3728 21.5537C51.4188 21.5537 51.463 21.572 51.4955 21.6044C51.5281 21.6369 51.5464 21.681 51.5464 21.7269V21.7269Z" fill="#B7B29E"/>
<path d="M50.3382 21.2C50.3382 21.2343 50.328 21.2678 50.3089 21.2963C50.2898 21.3248 50.2627 21.347 50.231 21.3601C50.1992 21.3732 50.1643 21.3767 50.1306 21.37C50.0969 21.3633 50.0659 21.3468 50.0416 21.3226C50.0173 21.2984 50.0008 21.2675 49.9941 21.2339C49.9874 21.2003 49.9908 21.1655 50.0039 21.1338C50.0171 21.1022 50.0394 21.0751 50.0679 21.0561C50.0965 21.037 50.1301 21.0269 50.1644 21.0269C50.2105 21.0269 50.2547 21.0451 50.2873 21.0776C50.3198 21.11 50.3382 21.1541 50.3382 21.2V21.2Z" fill="#B7B29E"/>
<path d="M49.8549 19.9798C49.8549 20.0141 49.8447 20.0475 49.8256 20.076C49.8065 20.1045 49.7794 20.1267 49.7477 20.1398C49.7159 20.1529 49.681 20.1563 49.6473 20.1496C49.6137 20.143 49.5827 20.1265 49.5584 20.1023C49.5341 20.078 49.5176 20.0472 49.5109 20.0136C49.5042 19.98 49.5076 19.9452 49.5208 19.9135C49.5339 19.8819 49.5562 19.8549 49.5847 19.8358C49.6133 19.8168 49.6469 19.8066 49.6812 19.8066C49.7273 19.8067 49.7714 19.8249 49.804 19.8574C49.8366 19.8899 49.8549 19.9339 49.8549 19.9798V19.9798Z" fill="#B7B29E"/>
<path d="M50.3382 18.7449C50.3382 18.7792 50.328 18.8127 50.3089 18.8412C50.2898 18.8697 50.2627 18.8919 50.231 18.905C50.1992 18.9182 50.1643 18.9216 50.1306 18.9149C50.0969 18.9083 50.0659 18.8918 50.0416 18.8675C50.0173 18.8433 50.0008 18.8124 49.9941 18.7788C49.9874 18.7452 49.9908 18.7104 50.0039 18.6787C50.0171 18.6471 50.0394 18.62 50.0679 18.601C50.0965 18.5819 50.1301 18.5718 50.1644 18.5718C50.2105 18.5718 50.2547 18.59 50.2873 18.6225C50.3198 18.655 50.3382 18.699 50.3382 18.7449V18.7449Z" fill="#B7B29E"/>
<path d="M52.1931 19.9916C52.1931 20.1505 52.1459 20.3058 52.0574 20.4378C51.9689 20.5699 51.8431 20.6729 51.6959 20.7337C51.5488 20.7944 51.3868 20.8104 51.2306 20.7794C51.0744 20.7484 50.9308 20.6719 50.8182 20.5596C50.7056 20.4473 50.6288 20.3042 50.5978 20.1484C50.5667 19.9926 50.5826 19.8311 50.6436 19.6843C50.7045 19.5376 50.8077 19.4121 50.9402 19.3239C51.0726 19.2356 51.2283 19.1885 51.3876 19.1885C51.6012 19.1885 51.8061 19.2731 51.9572 19.4237C52.1082 19.5743 52.1931 19.7786 52.1931 19.9916Z" fill="#B7B29E"/>
<path d="M5.16709 12.8115C4.6686 13.5392 4.3197 14.3582 4.14056 15.2211C3.85828 16.6267 3.677 18.956 3.677 18.956H0.445177C0.445177 18.956 0.0602111 18.6349 0.00890574 18.2331C-0.0423997 17.8312 0.132584 14.7793 0.414869 14.6187C0.581804 14.5237 2.42852 14.3777 2.42852 14.3777L3.3145 12.3296L5.16709 12.8115Z" fill="#636152"/>
<path d="M26.4047 5.9707L26.597 7.97103L26.0732 8.01738C26.0732 8.01738 25.7313 7.81999 25.6352 7.18825C25.5256 6.46857 25.921 6.06605 25.921 6.06605L26.4047 5.9707Z" fill="#636152"/>
<path d="M25.7866 6.82764L23.6923 7.6509C23.6923 7.6509 23.1486 8.01238 23.3098 8.37379C23.4709 8.73521 24.1159 8.48673 24.1159 8.48673L26.008 7.24935L25.7866 6.82764Z" fill="#636152"/>
<path d="M46.0441 0.22153C45.7921 0.0330762 45.4544 0.00438919 45.3191 0.000829514H45.3132C45.2792 6.17403e-05 45.2587 0.000829514 45.2587 0.000829514H30.2974C30.2369 0.0409631 29.7336 -0.0594755 29.4315 0.362242C29.2301 0.643386 28.8878 1.52688 28.8878 1.52688L30.0758 1.48675C30.0758 1.48675 30.0758 1.10517 30.257 0.884328C30.4382 0.663488 30.7605 0.563259 30.7605 0.563259H44.9818C45.1547 0.567446 45.4261 0.589363 45.4802 0.68373C45.5663 0.872979 45.6403 1.06747 45.7017 1.26605L46.5676 1.22592C46.5676 1.22592 46.3662 0.46268 46.0441 0.22153Z" fill="#B5B5B5"/>
</g>
<defs>
<clipPath id="clip0_212_2915">
<rect width="61.3579" height="29" fill="white"/>
</clipPath>
</defs>
</svg>
