<svg width="24" height="16" viewBox="0 0 24 16" fill="none" xmlns="http://www.w3.org/2000/svg">
<path d="M3.12404 11.8061H2.78696V8.52197L3.1251 8.60515L3.12404 11.8061Z" fill="black"/>
<path d="M2.67072 8.49386V11.8057H2.33237V8.50634L2.4652 8.44312L2.67072 8.49386Z" fill="black"/>
<path d="M3.5778 11.8062H3.23944V8.63184L3.5778 8.71501V11.8062Z" fill="black"/>
<path d="M4.03114 11.8059H3.69278V8.74194L4.03114 8.82513V11.8059Z" fill="black"/>
<path d="M4.47512 11.806H4.14633V8.85205L4.47512 8.93163V11.806Z" fill="black"/>
<path d="M1.31069 11.8061H0.981689V9.14825L1.31069 8.99243V11.8061Z" fill="black"/>
<path d="M0.299888 8.30837L2.11046 7.05571C2.34641 6.89234 2.61865 6.84145 2.88026 6.91181L3.34784 7.03907V5.8585L4.7833 5.71683V5.34169C4.78312 5.24677 4.79816 5.15285 4.82744 5.06595C4.85672 4.97905 4.8996 4.90109 4.95332 4.83708L5.4498 4.24734V2.46984C5.44997 2.45439 5.44774 2.43905 5.44325 2.42475C5.43876 2.41046 5.4321 2.3975 5.42366 2.38665L4.97628 1.81189L5.47361 1.15312L5.92099 1.72788C5.996 1.8249 6.05558 1.94029 6.09632 2.06743C6.13706 2.19456 6.15815 2.33093 6.15839 2.46873V3.54116C7.30013 2.67972 8.98998 2.3958 10.4618 2.40967V1.31283C10.4628 1.03549 10.5482 0.770033 10.6992 0.574759L11.1455 0L11.6433 0.658492L11.1969 1.23353C11.1884 1.24429 11.1817 1.25724 11.1771 1.27155C11.1726 1.28586 11.1704 1.30123 11.1706 1.31671V2.4435C11.6171 2.47456 12.0617 2.54168 12.5019 2.6445L24 8.11096L12.3782 3.72249V12.1376L23.9992 14.7422H22.1777C22.0971 14.9553 21.974 15.1361 21.8213 15.2656C21.6686 15.3951 21.4919 15.4685 21.31 15.478H19.8872C19.7047 15.4692 19.5273 15.3962 19.3739 15.2666C19.2205 15.1371 19.0968 14.9559 19.0159 14.7422H9.29965C9.21866 14.9558 9.09494 15.137 8.94156 15.2665C8.78818 15.396 8.61084 15.4691 8.42826 15.478H7.00577C6.82319 15.4691 6.64584 15.396 6.49246 15.2665C6.33908 15.137 6.21536 14.9558 6.13438 14.7422H4.07088C3.98993 14.9559 3.86622 15.1371 3.71284 15.2666C3.55945 15.3961 3.38209 15.4692 3.19949 15.478H1.77679C1.59421 15.4691 1.41686 15.396 1.26348 15.2665C1.1101 15.137 0.986385 14.9558 0.905398 14.7422H0V8.95383C0.000141392 8.8208 0.0281556 8.69035 0.0810105 8.57659C0.133865 8.46283 0.209552 8.37008 0.299888 8.30837ZM0.942803 13.805H4.802C4.84656 13.805 4.88929 13.782 4.9208 13.7409C4.95231 13.6997 4.97 13.644 4.97 13.5859C4.97 13.5277 4.95231 13.472 4.9208 13.4309C4.88929 13.3898 4.84656 13.3667 4.802 13.3667H0.943866C0.899308 13.3667 0.856576 13.3898 0.825068 13.4309C0.793561 13.472 0.775859 13.5277 0.775859 13.5859C0.775859 13.644 0.793561 13.6997 0.825068 13.7409C0.856576 13.782 0.899308 13.805 0.943866 13.805H0.942803ZM5.00476 12.5787H6.27996C6.60301 10.3288 9.13344 11.3962 9.13344 11.3962L10.3419 11.834V6.39361L8.73069 5.61729L3.5608 6.07948V6.34232L8.02571 5.88013V8.33249L6.03788 8.88397L5.00433 8.33249V12.251L4.60859 11.946V8.78636L2.4535 8.26346L0.84716 9.02564V11.9779L0.371513 12.5796L5.00476 12.5787Z" fill="black"/>
<path d="M2.21738 11.806H1.87903V8.72227L2.21738 8.56201V11.806Z" fill="black"/>
<path d="M1.76381 11.8059H1.42651V8.93739L1.76466 8.77686L1.76381 11.8059Z" fill="black"/>
</svg>
